{
.appVersion = "1038";
copyright = "Copyright 2017, Sebastian Kosch, with Reserved Font Name \"Crimson\".";
customParameters = (
{
name = note;
value = "";
},
{
name = openTypeNameLicense;
value = "This Font Software is licensed under the SIL Open Font License, Version 1.1.\012This license is available with a FAQ at: http://scripts.sil.org/OFL";
},
{
name = openTypeNameLicenseURL;
value = "http://scripts.sil.org/OFL";
},
{
name = openTypeNameVersion;
value = "Version 0.008";
},
{
name = openTypeOS2FamilyClass;
value = (
1,
2
);
},
{
name = openTypeOS2Panose;
value = (
2,
3,
5,
3,
6,
4,
6,
2,
3,
4
);
},
{
name = openTypeOS2StrikeoutPosition;
value = 255;
},
{
name = openTypeOS2StrikeoutSize;
value = 51;
},
{
name = openTypeOS2SubscriptXOffset;
value = 0;
},
{
name = openTypeOS2SubscriptXSize;
value = 665;
},
{
name = openTypeOS2SubscriptYOffset;
value = 76;
},
{
name = openTypeOS2SubscriptYSize;
value = 614;
},
{
name = openTypeOS2SuperscriptXOffset;
value = 0;
},
{
name = openTypeOS2SuperscriptXSize;
value = 665;
},
{
name = openTypeOS2SuperscriptYOffset;
value = 358;
},
{
name = openTypeOS2SuperscriptYSize;
value = 614;
},
{
name = fsType;
value = (
);
},
{
name = vendorID;
value = PfEd;
},
{
name = postscriptBlueScale;
value = 0.03963;
},
{
name = postscriptBlueShift;
value = 6;
}
);
date = "2017-03-18 21:02:09 +0000";
disablesNiceNames = 1;
familyName = Crimson;
featurePrefixes = (
{
code = "languagesystem DFLT dflt;\012languagesystem cyrl dflt;\012languagesystem grek dflt;\012languagesystem latn dflt;\012languagesystem latn TRK ;\012";
name = Languagesystems;
},
{

glyphs = (
{
glyphname = A;
lastChange = "2017-07-12 19:24:32 +0000";
layers = (
{
layerId = "7694D355-AE73-4198-9D25-79029021B8F9";
paths = (
{
closed = 1;
nodes = (
"-12 -3 CURVE",
"-15 0 OFFCURVE",
"-15 19 OFFCURVE",
"-12 26 CURVE",
"0 26 OFFCURVE",
"38 32 OFFCURVE",
"48 45 CURVE SMOOTH",
"68 71 OFFCURVE",
"81 103 OFFCURVE",
"95 139 CURVE SMOOTH",
"95 139 OFFCURVE",
"227 478 OFFCURVE",
"288 634 CURVE",
"293 644 OFFCURVE",
"317 663 OFFCURVE",
"326 663 CURVE SMOOTH",
"329 663 OFFCURVE",
"329 661 OFFCURVE",
"332 660 CURVE",
"536 126 LINE SMOOTH",
"550 89 OFFCURVE",
"559 64 OFFCURVE",
"561 60 CURVE SMOOTH",
"571 36 OFFCURVE",
"621 26 OFFCURVE",
"629 26 CURVE",
"634 19 OFFCURVE",
"632 0 OFFCURVE",
"631 -3 CURVE",
"591 -1 OFFCURVE",
"565 2 OFFCURVE",
"521 2 CURVE SMOOTH",
"475 2 OFFCURVE",
"451 -1 OFFCURVE",
"405 -3 CURVE",
"400 2 OFFCURVE",
"401 21 OFFCURVE",
"406 26 CURVE",
"418 26 OFFCURVE",
"453 31 OFFCURVE",
"462 39 CURVE SMOOTH",
"465 42 OFFCURVE",
"466 47 OFFCURVE",
"466 53 CURVE SMOOTH",
"466 83 OFFCURVE",
"398 248 OFFCURVE",
"398 248 CURVE",
"398 248 OFFCURVE",
"395 252 OFFCURVE",
"392 252 CURVE SMOOTH",
"366 254 OFFCURVE",
"318 253 OFFCURVE",
"293 253 CURVE SMOOTH",
"252 253 OFFCURVE",
"230 253 OFFCURVE",
"185 250 CURVE SMOOTH",
"183 250 OFFCURVE",
"180 247 OFFCURVE",
"180 247 CURVE",
"180 247 OFFCURVE",
"152 173 OFFCURVE",
"135 125 CURVE SMOOTH",
"123 90 OFFCURVE",
"121 67 OFFCURVE",
"121 54 CURVE SMOOTH",
"121 30 OFFCURVE",
"182 26 OFFCURVE",
"190 26 CURVE",
"193 23 OFFCURVE",
"194 3 OFFCURVE",
"192 -3 CURVE",
"152 -1 OFFCURVE",
"139 2 OFFCURVE",
"95 2 CURVE SMOOTH",
"49 2 OFFCURVE",
"34 -1 OFFCURVE"
);
},
{
closed = 1;
nodes = (
"199 298 LINE",
"199 298 OFFCURVE",
"199 294 OFFCURVE",
"201 294 CURVE SMOOTH",
"227 293 OFFCURVE",
"269 292 OFFCURVE",
"292 292 CURVE SMOOTH",
"323 292 OFFCURVE",
"345 293 OFFCURVE",
"376 295 CURVE SMOOTH",
"378 295 OFFCURVE",
"379 300 OFFCURVE",
"379 300 CURVE",
"291 542 LINE"
);
}
);
width = 627;
}
);
unicode = 0041;
userData = {
com.fontlab.hintData = {
hhints = (
{
position = -3;
width = 29;
},
{
position = 253;
width = 39;
},
{
position = 643;
width = 20;
}
);
};
};
},
{
glyphname = Aogonek;
lastChange = "2017-07-12 19:24:32 +0000";
layers = (
{
layerId = "7694D355-AE73-4198-9D25-79029021B8F9";
paths = (
{
closed = 1;
nodes = (
"-12 -3 CURVE",
"-15 0 OFFCURVE",
"-15 19 OFFCURVE",
"-12 26 CURVE",
"0 26 OFFCURVE",
"38 32 OFFCURVE",
"48 45 CURVE SMOOTH",
"68 71 OFFCURVE",
"81 103 OFFCURVE",
"95 139 CURVE SMOOTH",
"95 139 OFFCURVE",
"227 478 OFFCURVE",
"288 634 CURVE",
"293 644 OFFCURVE",
"317 663 OFFCURVE",
"326 663 CURVE SMOOTH",
"329 663 OFFCURVE",
"329 661 OFFCURVE",
"332 660 CURVE",
"536 126 LINE SMOOTH",
"550 89 OFFCURVE",
"559 64 OFFCURVE",
"561 60 CURVE SMOOTH",
"571 36 OFFCURVE",
"621 26 OFFCURVE",
"629 26 CURVE",
"634 19 OFFCURVE",
"632 0 OFFCURVE",
"631 -3 CURVE",
"603 -2 OFFCURVE",
"583 0 OFFCURVE",
"559 1 CURVE",
"515 -25 OFFCURVE",
"456 -77 OFFCURVE",
"456 -121 CURVE SMOOTH",
"456 -136 OFFCURVE",
"463 -164 OFFCURVE",
"497 -164 CURVE SMOOTH",
"548 -164 OFFCURVE",
"572 -126 OFFCURVE",
"578 -126 CURVE SMOOTH",
"579 -126 OFFCURVE",
"583 -131 OFFCURVE",
"583 -139 CURVE SMOOTH",
"583 -144 OFFCURVE",
"581 -153 OFFCURVE",
"578 -157 CURVE SMOOTH",
"556 -186 OFFCURVE",
"518 -223 OFFCURVE",
"473 -223 CURVE SMOOTH",
"417 -223 OFFCURVE",
"402 -173 OFFCURVE",
"402 -146 CURVE SMOOTH",
"402 -91 OFFCURVE",
"460 -32 OFFCURVE",
"514 2 CURVE",
"513 2 OFFCURVE",
"513 2 OFFCURVE",
"512 2 CURVE SMOOTH",
"472 2 OFFCURVE",
"447 -1 OFFCURVE",
"405 -3 CURVE",
"400 2 OFFCURVE",
"401 21 OFFCURVE",
"406 26 CURVE",
"418 26 OFFCURVE",
"453 31 OFFCURVE",
"462 39 CURVE SMOOTH",
"465 42 OFFCURVE",
"466 47 OFFCURVE",
"466 53 CURVE SMOOTH",
"466 83 OFFCURVE",
"398 248 OFFCURVE",
"398 248 CURVE",
"398 248 OFFCURVE",
"395 252 OFFCURVE",
"392 252 CURVE SMOOTH",
"366 254 OFFCURVE",
"318 253 OFFCURVE",
"293 253 CURVE SMOOTH",
"252 253 OFFCURVE",
"230 253 OFFCURVE",
"185 250 CURVE SMOOTH",
"183 250 OFFCURVE",
"180 247 OFFCURVE",
"180 247 CURVE",
"180 247 OFFCURVE",
"152 173 OFFCURVE",
"135 125 CURVE SMOOTH",
"123 90 OFFCURVE",
"121 67 OFFCURVE",
"121 54 CURVE SMOOTH",
"122 30 OFFCURVE",
"182 26 OFFCURVE",
"190 26 CURVE",
"193 23 OFFCURVE",
"194 3 OFFCURVE",
"192 -3 CURVE",
"152 -1 OFFCURVE",
"138 2 OFFCURVE",
"95 2 CURVE SMOOTH",
"49 2 OFFCURVE",
"34 -1 OFFCURVE"
);
},
{
closed = 1;
nodes = (
"199 298 LINE",
"199 298 OFFCURVE",
"199 294 OFFCURVE",
"201 294 CURVE SMOOTH",
"227 293 OFFCURVE",
"269 292 OFFCURVE",
"292 292 CURVE SMOOTH",
"323 292 OFFCURVE",
"345 293 OFFCURVE",
"376 295 CURVE SMOOTH",
"378 295 OFFCURVE",
"379 300 OFFCURVE",
"379 300 CURVE",
"291 542 LINE"
);
}
);
width = 627;
}
);
unicode = 0104;
userData = {
com.fontlab.hintData = {
hhints = (
{
position = -223;
width = 59;
},
{
position = -3;
width = 29;
},
{
position = 253;
width = 39;
},
{
position = 643;
width = 20;
}
);
vhints = (
{
position = 402;
width = 54;
}
);
};
};
},
{
glyphname = Aring;
lastChange = "2017-07-12 19:24:32 +0000";
layers = (
{
layerId = "7694D355-AE73-4198-9D25-79029021B8F9";
paths = (
{
closed = 1;
nodes = (
"257 784 CURVE SMOOTH",
"257 753 OFFCURVE",
"283 728 OFFCURVE",
"313 728 CURVE SMOOTH",
"343 728 OFFCURVE",
"367 753 OFFCURVE",
"367 784 CURVE SMOOTH",
"367 815 OFFCURVE",
"343 839 OFFCURVE",
"313 839 CURVE SMOOTH",
"283 839 OFFCURVE",
"257 815 OFFCURVE"
);
},
{
closed = 1;
nodes = (
"224 784 CURVE SMOOTH",
"224 833 OFFCURVE",
"265 873 OFFCURVE",
"313 873 CURVE SMOOTH",
"361 873 OFFCURVE",
"400 833 OFFCURVE",
"400 784 CURVE SMOOTH",
"400 735 OFFCURVE",
"361 694 OFFCURVE",
"313 694 CURVE SMOOTH",
"265 694 OFFCURVE",
"224 735 OFFCURVE"
);
},
{
closed = 1;
nodes = (
"199 298 LINE"
);
},
{
closed = 1;
nodes = (
"-12 -3 CURVE SMOOTH",
"-15 0 OFFCURVE",
"-15 19 OFFCURVE",
"-12 26 CURVE",
"0 26 OFFCURVE",
"38 32 OFFCURVE",
"48 45 CURVE SMOOTH",
"68 71 OFFCURVE",
"81 103 OFFCURVE",
"95 139 CURVE SMOOTH",
"95 139 OFFCURVE",
"227 478 OFFCURVE",
"288 634 CURVE SMOOTH",
"293 644 OFFCURVE",
"317 663 OFFCURVE",
"326 663 CURVE SMOOTH",
"329 663 OFFCURVE",
"329 661 OFFCURVE",
"332 660 CURVE",
"536 126 LINE SMOOTH",
"550 89 OFFCURVE",
"559 64 OFFCURVE",
"561 60 CURVE SMOOTH",
"571 36 OFFCURVE",
"621 26 OFFCURVE",
"629 26 CURVE",
"634 19 OFFCURVE",
"632 0 OFFCURVE",
"631 -3 CURVE SMOOTH",
"591 -1 OFFCURVE",
"565 2 OFFCURVE",
"521 2 CURVE SMOOTH",
"475 2 OFFCURVE",
"451 -1 OFFCURVE",
"405 -3 CURVE",
"400 2 OFFCURVE",
"401 21 OFFCURVE",
"406 26 CURVE",
"418 26 OFFCURVE",
"453 31 OFFCURVE",
"462 39 CURVE SMOOTH",
"465 42 OFFCURVE",
"466 47 OFFCURVE",
"466 53 CURVE SMOOTH",
"466 83 OFFCURVE",
"398 248 OFFCURVE",
"398 248 CURVE",
"398 248 OFFCURVE",
"395 252 OFFCURVE",
"392 252 CURVE SMOOTH",
"366 254 OFFCURVE",
"318 253 OFFCURVE",
"293 253 CURVE SMOOTH",
"252 253 OFFCURVE",
"230 253 OFFCURVE",
"185 250 CURVE SMOOTH",
"183 250 OFFCURVE",
"180 247 OFFCURVE",
"180 247 CURVE",
"180 247 OFFCURVE",
"152 173 OFFCURVE",
"135 125 CURVE SMOOTH",
"123 90 OFFCURVE",
"121 67 OFFCURVE",
"121 54 CURVE SMOOTH",
"121 30 OFFCURVE",
"182 26 OFFCURVE",
"190 26 CURVE SMOOTH",
"193 23 OFFCURVE",
"194 3 OFFCURVE",
"192 -3 CURVE",
"152 -1 OFFCURVE",
"139 2 OFFCURVE",
"95 2 CURVE SMOOTH",
"49 2 OFFCURVE",
"34 -1 OFFCURVE"
);
}
);
width = 627;
}
);
unicode = 00C5;
userData = {
com.fontlab.hintData = {
hhints = (
{
position = -3;
width = 29;
},
{
position = 253;
width = 39;
},
{
position = 643;
width = 20;
},
{
position = 694;
width = 34;
},
{
position = 839;
width = 34;
}
);
vhints = (
{
position = 224;
width = 33;
},
{
position = 367;
width = 33;
}
);
};
};
},
{
glyphname = AE;
lastChange = "2017-07-12 19:24:32 +0000";
layers = (
{
layerId = "7694D355-AE73-4198-9D25-79029021B8F9";
paths = (
{
closed = 1;
nodes = (
"-14 -3 CURVE",
"-17 0 OFFCURVE",
"-17 19 OFFCURVE",
"-14 26 CURVE",
"-2 26 OFFCURVE",
"29 36 OFFCURVE",
"43 45 CURVE SMOOTH",
"68 61 OFFCURVE",
"98 104 OFFCURVE",
"118 137 CURVE SMOOTH",
"395 584 LINE SMOOTH",
"398 589 OFFCURVE",
"402 597 OFFCURVE",
"402 604 CURVE SMOOTH",
"402 622 OFFCURVE",
"369 629 OFFCURVE",
"357 629 CURVE",
"352 635 OFFCURVE",
"355 656 OFFCURVE",
"357 658 CURVE",
"357 658 OFFCURVE",
"406 657 OFFCURVE",
"473 657 CURVE SMOOTH",
"567 657 OFFCURVE",
"685 664 OFFCURVE",
"794 664 CURVE",
"801 614 OFFCURVE",
"814 573 OFFCURVE",
"823 528 CURVE",
"820 525 OFFCURVE",
"812 523 OFFCURVE",
"805 523 CURVE SMOOTH",
"798 523 OFFCURVE",
"792 525 OFFCURVE",
"791 530 CURVE SMOOTH",
"769 610 OFFCURVE",
"728 624 OFFCURVE",
"675 624 CURVE SMOOTH",
"589 624 LINE SMOOTH",
"577 624 OFFCURVE",
"523 623 OFFCURVE",
"520 613 CURVE SMOOTH",
"515 597 OFFCURVE",
"515 569 OFFCURVE",
"515 542 CURVE SMOOTH",
"515 355 LINE SMOOTH",
"515 350 OFFCURVE",
"536 349 OFFCURVE",
"558 349 CURVE SMOOTH",
"611 349 LINE SMOOTH",
"707 349 OFFCURVE",
"704 355 OFFCURVE",
"721 421 CURVE SMOOTH",
"722 426 OFFCURVE",
"729 428 OFFCURVE",
"736 428 CURVE SMOOTH",
"743 428 OFFCURVE",
"750 426 OFFCURVE",
"753 423 CURVE",
"753 234 LINE",
"751 232 OFFCURVE",
"744 230 OFFCURVE",
"737 230 CURVE SMOOTH",
"730 230 OFFCURVE",
"723 233 OFFCURVE",
"721 238 CURVE SMOOTH",
"706 295 OFFCURVE",
"702 298 OFFCURVE",
"693 304 CURVE SMOOTH",
"682 311 OFFCURVE",
"625 312 OFFCURVE",
"587 312 CURVE SMOOTH",
"559 312 OFFCURVE",
"515 312 OFFCURVE",
"515 303 CURVE SMOOTH",
"515 113 LINE SMOOTH",
"515 98 OFFCURVE",
"515 49 OFFCURVE",
"521 44 CURVE SMOOTH",
"534 34 OFFCURVE",
"550 34 OFFCURVE",
"592 34 CURVE SMOOTH",
"640 34 LINE SMOOTH",
"687 34 OFFCURVE",
"738 44 OFFCURVE",
"766 61 CURVE SMOOTH",
"798 80 OFFCURVE",
"813 119 OFFCURVE",
"829 162 CURVE SMOOTH",
"830 166 OFFCURVE",
"836 168 OFFCURVE",
"843 168 CURVE SMOOTH",
"853 168 OFFCURVE",
"865 165 OFFCURVE",
"868 162 CURVE",
"849 108 OFFCURVE",
"821 40 OFFCURVE",
"814 -4 CURVE",
"705 -4 OFFCURVE",
"606 0 OFFCURVE",
"473 0 CURVE SMOOTH",
"406 0 OFFCURVE",
"357 -3 OFFCURVE",
"357 -3 CURVE",
"353 2 OFFCURVE",
"355 26 OFFCURVE",
"357 26 CURVE SMOOTH",
"369 26 OFFCURVE",
"418 37 OFFCURVE",
"423 49 CURVE",
"429 72 OFFCURVE",
"430 118 OFFCURVE",
"430 135 CURVE SMOOTH",
"430 255 LINE",
"412 256 OFFCURVE",
"366 257 OFFCURVE",
"341 257 CURVE SMOOTH",
"300 257 OFFCURVE",
"285 255 OFFCURVE",
"239 252 CURVE SMOOTH",
"237 252 OFFCURVE",
"234 249 OFFCURVE",
"234 249 CURVE",
"234 249 OFFCURVE",
"192 178 OFFCURVE",
"161 129 CURVE SMOOTH",
"141 98 OFFCURVE",
"121 65 OFFCURVE",
"121 52 CURVE SMOOTH",
"121 28 OFFCURVE",
"177 26 OFFCURVE",
"185 26 CURVE",
"188 23 OFFCURVE",
"189 3 OFFCURVE",
"187 -3 CURVE",
"147 -1 OFFCURVE",
"134 2 OFFCURVE",
"90 2 CURVE SMOOTH",
"44 2 OFFCURVE",
"32 -1 OFFCURVE"
);
},
{
closed = 1;
nodes = (
"266 300 CURVE",
"266 300 OFFCURVE",
"265 296 OFFCURVE",
"267 296 CURVE SMOOTH",
"293 295 OFFCURVE",
"323 295 OFFCURVE",
"346 295 CURVE SMOOTH",
"377 295 OFFCURVE",
"411 296 OFFCURVE",
"430 297 CURVE",
"430 566 LINE",
"409 533 OFFCURVE",
"266 300 OFFCURVE"
);
}
);
width = 897;
}
);
unicode = 00C6;
userData = {
com.fontlab.hintData = {
hhints = (
{
position = -3;
width = 29;
},
{
position = 0;
width = 34;
},
{
position = 257;
width = 38;
},
{
position = 312;
width = 37;
},
{
position = 408;
width = 20;
},
{
position = 624;
width = 40;
},
{
position = 624;
width = 33;
}
);
vhints = (
{
position = 430;
width = 85;
},
{
position = 721;
width = 32;
},
{
position = 791;
width = 32;
}
);
};
};
},
{
glyphname = AEacute;
lastChange = "2017-07-12 19:24:32 +0000";
layers = (
{
components = (
{
name = acutecomb.cap;
transform = "{1, 0, 0, 1, 607, 0}";
}
);
layerId = "7694D355-AE73-4198-9D25-79029021B8F9";
paths = (
{
closed = 1;
nodes = (
"-14 -3 CURVE",
"-17 0 OFFCURVE",
"-17 19 OFFCURVE",
"-14 26 CURVE",
"-2 26 OFFCURVE",
"29 36 OFFCURVE",
"43 45 CURVE SMOOTH",
"68 61 OFFCURVE",
"98 104 OFFCURVE",
"118 137 CURVE SMOOTH",
"395 584 LINE SMOOTH",
"398 589 OFFCURVE",
"402 597 OFFCURVE",
"402 604 CURVE SMOOTH",
"402 622 OFFCURVE",
"369 629 OFFCURVE",
"357 629 CURVE",
"352 635 OFFCURVE",
"355 656 OFFCURVE",
"357 658 CURVE",
"357 658 OFFCURVE",
"406 657 OFFCURVE",
"473 657 CURVE SMOOTH",
"567 657 OFFCURVE",
"685 664 OFFCURVE",
"794 664 CURVE",
"801 614 OFFCURVE",
"814 573 OFFCURVE",
"823 528 CURVE",
"820 525 OFFCURVE",
"812 523 OFFCURVE",
"805 523 CURVE SMOOTH",
"798 523 OFFCURVE",
"792 525 OFFCURVE",
"791 530 CURVE SMOOTH",
"769 610 OFFCURVE",
"728 624 OFFCURVE",
"675 624 CURVE SMOOTH",
"589 624 LINE SMOOTH",
"577 624 OFFCURVE",
"523 623 OFFCURVE",
"520 613 CURVE SMOOTH",
"515 597 OFFCURVE",
"515 569 OFFCURVE",
"515 542 CURVE SMOOTH",
"515 355 LINE SMOOTH",
"515 350 OFFCURVE",
"536 349 OFFCURVE",
"558 349 CURVE SMOOTH",
"611 349 LINE SMOOTH",
"707 349 OFFCURVE",
"704 355 OFFCURVE",
"721 421 CURVE SMOOTH",
"722 426 OFFCURVE",
"729 428 OFFCURVE",
"736 428 CURVE SMOOTH",
"743 428 OFFCURVE",
"750 426 OFFCURVE",
"753 423 CURVE",
"753 234 LINE",
"751 232 OFFCURVE",
"744 230 OFFCURVE",
"737 230 CURVE SMOOTH",
"730 230 OFFCURVE",
"723 233 OFFCURVE",
"721 238 CURVE SMOOTH",
"706 295 OFFCURVE",
"702 298 OFFCURVE",
"693 304 CURVE SMOOTH",
"682 311 OFFCURVE",
"625 312 OFFCURVE",
"587 312 CURVE SMOOTH",
"559 312 OFFCURVE",
"515 312 OFFCURVE",
"515 303 CURVE SMOOTH",
"515 113 LINE SMOOTH",
"515 98 OFFCURVE",
"515 49 OFFCURVE",
"521 44 CURVE SMOOTH",
"534 34 OFFCURVE",
"550 34 OFFCURVE",
"592 34 CURVE SMOOTH",
"640 34 LINE SMOOTH",
"687 34 OFFCURVE",
"738 44 OFFCURVE",
"766 61 CURVE SMOOTH",
"798 80 OFFCURVE",
"813 119 OFFCURVE",
"829 162 CURVE SMOOTH",
"830 166 OFFCURVE",
"836 168 OFFCURVE",
"843 168 CURVE SMOOTH",
"853 168 OFFCURVE",
"865 165 OFFCURVE",
"868 162 CURVE",
"849 108 OFFCURVE",
"821 40 OFFCURVE",
"814 -4 CURVE",
"705 -4 OFFCURVE",
"606 0 OFFCURVE",
"473 0 CURVE SMOOTH",
"406 0 OFFCURVE",
"357 -3 OFFCURVE",
"357 -3 CURVE",
"353 2 OFFCURVE",
"355 26 OFFCURVE",
"357 26 CURVE SMOOTH",
"369 26 OFFCURVE",
"418 37 OFFCURVE",
"423 49 CURVE",
"429 72 OFFCURVE",
"430 118 OFFCURVE",
"430 135 CURVE SMOOTH",
"430 255 LINE",
"412 256 OFFCURVE",
"366 257 OFFCURVE",
"341 257 CURVE SMOOTH",
"300 257 OFFCURVE",
"285 255 OFFCURVE",
"239 252 CURVE SMOOTH",
"237 252 OFFCURVE",
"234 249 OFFCURVE",
"234 249 CURVE",
"234 249 OFFCURVE",
"192 178 OFFCURVE",
"161 129 CURVE SMOOTH",
"141 98 OFFCURVE",
"121 65 OFFCURVE",
"121 52 CURVE SMOOTH",
"121 28 OFFCURVE",
"177 26 OFFCURVE",
"185 26 CURVE",
"188 23 OFFCURVE",
"189 3 OFFCURVE",
"187 -3 CURVE",
"147 -1 OFFCURVE",
"134 2 OFFCURVE",
"90 2 CURVE SMOOTH",
"44 2 OFFCURVE",
"32 -1 OFFCURVE"
);
},
{
closed = 1;
nodes = (
"266 300 CURVE",
"266 300 OFFCURVE",
"265 296 OFFCURVE",
"267 296 CURVE SMOOTH",
"293 295 OFFCURVE",
"323 295 OFFCURVE",
"346 295 CURVE SMOOTH",
"377 295 OFFCURVE",
"411 296 OFFCURVE",
"430 297 CURVE",
"430 566 LINE",
"409 533 OFFCURVE",
"266 300 OFFCURVE"
);
}
);
width = 897;
}
);
unicode = 01FC;
userData = {
com.fontlab.hintData = {
hhints = (
{
position = -3;
width = 29;
},
{
position = 0;
width = 34;
},
{
position = 257;
width = 38;
},
{
position = 312;
width = 37;
},
{
position = 408;
width = 20;
},
{
position = 624;
width = 40;
},
{
position = 624;
width = 33;
},
{
position = 720;
width = 133;
}
);
vhints = (
{
position = 430;
width = 85;
},
{
position = 519;
width = 185;
},
{
position = 721;
width = 32;
},
{
position = 791;
width = 32;
}
);
};
};
},
{
glyphname = uni01E2;
lastChange = "2017-07-12 19:24:32 +0000";
layers = (
{
components = (
{
name = uni0304.cap;
transform = "{1, 0, 0, 1, 591, 14}";
}
);
layerId = "7694D355-AE73-4198-9D25-79029021B8F9";
paths = (
{
closed = 1;
nodes = (
"-14 -3 CURVE",
"-17 0 OFFCURVE",
"-17 19 OFFCURVE",
"-14 26 CURVE",
"-2 26 OFFCURVE",
"29 36 OFFCURVE",
"43 45 CURVE SMOOTH",
"68 61 OFFCURVE",
"98 104 OFFCURVE",
"118 137 CURVE SMOOTH",
"395 584 LINE SMOOTH",
"398 589 OFFCURVE",
"402 597 OFFCURVE",
"402 604 CURVE SMOOTH",
"402 622 OFFCURVE",
"369 629 OFFCURVE",
"357 629 CURVE",
"352 635 OFFCURVE",
"355 656 OFFCURVE",
"357 658 CURVE",
"357 658 OFFCURVE",
"406 657 OFFCURVE",
"473 657 CURVE SMOOTH",
"567 657 OFFCURVE",
"685 664 OFFCURVE",
"794 664 CURVE",
"801 614 OFFCURVE",
"814 573 OFFCURVE",
"823 528 CURVE",
"820 525 OFFCURVE",
"812 523 OFFCURVE",
"805 523 CURVE SMOOTH",
"798 523 OFFCURVE",
"792 525 OFFCURVE",
"791 530 CURVE SMOOTH",
"769 610 OFFCURVE",
"728 624 OFFCURVE",
"675 624 CURVE SMOOTH",
"589 624 LINE SMOOTH",
"577 624 OFFCURVE",
"523 623 OFFCURVE",
"520 613 CURVE SMOOTH",
"515 597 OFFCURVE",
"515 569 OFFCURVE",
"515 542 CURVE SMOOTH",
"515 355 LINE SMOOTH",
"515 350 OFFCURVE",
"536 349 OFFCURVE",
"558 349 CURVE SMOOTH",
"611 349 LINE SMOOTH",
"707 349 OFFCURVE",
"704 355 OFFCURVE",
"721 421 CURVE SMOOTH",
"722 426 OFFCURVE",
"729 428 OFFCURVE",
"736 428 CURVE SMOOTH",
"743 428 OFFCURVE",
"750 426 OFFCURVE",
"753 423 CURVE",
"753 234 LINE",
"751 232 OFFCURVE",
"744 230 OFFCURVE",
"737 230 CURVE SMOOTH",
"730 230 OFFCURVE",
"723 233 OFFCURVE",
"721 238 CURVE SMOOTH",
"706 295 OFFCURVE",
"702 298 OFFCURVE",
"693 304 CURVE SMOOTH",
"682 311 OFFCURVE",
"625 312 OFFCURVE",
"587 312 CURVE SMOOTH",
"559 312 OFFCURVE",
"515 312 OFFCURVE",
"515 303 CURVE SMOOTH",
"515 113 LINE SMOOTH",
"515 98 OFFCURVE",
"515 49 OFFCURVE",
"521 44 CURVE SMOOTH",
"534 34 OFFCURVE",
"550 34 OFFCURVE",
"592 34 CURVE SMOOTH",
"640 34 LINE SMOOTH",
"687 34 OFFCURVE",
"738 44 OFFCURVE",
"766 61 CURVE SMOOTH",
"798 80 OFFCURVE",
"813 119 OFFCURVE",
"829 162 CURVE SMOOTH",
"830 166 OFFCURVE",
"836 168 OFFCURVE",
"843 168 CURVE SMOOTH",
"853 168 OFFCURVE",
"865 165 OFFCURVE",
"868 162 CURVE",
"849 108 OFFCURVE",
"821 40 OFFCURVE",
"814 -4 CURVE",
"705 -4 OFFCURVE",
"606 0 OFFCURVE",
"473 0 CURVE SMOOTH",
"406 0 OFFCURVE",
"357 -3 OFFCURVE",
"357 -3 CURVE",
"353 2 OFFCURVE",
"355 26 OFFCURVE",
"357 26 CURVE SMOOTH",
"369 26 OFFCURVE",
"418 37 OFFCURVE",
"423 49 CURVE",
"429 72 OFFCURVE",
"430 118 OFFCURVE",
"430 135 CURVE SMOOTH",
"430 255 LINE",
"412 256 OFFCURVE",
"366 257 OFFCURVE",
"341 257 CURVE SMOOTH",
"300 257 OFFCURVE",
"285 255 OFFCURVE",
"239 252 CURVE SMOOTH",
"237 252 OFFCURVE",
"234 249 OFFCURVE",
"234 249 CURVE",
"234 249 OFFCURVE",
"192 178 OFFCURVE",
"161 129 CURVE SMOOTH",
"141 98 OFFCURVE",
"121 65 OFFCURVE",
"121 52 CURVE SMOOTH",
"121 28 OFFCURVE",
"177 26 OFFCURVE",
"185 26 CURVE",
"188 23 OFFCURVE",
"189 3 OFFCURVE",
"187 -3 CURVE",
"147 -1 OFFCURVE",
"134 2 OFFCURVE",
"90 2 CURVE SMOOTH",
"44 2 OFFCURVE",
"32 -1 OFFCURVE"
);
},
{
closed = 1;
nodes = (
"266 300 CURVE",
"266 300 OFFCURVE",
"265 296 OFFCURVE",
"267 296 CURVE SMOOTH",
"293 295 OFFCURVE",
"323 295 OFFCURVE",
"346 295 CURVE SMOOTH",
"377 295 OFFCURVE",
"411 296 OFFCURVE",
"430 297 CURVE",
"430 566 LINE",
"409 533 OFFCURVE",
"266 300 OFFCURVE"
);
}
);
width = 897;
}
);
unicode = 01E2;
userData = {
com.fontlab.hintData = {
hhints = (
{
position = -3;
width = 29;
},
{
position = 0;
width = 34;
},
{
position = 257;
width = 38;
},
{
position = 312;
width = 37;
},
{
position = 408;
width = 20;
},
{
position = 624;
width = 40;
},
{
position = 624;
width = 33;
},
{
position = 758;
width = 42;
}
);
vhints = (
{
position = 430;
width = 85;
},
{
position = 721;
width = 32;
},
{
position = 791;
width = 32;
}
);
};
};
},
{
glyphname = B;
lastChange = "2017-07-12 19:24:32 +0000";
layers = (
{
layerId = "7694D355-AE73-4198-9D25-79029021B8F9";
paths = (
{
closed = 1;
nodes = (
"45 -3 LINE",
"40 2 OFFCURVE",
"41 21 OFFCURVE",
"45 26 CURVE",
"57 26 OFFCURVE",
"111 31 OFFCURVE",
"114 42 CURVE SMOOTH",
"119 58 OFFCURVE",
"119 86 OFFCURVE",
"119 116 CURVE SMOOTH",
"119 543 LINE SMOOTH",
"119 573 OFFCURVE",
"119 601 OFFCURVE",
"114 617 CURVE SMOOTH",
"111 628 OFFCURVE",
"57 633 OFFCURVE",
"45 633 CURVE",
"41 638 OFFCURVE",
"40 657 OFFCURVE",
"45 662 CURVE",
"86 660 OFFCURVE",
"124 657 OFFCURVE",
"163 657 CURVE SMOOTH",
"202 657 OFFCURVE",
"246 659 OFFCURVE",
"305 659 CURVE SMOOTH",
"396 659 OFFCURVE",
"506 624 OFFCURVE",
"506 510 CURVE SMOOTH",
"506 433 OFFCURVE",
"440 378 OFFCURVE",
"405 365 CURVE SMOOTH",
"403 364 OFFCURVE",
"402 362 OFFCURVE",
"405 360 CURVE",
"454 358 OFFCURVE",
"552 298 OFFCURVE",
"552 199 CURVE SMOOTH",
"552 142 OFFCURVE",
"534 92 OFFCURVE",
"485 51 CURVE SMOOTH",
"437 11 OFFCURVE",
"352 -2 OFFCURVE",
"275 -3 CURVE"
);
},
{
closed = 1;
nodes = (
"206 115 LINE SMOOTH",
"206 101 OFFCURVE",
"208 54 OFFCURVE",
"215 47 CURVE SMOOTH",
"230 31 OFFCURVE",
"257 29 OFFCURVE",
"294 29 CURVE SMOOTH",
"369 29 OFFCURVE",
"453 54 OFFCURVE",
"453 176 CURVE SMOOTH",
"453 251 OFFCURVE",
"421 332 OFFCURVE",
"267 332 CURVE SMOOTH",
"206 332 LINE"
);
},
{
closed = 1;
nodes = (
"206 370 LINE",
"290 370 LINE SMOOTH",
"380 370 OFFCURVE",
"415 430 OFFCURVE",
"415 487 CURVE SMOOTH",
"415 576 OFFCURVE",
"354 627 OFFCURVE",
"261 627 CURVE SMOOTH",
"249 627 OFFCURVE",
"215 626 OFFCURVE",
"211 617 CURVE SMOOTH",
"206 605 OFFCURVE",
"206 572 OFFCURVE",
"206 542 CURVE SMOOTH"
);
}
);
width = 596;
}
);
unicode = 0042;
userData = {
com.fontlab.hintData = {
hhints = (
{
position = -3;
width = 29;
},
{
position = 332;
width = 38;
},
{
position = 627;
width = 32;
}
);
vhints = (
{
position = 119;
width = 87;
},
{
position = 415;
width = 91;
},
{
position = 453;
width = 99;
}
);
};
};
},
{
glyphname = C;
lastChange = "2017-07-12 19:24:32 +0000";
layers = (
{
layerId = "7694D355-AE73-4198-9D25-79029021B8F9";
paths = (
{
closed = 1;
nodes = (
"48 322 CURVE SMOOTH",
"48 509 OFFCURVE",
"189 667 OFFCURVE",
"386 667 CURVE SMOOTH",
"452 667 OFFCURVE",
"524 662 OFFCURVE",
"598 646 CURVE",
"598 646 OFFCURVE",
"621 508 OFFCURVE",
"621 498 CURVE",
"622 492 OFFCURVE",
"609 485 OFFCURVE",
"599 485 CURVE SMOOTH",
"593 485 OFFCURVE",
"590 486 OFFCURVE",
"587 488 CURVE",
"581 519 OFFCURVE",
"558 634 OFFCURVE",
"391 634 CURVE SMOOTH",
"243 634 OFFCURVE",
"147 483 OFFCURVE",
"147 343 CURVE SMOOTH",
"147 187 OFFCURVE",
"233 27 OFFCURVE",
"407 27 CURVE SMOOTH",
"468 27 OFFCURVE",
"510 49 OFFCURVE",
"539 75 CURVE SMOOTH",
"578 110 OFFCURVE",
"593 158 OFFCURVE",
"600 191 CURVE",
"610 192 OFFCURVE",
"623 189 OFFCURVE",
"632 183 CURVE",
"632 163 OFFCURVE",
"611 51 OFFCURVE",
"597 39 CURVE",
"542 8 OFFCURVE",
"474 -6 OFFCURVE",
"382 -6 CURVE SMOOTH",
"184 -6 OFFCURVE",
"48 145 OFFCURVE"
);
}
);
width = 674;
}
);
unicode = 0043;
userData = {
com.fontlab.hintData = {
hhints = (
{
position = -6;
width = 33;
},
{
position = 634;
width = 33;
}
);
vhints = (
{
position = 48;
width = 99;
},
{
position = 587;
width = 34;
},
{
position = 600;
width = 32;
}
);
};
};
},
{
glyphname = Ccedilla;
lastChange = "2017-07-12 19:24:32 +0000";
layers = (
{
layerId = "7694D355-AE73-4198-9D25-79029021B8F9";
paths = (
{
closed = 1;
nodes = (
"307 -147 CURVE SMOOTH",
"307 -139 OFFCURVE",
"317 -131 OFFCURVE",
"324 -131 CURVE SMOOTH",
"338 -131 OFFCURVE",
"348 -146 OFFCURVE",
"367 -146 CURVE SMOOTH",
"400 -146 OFFCURVE",
"418 -127 OFFCURVE",
"418 -107 CURVE SMOOTH",
"418 -79 OFFCURVE",
"397 -67 OFFCURVE",
"382 -67 CURVE SMOOTH",
"369 -67 OFFCURVE",
"363 -70 OFFCURVE",
"351 -75 CURVE SMOOTH",
"349 -75 OFFCURVE",
"337 -65 OFFCURVE",
"339 -60 CURVE SMOOTH",
"348.788 -43.983 OFFCURVE",
"364.12 -22.423 OFFCURVE",
"373.72 -5.889 CURVE",
"180.763 -1.252 OFFCURVE",
"49 147.779 OFFCURVE",
"49 322 CURVE SMOOTH",
"49 509 OFFCURVE",
"190 667 OFFCURVE",
"387 667 CURVE SMOOTH",
"453 667 OFFCURVE",
"525 662 OFFCURVE",
"599 646 CURVE",
"599 646 OFFCURVE",
"622 508 OFFCURVE",
"622 498 CURVE SMOOTH",
"623 492 OFFCURVE",
"610 485 OFFCURVE",
"600 485 CURVE SMOOTH",
"594 485 OFFCURVE",
"591 486 OFFCURVE",
"588 488 CURVE SMOOTH",
"582 519 OFFCURVE",
"559 634 OFFCURVE",
"392 634 CURVE SMOOTH",
"244 634 OFFCURVE",
"148 483 OFFCURVE",
"148 343 CURVE SMOOTH",
"148 187 OFFCURVE",
"234 27 OFFCURVE",
"408 27 CURVE SMOOTH",
"469 27 OFFCURVE",
"511 49 OFFCURVE",
"540 75 CURVE SMOOTH",
"579 110 OFFCURVE",
"594 158 OFFCURVE",
"601 191 CURVE",
"611 192 OFFCURVE",
"624 189 OFFCURVE",
"633 183 CURVE",
"633 163 OFFCURVE",
"612 51 OFFCURVE",
"598 39 CURVE SMOOTH",
"545.869 9.617 OFFCURVE",
"482.06 -4.493 OFFCURVE",
"397.205 -5.885 CURVE",
"380 -27 LINE",
"410 -27 LINE SMOOTH",
"441 -27 OFFCURVE",
"462 -54 OFFCURVE",
"462 -85 CURVE SMOOTH",
"462 -140 OFFCURVE",
"412 -174 OFFCURVE",
"351 -174 CURVE SMOOTH",
"337 -174 OFFCURVE",
"318 -169 OFFCURVE",
"311 -164 CURVE",
"310 -158 OFFCURVE",
"307 -154 OFFCURVE"
);
}
);
width = 674;
}
);
unicode = 00C7;
userData = {
com.fontlab.hintData = {
hhints = (
{
position = -174;
width = 28;
},
{
position = -67;
width = 40;
},
{
position = -6;
width = 33;
},
{
position = 634;
width = 33;
}
);
vhints = (
{
position = 49;
width = 99;
},
{
position = 418;
width = 44;
},
{
position = 588;
width = 34;
},
{
position = 601;
width = 32;
}
);
};
};
},
{
glyphname = D;
lastChange = "2017-07-12 19:24:32 +0000";
layers = (
{
layerId = "7694D355-AE73-4198-9D25-79029021B8F9";
paths = (
{
closed = 1;
nodes = (
"45 -3 LINE",
"40 2 OFFCURVE",
"41 21 OFFCURVE",
"45 26 CURVE",
"57 26 OFFCURVE",
"111 31 OFFCURVE",
"114 42 CURVE SMOOTH",
"119 58 OFFCURVE",
"119 86 OFFCURVE",
"119 116 CURVE SMOOTH",
"119 543 LINE SMOOTH",
"119 573 OFFCURVE",
"119 601 OFFCURVE",
"114 617 CURVE SMOOTH",
"111 628 OFFCURVE",
"57 633 OFFCURVE",
"45 633 CURVE",
"41 638 OFFCURVE",
"40 657 OFFCURVE",
"45 662 CURVE",
"86 660 OFFCURVE",
"124 657 OFFCURVE",
"163 657 CURVE SMOOTH",
"202 657 OFFCURVE",
"264 658 OFFCURVE",
"308 658 CURVE SMOOTH",
"527 658 OFFCURVE",
"659 519 OFFCURVE",
"659 334 CURVE SMOOTH",
"659 164 OFFCURVE",
"577 -3 OFFCURVE",
"295 -3 CURVE SMOOTH"
);
},
{
closed = 1;
nodes = (
"207 115 LINE SMOOTH",
"207 101 OFFCURVE",
"208 49 OFFCURVE",
"213 43 CURVE SMOOTH",
"221 32 OFFCURVE",
"258 29 OFFCURVE",
"295 29 CURVE SMOOTH",
"437 29 OFFCURVE",
"560 118 OFFCURVE",
"560 313 CURVE SMOOTH",
"560 539 OFFCURVE",
"425 626 OFFCURVE",
"281 626 CURVE SMOOTH",
"269 626 OFFCURVE",
"215 625 OFFCURVE",
"212 615 CURVE SMOOTH",
"207 599 OFFCURVE",
"207 570 OFFCURVE",
"207 541 CURVE SMOOTH"
);
}
);
width = 710;
}
);
unicode = 0044;
userData = {
com.fontlab.hintData = {
hhints = (
{
position = -3;
width = 29;
},
{
position = 626;
width = 32;
},
{
position = 633;
width = 29;
}
);
vhints = (
{
position = 119;
width = 88;
},
{
position = 560;
width = 99;
}
);
};
};
},
{
glyphname = Eth;
lastChange = "2017-07-12 19:24:32 +0000";
layers = (
{
layerId = "7694D355-AE73-4198-9D25-79029021B8F9";
paths = (
{
closed = 1;
nodes = (
"49 311 LINE SMOOTH",
"45 311 OFFCURVE",
"44 339 OFFCURVE",
"50 348 CURVE",
"119 348 LINE",
"119 543 LINE SMOOTH",
"119 573 OFFCURVE",
"119 601 OFFCURVE",
"114 617 CURVE SMOOTH",
"111 628 OFFCURVE",
"57 633 OFFCURVE",
"45 633 CURVE",
"41 638 OFFCURVE",
"40 657 OFFCURVE",
"45 662 CURVE",
"86 660 OFFCURVE",
"124 657 OFFCURVE",
"163 657 CURVE SMOOTH",
"202 657 OFFCURVE",
"264 658 OFFCURVE",
"308 658 CURVE SMOOTH",
"527 658 OFFCURVE",
"659 519 OFFCURVE",
"659 334 CURVE SMOOTH",
"659 164 OFFCURVE",
"577 -3 OFFCURVE",
"295 -3 CURVE SMOOTH",
"45 -3 LINE",
"40 2 OFFCURVE",
"41 21 OFFCURVE",
"45 26 CURVE",
"57 26 OFFCURVE",
"111 31 OFFCURVE",
"114 42 CURVE SMOOTH",
"119 58 OFFCURVE",
"119 86 OFFCURVE",
"119 116 CURVE SMOOTH",
"119 311 LINE"
);
},
{
closed = 1;
nodes = (
"207 115 LINE SMOOTH",
"207 101 OFFCURVE",
"208 49 OFFCURVE",
"213 43 CURVE SMOOTH",
"221 32 OFFCURVE",
"258 29 OFFCURVE",
"295 29 CURVE SMOOTH",
"437 29 OFFCURVE",
"560 118 OFFCURVE",
"560 313 CURVE SMOOTH",
"560 539 OFFCURVE",
"425 626 OFFCURVE",
"281 626 CURVE SMOOTH",
"269 626 OFFCURVE",
"215 625 OFFCURVE",
"212 615 CURVE SMOOTH",
"207 599 OFFCURVE",
"207 570 OFFCURVE",
"207 541 CURVE SMOOTH",
"207 348 LINE",
"365 348 LINE SMOOTH",
"369 348 OFFCURVE",
"369 320 OFFCURVE",
"365 311 CURVE",
"207 311 LINE"
);
}
);
width = 710;
}
);
unicode = 00D0;
userData = {
com.fontlab.hintData = {
hhints = (
{
position = -3;
width = 29;
},
{
position = 311;
width = 37;
},
{
position = 626;
width = 32;
},
{
position = 633;
width = 29;
}
);
vhints = (
{
position = 119;
width = 88;
},
{
position = 560;
width = 99;
}
);
};
};
},
{
glyphname = Dcroat;
lastChange = "2017-07-12 19:24:32 +0000";
layers = (
{
layerId = "7694D355-AE73-4198-9D25-79029021B8F9";
paths = (
{
closed = 1;
nodes = (
"49 311 LINE SMOOTH",
"45 311 OFFCURVE",
"44 339 OFFCURVE",
"50 348 CURVE",
"119 348 LINE",
"119 543 LINE SMOOTH",
"119 573 OFFCURVE",
"119 601 OFFCURVE",
"114 617 CURVE SMOOTH",
"111 628 OFFCURVE",
"57 633 OFFCURVE",
"45 633 CURVE",
"41 638 OFFCURVE",
"40 657 OFFCURVE",
"45 662 CURVE",
"86 660 OFFCURVE",
"124 657 OFFCURVE",
"163 657 CURVE SMOOTH",
"202 657 OFFCURVE",
"264 658 OFFCURVE",
"308 658 CURVE SMOOTH",
"527 658 OFFCURVE",
"659 519 OFFCURVE",
"659 334 CURVE SMOOTH",
"659 164 OFFCURVE",
"577 -3 OFFCURVE",
"295 -3 CURVE SMOOTH",
"45 -3 LINE",
"40 2 OFFCURVE",
"41 21 OFFCURVE",
"45 26 CURVE",
"57 26 OFFCURVE",
"111 31 OFFCURVE",
"114 42 CURVE SMOOTH",
"119 58 OFFCURVE",
"119 86 OFFCURVE",
"119 116 CURVE SMOOTH",
"119 311 LINE"
);
},
{
closed = 1;
nodes = (
"207 115 LINE SMOOTH",
"207 101 OFFCURVE",
"208 49 OFFCURVE",
"213 43 CURVE SMOOTH",
"221 32 OFFCURVE",
"258 29 OFFCURVE",
"295 29 CURVE SMOOTH",
"437 29 OFFCURVE",
"560 118 OFFCURVE",
"560 313 CURVE SMOOTH",
"560 539 OFFCURVE",
"425 626 OFFCURVE",
"281 626 CURVE SMOOTH",
"269 626 OFFCURVE",
"215 625 OFFCURVE",
"212 615 CURVE SMOOTH",
"207 599 OFFCURVE",
"207 570 OFFCURVE",
"207 541 CURVE SMOOTH",
"207 348 LINE",
"365 348 LINE SMOOTH",
"369 348 OFFCURVE",
"369 320 OFFCURVE",
"365 311 CURVE",
"207 311 LINE"
);
}
);
width = 710;
}
);
unicode = 0110;
userData = {
com.fontlab.hintData = {
hhints = (
{
position = -3;
width = 29;
},
{
position = 311;
width = 37;
},
{
position = 626;
width = 32;
},
{
position = 633;
width = 29;
}
);
vhints = (
{
position = 119;
width = 88;
},
{
position = 560;
width = 99;
}
);
};
};
},
{
glyphname = E;
lastChange = "2017-07-12 19:24:32 +0000";
layers = (
{
layerId = "7694D355-AE73-4198-9D25-79029021B8F9";
paths = (
{
closed = 1;
nodes = (
"45 -3 CURVE",
"40 2 OFFCURVE",
"41 21 OFFCURVE",
"45 26 CURVE",
"57 26 OFFCURVE",
"111 31 OFFCURVE",
"114 42 CURVE SMOOTH",
"119 58 OFFCURVE",
"119 86 OFFCURVE",
"119 116 CURVE SMOOTH",
"119 543 LINE SMOOTH",
"119 573 OFFCURVE",
"119 601 OFFCURVE",
"114 617 CURVE SMOOTH",
"111 628 OFFCURVE",
"57 633 OFFCURVE",
"45 633 CURVE",
"41 638 OFFCURVE",
"40 657 OFFCURVE",
"45 662 CURVE",
"86 660 OFFCURVE",
"124 657 OFFCURVE",
"163 657 CURVE SMOOTH",
"257 657 OFFCURVE",
"376 664 OFFCURVE",
"485 664 CURVE",
"492 614 OFFCURVE",
"505 573 OFFCURVE",
"514 528 CURVE",
"511 525 OFFCURVE",
"503 523 OFFCURVE",
"496 523 CURVE SMOOTH",
"489 523 OFFCURVE",
"483 525 OFFCURVE",
"482 530 CURVE SMOOTH",
"460 610 OFFCURVE",
"419 624 OFFCURVE",
"366 624 CURVE SMOOTH",
"280 624 LINE SMOOTH",
"268 624 OFFCURVE",
"214 623 OFFCURVE",
"211 613 CURVE SMOOTH",
"206 597 OFFCURVE",
"206 569 OFFCURVE",
"206 542 CURVE SMOOTH",
"206 355 LINE SMOOTH",
"206 350 OFFCURVE",
"227 349 OFFCURVE",
"249 349 CURVE SMOOTH",
"302 349 LINE SMOOTH",
"398 349 OFFCURVE",
"395 355 OFFCURVE",
"412 421 CURVE SMOOTH",
"413 426 OFFCURVE",
"420 428 OFFCURVE",
"427 428 CURVE SMOOTH",
"434 428 OFFCURVE",
"441 426 OFFCURVE",
"444 423 CURVE",
"444 234 LINE",
"442 232 OFFCURVE",
"435 230 OFFCURVE",
"428 230 CURVE SMOOTH",
"421 230 OFFCURVE",
"414 233 OFFCURVE",
"412 238 CURVE SMOOTH",
"397 295 OFFCURVE",
"393 298 OFFCURVE",
"384 304 CURVE SMOOTH",
"373 311 OFFCURVE",
"316 312 OFFCURVE",
"278 312 CURVE SMOOTH",
"250 312 OFFCURVE",
"206 312 OFFCURVE",
"206 303 CURVE SMOOTH",
"206 113 LINE SMOOTH",
"206 98 OFFCURVE",
"206 49 OFFCURVE",
"212 44 CURVE SMOOTH",
"225 34 OFFCURVE",
"241 34 OFFCURVE",
"283 34 CURVE SMOOTH",
"331 34 LINE SMOOTH",
"378 34 OFFCURVE",
"429 44 OFFCURVE",
"457 61 CURVE SMOOTH",
"489 80 OFFCURVE",
"504 119 OFFCURVE",
"520 162 CURVE SMOOTH",
"521 166 OFFCURVE",
"527 168 OFFCURVE",
"534 168 CURVE SMOOTH",
"544 168 OFFCURVE",
"556 165 OFFCURVE",
"559 162 CURVE",
"540 108 OFFCURVE",
"512 40 OFFCURVE",
"505 -4 CURVE",
"396 -4 OFFCURVE",
"297 0 OFFCURVE",
"164 0 CURVE SMOOTH",
"117 0 OFFCURVE",
"84 -3 OFFCURVE"
);
}
);
width = 587;
}
);
unicode = 0045;
userData = {
com.fontlab.hintData = {
hhints = (
{
position = -3;
width = 29;
},
{
position = 0;
width = 34;
},
{
position = 312;
width = 37;
},
{
position = 408;
width = 20;
},
{
position = 624;
width = 40;
},
{
position = 624;
width = 33;
},
{
position = 633;
width = 29;
}
);
vhints = (
{
position = 119;
width = 87;
},
{
position = 412;
width = 32;
},
{
position = 482;
width = 32;
}
);
};
};
},
{
glyphname = Eogonek;
lastChange = "2017-07-12 19:24:32 +0000";
layers = (
{
layerId = "7694D355-AE73-4198-9D25-79029021B8F9";
paths = (
{
closed = 1;
nodes = (
"45 -3 CURVE",
"40 2 OFFCURVE",
"41 21 OFFCURVE",
"45 26 CURVE",
"57 26 OFFCURVE",
"111 31 OFFCURVE",
"114 42 CURVE SMOOTH",
"119 58 OFFCURVE",
"119 86 OFFCURVE",
"119 116 CURVE SMOOTH",
"119 543 LINE SMOOTH",
"119 573 OFFCURVE",
"119 601 OFFCURVE",
"114 617 CURVE SMOOTH",
"111 628 OFFCURVE",
"57 633 OFFCURVE",
"45 633 CURVE",
"41 638 OFFCURVE",
"40 657 OFFCURVE",
"45 662 CURVE",
"86 660 OFFCURVE",
"124 657 OFFCURVE",
"163 657 CURVE SMOOTH",
"257 657 OFFCURVE",
"376 664 OFFCURVE",
"485 664 CURVE",
"492 614 OFFCURVE",
"505 573 OFFCURVE",
"514 528 CURVE",
"511 525 OFFCURVE",
"503 523 OFFCURVE",
"496 523 CURVE SMOOTH",
"489 523 OFFCURVE",
"483 525 OFFCURVE",
"482 530 CURVE SMOOTH",
"460 610 OFFCURVE",
"419 624 OFFCURVE",
"366 624 CURVE SMOOTH",
"280 624 LINE SMOOTH",
"268 624 OFFCURVE",
"214 623 OFFCURVE",
"211 613 CURVE SMOOTH",
"206 597 OFFCURVE",
"206 569 OFFCURVE",
"206 542 CURVE SMOOTH",
"206 355 LINE SMOOTH",
"206 350 OFFCURVE",
"227 349 OFFCURVE",
"249 349 CURVE SMOOTH",
"302 349 LINE SMOOTH",
"398 349 OFFCURVE",
"395 355 OFFCURVE",
"412 421 CURVE SMOOTH",
"413 426 OFFCURVE",
"420 428 OFFCURVE",
"427 428 CURVE SMOOTH",
"434 428 OFFCURVE",
"441 426 OFFCURVE",
"444 423 CURVE",
"444 234 LINE",
"442 232 OFFCURVE",
"435 230 OFFCURVE",
"428 230 CURVE SMOOTH",
"421 230 OFFCURVE",
"414 233 OFFCURVE",
"412 238 CURVE SMOOTH",
"397 295 OFFCURVE",
"393 298 OFFCURVE",
"384 304 CURVE SMOOTH",
"373 311 OFFCURVE",
"316 312 OFFCURVE",
"278 312 CURVE SMOOTH",
"250 312 OFFCURVE",
"206 312 OFFCURVE",
"206 303 CURVE SMOOTH",
"206 113 LINE SMOOTH",
"206 98 OFFCURVE",
"206 49 OFFCURVE",
"212 44 CURVE SMOOTH",
"225 34 OFFCURVE",
"241 34 OFFCURVE",
"283 34 CURVE SMOOTH",
"331 34 LINE SMOOTH",
"378 34 OFFCURVE",
"429 44 OFFCURVE",
"457 61 CURVE SMOOTH",
"489 80 OFFCURVE",
"504 119 OFFCURVE",
"520 162 CURVE SMOOTH",
"521 166 OFFCURVE",
"527 168 OFFCURVE",
"534 168 CURVE SMOOTH",
"544 168 OFFCURVE",
"556 165 OFFCURVE",
"559 162 CURVE",
"540 108 OFFCURVE",
"512 40 OFFCURVE",
"505 -4 CURVE",
"446 -4 OFFCURVE",
"380 -79 OFFCURVE",
"380 -122 CURVE SMOOTH",
"380 -137 OFFCURVE",
"387 -165 OFFCURVE",
"421 -165 CURVE SMOOTH",
"472 -165 OFFCURVE",
"496 -127 OFFCURVE",
"502 -127 CURVE SMOOTH",
"503 -127 OFFCURVE",
"506 -132 OFFCURVE",
"506 -140 CURVE SMOOTH",
"506 -145 OFFCURVE",
"505 -154 OFFCURVE",
"502 -158 CURVE SMOOTH",
"480 -187 OFFCURVE",
"442 -224 OFFCURVE",
"397 -224 CURVE SMOOTH",
"341 -224 OFFCURVE",
"326 -174 OFFCURVE",
"326 -147 CURVE SMOOTH",
"326 -96 OFFCURVE",
"380 -38 OFFCURVE",
"430 -3 CURVE",
"348 -2 OFFCURVE",
"297 0 OFFCURVE",
"164 0 CURVE SMOOTH",
"117 0 OFFCURVE",
"84 -3 OFFCURVE"
);
}
);
width = 587;
}
);
unicode = 0118;
userData = {
com.fontlab.hintData = {
hhints = (
{
position = -224;
width = 59;
},
{
position = -3;
width = 29;
},
{
position = 0;
width = 34;
},
{
position = 312;
width = 37;
},
{
position = 408;
width = 20;
},
{
position = 624;
width = 40;
},
{
position = 624;
width = 33;
},
{
position = 633;
width = 29;
}
);
vhints = (
{
position = 119;
width = 87;
},
{
position = 326;
width = 54;
},
{
position = 412;
width = 32;
},
{
position = 482;
width = 32;
}
);
};
};
},
{
glyphname = F;
lastChange = "2017-07-12 19:24:32 +0000";
layers = (
{
layerId = "7694D355-AE73-4198-9D25-79029021B8F9";
paths = (
{
closed = 1;
nodes = (
"45 -3 CURVE",
"40 2 OFFCURVE",
"41 21 OFFCURVE",
"45 26 CURVE",
"57 26 OFFCURVE",
"111 31 OFFCURVE",
"114 42 CURVE SMOOTH",
"119 58 OFFCURVE",
"119 86 OFFCURVE",
"119 116 CURVE SMOOTH",
"119 543 LINE SMOOTH",
"119 573 OFFCURVE",
"119 601 OFFCURVE",
"114 617 CURVE SMOOTH",
"111 628 OFFCURVE",
"57 633 OFFCURVE",
"45 633 CURVE",
"41 638 OFFCURVE",
"40 657 OFFCURVE",
"45 662 CURVE",
"86 660 OFFCURVE",
"124 657 OFFCURVE",
"163 657 CURVE SMOOTH",
"257 657 OFFCURVE",
"376 664 OFFCURVE",
"485 664 CURVE",
"492 614 OFFCURVE",
"505 573 OFFCURVE",
"514 528 CURVE",
"511 525 OFFCURVE",
"503 523 OFFCURVE",
"496 523 CURVE SMOOTH",
"489 523 OFFCURVE",
"483 525 OFFCURVE",
"482 530 CURVE SMOOTH",
"460 610 OFFCURVE",
"419 624 OFFCURVE",
"366 624 CURVE SMOOTH",
"280 624 LINE SMOOTH",
"268 624 OFFCURVE",
"214 623 OFFCURVE",
"211 613 CURVE SMOOTH",
"206 597 OFFCURVE",
"206 569 OFFCURVE",
"206 542 CURVE SMOOTH",
"206 355 LINE SMOOTH",
"206 350 OFFCURVE",
"227 349 OFFCURVE",
"249 349 CURVE SMOOTH",
"302 349 LINE SMOOTH",
"398 349 OFFCURVE",
"395 355 OFFCURVE",
"412 421 CURVE SMOOTH",
"413 426 OFFCURVE",
"420 428 OFFCURVE",
"427 428 CURVE SMOOTH",
"434 428 OFFCURVE",
"441 426 OFFCURVE",
"444 423 CURVE",
"444 234 LINE",
"442 232 OFFCURVE",
"435 230 OFFCURVE",
"428 230 CURVE SMOOTH",
"421 230 OFFCURVE",
"414 233 OFFCURVE",
"412 238 CURVE SMOOTH",
"397 295 OFFCURVE",
"393 298 OFFCURVE",
"384 304 CURVE SMOOTH",
"373 311 OFFCURVE",
"316 312 OFFCURVE",
"278 312 CURVE SMOOTH",
"250 312 OFFCURVE",
"206 312 OFFCURVE",
"206 303 CURVE SMOOTH",
"206 116 LINE SMOOTH",
"206 86 OFFCURVE",
"206 58 OFFCURVE",
"211 42 CURVE SMOOTH",
"214 31 OFFCURVE",
"278 26 OFFCURVE",
"290 26 CURVE",
"294 21 OFFCURVE",
"295 2 OFFCURVE",
"290 -3 CURVE",
"249 -1 OFFCURVE",
"202 2 OFFCURVE",
"163 2 CURVE SMOOTH",
"116 2 OFFCURVE",
"84 -3 OFFCURVE"
);
}
);
width = 535;
}
);
unicode = 0046;
userData = {
com.fontlab.hintData = {
hhints = (
{
position = -3;
width = 29;
},
{
position = 312;
width = 37;
},
{
position = 408;
width = 20;
},
{
position = 624;
width = 40;
},
{
position = 624;
width = 33;
},
{
position = 633;
width = 29;
}
);
vhints = (
{
position = 119;
width = 87;
},
{
position = 412;
width = 32;
},
{
position = 482;
width = 32;
}
);
};
};
},
{
glyphname = G;
lastChange = "2017-07-12 19:24:32 +0000";
layers = (
{
layerId = "7694D355-AE73-4198-9D25-79029021B8F9";
paths = (
{
closed = 1;
nodes = (
"48 322 CURVE SMOOTH",
"48 509 OFFCURVE",
"189 667 OFFCURVE",
"386 667 CURVE SMOOTH",
"452 667 OFFCURVE",
"524 662 OFFCURVE",
"598 646 CURVE",
"598 646 OFFCURVE",
"621 508 OFFCURVE",
"621 498 CURVE",
"622 492 OFFCURVE",
"609 485 OFFCURVE",
"599 485 CURVE SMOOTH",
"593 485 OFFCURVE",
"590 486 OFFCURVE",
"587 488 CURVE",
"581 519 OFFCURVE",
"558 634 OFFCURVE",
"391 634 CURVE SMOOTH",
"243 634 OFFCURVE",
"147 483 OFFCURVE",
"147 343 CURVE SMOOTH",
"147 187 OFFCURVE",
"232 27 OFFCURVE",
"407 27 CURVE SMOOTH",
"459 27 OFFCURVE",
"498 44 OFFCURVE",
"528 59 CURVE SMOOTH",
"534 62 OFFCURVE",
"535 67 OFFCURVE",
"535 74 CURVE SMOOTH",
"535 175 LINE SMOOTH",
"535 205 OFFCURVE",
"535 233 OFFCURVE",
"530 249 CURVE SMOOTH",
"527 260 OFFCURVE",
"474 265 OFFCURVE",
"462 265 CURVE",
"458 270 OFFCURVE",
"457 289 OFFCURVE",
"462 294 CURVE",
"503 292 OFFCURVE",
"540 289 OFFCURVE",
"579 289 CURVE SMOOTH",
"618 289 OFFCURVE",
"650 292 OFFCURVE",
"691 294 CURVE",
"696 289 OFFCURVE",
"695 270 OFFCURVE",
"691 265 CURVE",
"679 265 OFFCURVE",
"629 260 OFFCURVE",
"626 249 CURVE SMOOTH",
"621 233 OFFCURVE",
"621 205 OFFCURVE",
"621 175 CURVE SMOOTH",
"621 104 LINE SMOOTH",
"621 83 OFFCURVE",
"631 74 OFFCURVE",
"631 64 CURVE SMOOTH",
"631 58 OFFCURVE",
"628 55 OFFCURVE",
"611 46 CURVE SMOOTH",
"568 23 OFFCURVE",
"514 -6 OFFCURVE",
"382 -6 CURVE SMOOTH",
"184 -6 OFFCURVE",
"48 145 OFFCURVE"
);
}
);
width = 720;
}
);
unicode = 0047;
userData = {
com.fontlab.hintData = {
hhints = (
{
position = -6;
width = 33;
},
{
position = 265;
width = 29;
},
{
position = 634;
width = 33;
}
);
vhints = (
{
position = 48;
width = 99;
},
{
position = 535;
width = 86;
},
{
position = 587;
width = 34;
}
);
};
};
},
{
glyphname = H;
lastChange = "2017-07-12 19:24:32 +0000";
layers = (
{
layerId = "7694D355-AE73-4198-9D25-79029021B8F9";
paths = (
{
closed = 1;
nodes = (
"45 -3 CURVE",
"40 2 OFFCURVE",
"41 24 OFFCURVE",
"45 29 CURVE",
"57 29 OFFCURVE",
"111 34 OFFCURVE",
"114 45 CURVE SMOOTH",
"119 61 OFFCURVE",
"119 89 OFFCURVE",
"119 119 CURVE SMOOTH",
"119 540 LINE SMOOTH",
"119 570 OFFCURVE",
"119 598 OFFCURVE",
"114 614 CURVE SMOOTH",
"111 625 OFFCURVE",
"57 630 OFFCURVE",
"45 630 CURVE",
"41 635 OFFCURVE",
"40 657 OFFCURVE",
"45 662 CURVE",
"86 660 OFFCURVE",
"124 657 OFFCURVE",
"163 657 CURVE SMOOTH",
"202 657 OFFCURVE",
"239 660 OFFCURVE",
"280 662 CURVE",
"285 657 OFFCURVE",
"284 635 OFFCURVE",
"280 630 CURVE",
"268 630 OFFCURVE",
"214 625 OFFCURVE",
"211 614 CURVE SMOOTH",
"206 598 OFFCURVE",
"206 570 OFFCURVE",
"206 540 CURVE SMOOTH",
"206 370 LINE SMOOTH",
"206 364 OFFCURVE",
"211 362 OFFCURVE",
"217 362 CURVE SMOOTH",
"266 361 OFFCURVE",
"309 359 OFFCURVE",
"365 359 CURVE SMOOTH",
"412 359 OFFCURVE",
"462 361 OFFCURVE",
"502 362 CURVE SMOOTH",
"513 362 OFFCURVE",
"520 363 OFFCURVE",
"520 370 CURVE SMOOTH",
"520 540 LINE SMOOTH",
"520 570 OFFCURVE",
"520 598 OFFCURVE",
"515 614 CURVE SMOOTH",
"512 625 OFFCURVE",
"458 630 OFFCURVE",
"446 630 CURVE",
"442 635 OFFCURVE",
"441 657 OFFCURVE",
"446 662 CURVE",
"487 660 OFFCURVE",
"525 657 OFFCURVE",
"564 657 CURVE SMOOTH",
"603 657 OFFCURVE",
"640 660 OFFCURVE",
"681 662 CURVE",
"686 657 OFFCURVE",
"685 635 OFFCURVE",
"681 630 CURVE",
"669 630 OFFCURVE",
"615 625 OFFCURVE",
"612 614 CURVE SMOOTH",
"607 598 OFFCURVE",
"607 570 OFFCURVE",
"607 540 CURVE SMOOTH",
"607 119 LINE SMOOTH",
"607 89 OFFCURVE",
"607 61 OFFCURVE",
"612 45 CURVE SMOOTH",
"615 34 OFFCURVE",
"669 29 OFFCURVE",
"681 29 CURVE",
"685 24 OFFCURVE",
"686 2 OFFCURVE",
"681 -3 CURVE",
"640 -1 OFFCURVE",
"603 2 OFFCURVE",
"564 2 CURVE SMOOTH",
"525 2 OFFCURVE",
"487 -1 OFFCURVE",
"446 -3 CURVE",
"441 2 OFFCURVE",
"442 24 OFFCURVE",
"446 29 CURVE",
"458 29 OFFCURVE",
"512 34 OFFCURVE",
"515 45 CURVE SMOOTH",
"520 61 OFFCURVE",
"520 89 OFFCURVE",
"520 119 CURVE SMOOTH",
"520 315 LINE SMOOTH",
"520 319 OFFCURVE",
"515 321 OFFCURVE",
"509 321 CURVE SMOOTH",
"464 322 OFFCURVE",
"416 325 OFFCURVE",
"365 325 CURVE SMOOTH",
"242 325 OFFCURVE",
"221 322 OFFCURVE",
"215 321 CURVE SMOOTH",
"210 320 OFFCURVE",
"206 318 OFFCURVE",
"206 313 CURVE SMOOTH",
"206 119 LINE SMOOTH",
"206 89 OFFCURVE",
"206 61 OFFCURVE",
"211 45 CURVE SMOOTH",
"214 34 OFFCURVE",
"268 29 OFFCURVE",
"280 29 CURVE",
"284 24 OFFCURVE",
"285 2 OFFCURVE",
"280 -3 CURVE",
"239 -1 OFFCURVE",
"202 2 OFFCURVE",
"163 2 CURVE SMOOTH",
"124 2 OFFCURVE",
"86 -1 OFFCURVE"
);
}
);
width = 726;
}
);
unicode = 0048;
userData = {
com.fontlab.hintData = {
hhints = (
{
position = -3;
width = 32;
},
{
position = 325;
width = 37;
},
{
position = 630;
width = 32;
}
);
vhints = (
{
position = 119;
width = 87;
},
{
position = 520;
width = 87;
}
);
};
};
},
{
glyphname = Hbar;
lastChange = "2017-07-12 19:24:32 +0000";
layers = (
{
layerId = "7694D355-AE73-4198-9D25-79029021B8F9";
paths = (
{
closed = 1;
nodes = (
"81 483 CURVE SMOOTH",
"81 489 OFFCURVE",
"81 499 OFFCURVE",
"87 508 CURVE",
"119 508 LINE",
"119 540 LINE SMOOTH",
"119 570 OFFCURVE",
"119 598 OFFCURVE",
"114 614 CURVE SMOOTH",
"111 625 OFFCURVE",
"57 630 OFFCURVE",
"45 630 CURVE",
"41 635 OFFCURVE",
"40 657 OFFCURVE",
"45 662 CURVE",
"86 660 OFFCURVE",
"124 657 OFFCURVE",
"163 657 CURVE SMOOTH",
"202 657 OFFCURVE",
"239 660 OFFCURVE",
"280 662 CURVE",
"285 657 OFFCURVE",
"284 635 OFFCURVE",
"280 630 CURVE",
"268 630 OFFCURVE",
"214 625 OFFCURVE",
"211 614 CURVE SMOOTH",
"206 598 OFFCURVE",
"206 570 OFFCURVE",
"206 540 CURVE SMOOTH",
"206 508 LINE",
"520 508 LINE",
"520 540 LINE SMOOTH",
"520 570 OFFCURVE",
"520 598 OFFCURVE",
"515 614 CURVE SMOOTH",
"512 625 OFFCURVE",
"458 630 OFFCURVE",
"446 630 CURVE",
"442 635 OFFCURVE",
"441 657 OFFCURVE",
"446 662 CURVE",
"487 660 OFFCURVE",
"525 657 OFFCURVE",
"564 657 CURVE SMOOTH",
"603 657 OFFCURVE",
"640 660 OFFCURVE",
"681 662 CURVE",
"686 657 OFFCURVE",
"685 635 OFFCURVE",
"681 630 CURVE",
"669 630 OFFCURVE",
"615 625 OFFCURVE",
"612 614 CURVE SMOOTH",
"607 598 OFFCURVE",
"607 570 OFFCURVE",
"607 540 CURVE SMOOTH",
"607 508 LINE",
"639 508 LINE SMOOTH",
"643 508 OFFCURVE",
"644 500 OFFCURVE",
"644 495 CURVE SMOOTH",
"644 489 OFFCURVE",
"644 479 OFFCURVE",
"638 470 CURVE",
"607 470 LINE",
"607 119 LINE SMOOTH",
"607 89 OFFCURVE",
"607 61 OFFCURVE",
"612 45 CURVE SMOOTH",
"615 34 OFFCURVE",
"669 29 OFFCURVE",
"681 29 CURVE",
"685 24 OFFCURVE",
"686 2 OFFCURVE",
"681 -3 CURVE",
"640 -1 OFFCURVE",
"603 2 OFFCURVE",
"564 2 CURVE SMOOTH",
"525 2 OFFCURVE",
"487 -1 OFFCURVE",
"446 -3 CURVE",
"441 2 OFFCURVE",
"442 24 OFFCURVE",
"446 29 CURVE",
"458 29 OFFCURVE",
"512 34 OFFCURVE",
"515 45 CURVE SMOOTH",
"520 61 OFFCURVE",
"520 89 OFFCURVE",
"520 119 CURVE SMOOTH",
"520 315 LINE SMOOTH",
"520 319 OFFCURVE",
"515 321 OFFCURVE",
"509 321 CURVE SMOOTH",
"464 322 OFFCURVE",
"416 325 OFFCURVE",
"365 325 CURVE SMOOTH",
"242 325 OFFCURVE",
"221 322 OFFCURVE",
"215 321 CURVE SMOOTH",
"210 320 OFFCURVE",
"206 318 OFFCURVE",
"206 313 CURVE SMOOTH",
"206 119 LINE SMOOTH",
"206 89 OFFCURVE",
"206 61 OFFCURVE",
"211 45 CURVE SMOOTH",
"214 34 OFFCURVE",
"268 29 OFFCURVE",
"280 29 CURVE",
"284 24 OFFCURVE",
"285 2 OFFCURVE",
"280 -3 CURVE",
"239 -1 OFFCURVE",
"202 2 OFFCURVE",
"163 2 CURVE SMOOTH",
"124 2 OFFCURVE",
"86 -1 OFFCURVE",
"45 -3 CURVE",
"40 2 OFFCURVE",
"41 24 OFFCURVE",
"45 29 CURVE",
"57 29 OFFCURVE",
"111 34 OFFCURVE",
"114 45 CURVE SMOOTH",
"119 61 OFFCURVE",
"119 89 OFFCURVE",
"119 119 CURVE SMOOTH",
"119 470 LINE",
"86 470 LINE SMOOTH",
"82 470 OFFCURVE",
"81 478 OFFCURVE"
);
},
{
closed = 1;
nodes = (
"520 470 LINE",
"206 470 LINE",
"206 370 LINE SMOOTH",
"206 364 OFFCURVE",
"211 362 OFFCURVE",
"217 362 CURVE SMOOTH",
"266 361 OFFCURVE",
"309 359 OFFCURVE",
"365 359 CURVE SMOOTH",
"412 359 OFFCURVE",
"462 361 OFFCURVE",
"502 362 CURVE SMOOTH",
"513 362 OFFCURVE",
"520 363 OFFCURVE",
"520 370 CURVE SMOOTH"
);
}
);
width = 726;
}
);
unicode = 0126;
userData = {
com.fontlab.hintData = {
hhints = (
{
position = -3;
width = 32;
},
{
position = 325;
width = 37;
},
{
position = 470;
width = 38;
},
{
position = 630;
width = 32;
}
);
vhints = (
{
position = 119;
width = 87;
},
{
position = 520;
width = 87;
}
);
};
};
},
{
glyphname = I;
lastChange = "2017-07-12 19:24:32 +0000";
layers = (
{
layerId = "7694D355-AE73-4198-9D25-79029021B8F9";
paths = (
{
closed = 1;
nodes = (
"45 -3 CURVE",
"40 2 OFFCURVE",
"41 21 OFFCURVE",
"45 26 CURVE",
"57 26 OFFCURVE",
"111 31 OFFCURVE",
"114 42 CURVE SMOOTH",
"119 58 OFFCURVE",
"119 86 OFFCURVE",
"119 116 CURVE SMOOTH",
"119 543 LINE SMOOTH",
"119 573 OFFCURVE",
"119 601 OFFCURVE",
"114 617 CURVE SMOOTH",
"111 628 OFFCURVE",
"57 633 OFFCURVE",
"45 633 CURVE",
"41 638 OFFCURVE",
"40 657 OFFCURVE",
"45 662 CURVE",
"86 660 OFFCURVE",
"124 657 OFFCURVE",
"163 657 CURVE SMOOTH",
"202 657 OFFCURVE",
"239 660 OFFCURVE",
"280 662 CURVE",
"285 657 OFFCURVE",
"284 638 OFFCURVE",
"280 633 CURVE",
"268 633 OFFCURVE",
"214 628 OFFCURVE",
"211 617 CURVE SMOOTH",
"206 601 OFFCURVE",
"206 573 OFFCURVE",
"206 543 CURVE SMOOTH",
"206 116 LINE SMOOTH",
"206 86 OFFCURVE",
"206 58 OFFCURVE",
"211 42 CURVE SMOOTH",
"214 31 OFFCURVE",
"268 26 OFFCURVE",
"280 26 CURVE",
"284 21 OFFCURVE",
"285 2 OFFCURVE",
"280 -3 CURVE",
"239 -1 OFFCURVE",
"202 2 OFFCURVE",
"163 2 CURVE SMOOTH",
"124 2 OFFCURVE",
"86 -1 OFFCURVE"
);
}
);
width = 324;
}
);
unicode = 0049;
userData = {
com.fontlab.hintData = {
hhints = (
{
position = -3;
width = 29;
},
{
position = 633;
width = 29;
}
);
vhints = (
{
position = 119;
width = 87;
}
);
};
};
},
{
glyphname = Iogonek;
lastChange = "2017-07-12 19:24:32 +0000";
layers = (
{
layerId = "7694D355-AE73-4198-9D25-79029021B8F9";
paths = (
{
closed = 1;
nodes = (
"42 12 CURVE SMOOTH",
"42 18 OFFCURVE",
"44 26 OFFCURVE",
"46 26 CURVE SMOOTH",
"58 26 OFFCURVE",
"108 34 OFFCURVE",
"113 46 CURVE",
"119 69 OFFCURVE",
"120 117 OFFCURVE",
"120 135 CURVE SMOOTH",
"120 523 LINE SMOOTH",
"120 541 OFFCURVE",
"119 589 OFFCURVE",
"113 612 CURVE",
"108 624 OFFCURVE",
"58 633 OFFCURVE",
"46 633 CURVE SMOOTH",
"44 633 OFFCURVE",
"42 640 OFFCURVE",
"42 646 CURVE SMOOTH",
"42 652 OFFCURVE",
"44 660 OFFCURVE",
"46 662 CURVE",
"92 660 OFFCURVE",
"120 657 OFFCURVE",
"166 657 CURVE SMOOTH",
"210 657 OFFCURVE",
"242 660 OFFCURVE",
"282 662 CURVE",
"283 659 OFFCURVE",
"284 652 OFFCURVE",
"284 647 CURVE SMOOTH",
"284 641 OFFCURVE",
"283 633 OFFCURVE",
"280 633 CURVE SMOOTH",
"272 633 OFFCURVE",
"219 623 OFFCURVE",
"216 612 CURVE SMOOTH",
"209 585 OFFCURVE",
"207 555 OFFCURVE",
"207 519 CURVE SMOOTH",
"207 139 LINE SMOOTH",
"207 103 OFFCURVE",
"209 73 OFFCURVE",
"216 46 CURVE SMOOTH",
"219 35 OFFCURVE",
"272 26 OFFCURVE",
"280 26 CURVE SMOOTH",
"283 26 OFFCURVE",
"284 17 OFFCURVE",
"284 11 CURVE SMOOTH",
"284 6 OFFCURVE",
"283 0 OFFCURVE",
"282 -3 CURVE",
"264 -2 OFFCURVE",
"245 -1 OFFCURVE",
"229 0 CURVE",
"185 -26 OFFCURVE",
"122 -78 OFFCURVE",
"122 -122 CURVE SMOOTH",
"122 -137 OFFCURVE",
"129 -165 OFFCURVE",
"163 -165 CURVE SMOOTH",
"214 -165 OFFCURVE",
"238 -127 OFFCURVE",
"244 -127 CURVE SMOOTH",
"245 -127 OFFCURVE",
"248 -132 OFFCURVE",
"248 -140 CURVE SMOOTH",
"248 -145 OFFCURVE",
"247 -154 OFFCURVE",
"244 -158 CURVE SMOOTH",
"222 -187 OFFCURVE",
"184 -224 OFFCURVE",
"139 -224 CURVE SMOOTH",
"83 -224 OFFCURVE",
"68 -174 OFFCURVE",
"68 -147 CURVE SMOOTH",
"68 -93 OFFCURVE",
"131 -33 OFFCURVE",
"184 2 CURVE",
"166 2 LINE SMOOTH",
"120 2 OFFCURVE",
"92 -1 OFFCURVE",
"46 -3 CURVE",
"44 -1 OFFCURVE",
"42 6 OFFCURVE"
);
}
);
width = 328;
}
);
unicode = 012E;
userData = {
com.fontlab.hintData = {
hhints = (
{
position = -224;
width = 59;
},
{
position = -3;
width = 29;
},
{
position = 633;
width = 29;
}
);
vhints = (
{
position = 68;
width = 54;
},
{
position = 120;
width = 87;
}
);
};
};
},
{
glyphname = J;
lastChange = "2017-07-12 19:24:32 +0000";
layers = (
{
layerId = "7694D355-AE73-4198-9D25-79029021B8F9";
paths = (
{
closed = 1;
nodes = (
"-104 -186 CURVE SMOOTH",
"-104 -155 OFFCURVE",
"-88 -130 OFFCURVE",
"-56 -130 CURVE SMOOTH",
"-39 -130 OFFCURVE",
"-24 -143 OFFCURVE",
"-11 -156 CURVE SMOOTH",
"5 -171 OFFCURVE",
"21 -180 OFFCURVE",
"37 -180 CURVE SMOOTH",
"79 -180 OFFCURVE",
"114 -126 OFFCURVE",
"114 116 CURVE SMOOTH",
"114 543 LINE SMOOTH",
"114 573 OFFCURVE",
"114 601 OFFCURVE",
"109 617 CURVE SMOOTH",
"106 628 OFFCURVE",
"52 633 OFFCURVE",
"40 633 CURVE",
"36 638 OFFCURVE",
"35 657 OFFCURVE",
"40 662 CURVE",
"81 660 OFFCURVE",
"119 657 OFFCURVE",
"158 657 CURVE SMOOTH",
"197 657 OFFCURVE",
"234 660 OFFCURVE",
"275 662 CURVE",
"280 657 OFFCURVE",
"279 638 OFFCURVE",
"275 633 CURVE",
"263 633 OFFCURVE",
"209 628 OFFCURVE",
"206 617 CURVE SMOOTH",
"201 601 OFFCURVE",
"201 573 OFFCURVE",
"201 543 CURVE SMOOTH",
"201 121 LINE SMOOTH",
"201 -129 OFFCURVE",
"102 -227 OFFCURVE",
"-33 -227 CURVE SMOOTH",
"-48 -227 OFFCURVE",
"-84 -218 OFFCURVE",
"-96 -209 CURVE",
"-101 -204 OFFCURVE",
"-104 -193 OFFCURVE"
);
}
);
width = 313;
}
);
unicode = 004A;
userData = {
com.fontlab.hintData = {
hhints = (
{
position = -227;
width = 47;
},
{
position = 633;
width = 29;
}
);
vhints = (
{
position = 114;
width = 87;
}
);
};
};
},
{
glyphname = K;
lastChange = "2017-07-12 19:24:32 +0000";
layers = (
{
layerId = "7694D355-AE73-4198-9D25-79029021B8F9";
paths = (
{
closed = 1;
nodes = (
"45 -3 CURVE",
"40 2 OFFCURVE",
"41 24 OFFCURVE",
"45 29 CURVE",
"57 29 OFFCURVE",
"111 34 OFFCURVE",
"114 45 CURVE SMOOTH",
"119 61 OFFCURVE",
"119 89 OFFCURVE",
"119 119 CURVE SMOOTH",
"119 540 LINE SMOOTH",
"119 570 OFFCURVE",
"119 598 OFFCURVE",
"114 614 CURVE SMOOTH",
"111 625 OFFCURVE",
"57 630 OFFCURVE",
"45 630 CURVE",
"41 635 OFFCURVE",
"40 657 OFFCURVE",
"45 662 CURVE",
"86 660 OFFCURVE",
"124 657 OFFCURVE",
"163 657 CURVE SMOOTH",
"202 657 OFFCURVE",
"239 660 OFFCURVE",
"280 662 CURVE",
"285 657 OFFCURVE",
"284 635 OFFCURVE",
"280 630 CURVE",
"268 630 OFFCURVE",
"214 625 OFFCURVE",
"211 614 CURVE SMOOTH",
"206 598 OFFCURVE",
"206 570 OFFCURVE",
"206 540 CURVE SMOOTH",
"206 341 LINE",
"227 354 OFFCURVE",
"278 402 OFFCURVE",
"319 442 CURVE SMOOTH",
"397 519 OFFCURVE",
"416 539 OFFCURVE",
"446 578 CURVE SMOOTH",
"452 586 OFFCURVE",
"460 599 OFFCURVE",
"460 609 CURVE SMOOTH",
"460 634 OFFCURVE",
"413 631 OFFCURVE",
"404 631 CURVE",
"401 637 OFFCURVE",
"401 653 OFFCURVE",
"404 662 CURVE",
"441 660 OFFCURVE",
"482 656 OFFCURVE",
"519 656 CURVE SMOOTH",
"563 656 OFFCURVE",
"587 660 OFFCURVE",
"627 662 CURVE",
"629 656 OFFCURVE",
"630 631 OFFCURVE",
"625 631 CURVE SMOOTH",
"616 630 OFFCURVE",
"560 631 OFFCURVE",
"526 594 CURVE SMOOTH",
"440 500 OFFCURVE",
"382 448 OFFCURVE",
"295 364 CURVE SMOOTH",
"293 361 OFFCURVE",
"293 359 OFFCURVE",
"295 356 CURVE SMOOTH",
"391 244 OFFCURVE",
"474 145 OFFCURVE",
"551 72 CURVE SMOOTH",
"576 49 OFFCURVE",
"605 30 OFFCURVE",
"660 26 CURVE",
"665 21 OFFCURVE",
"660 -1 OFFCURVE",
"659 -3 CURVE",
"592 -3 OFFCURVE",
"537 1 OFFCURVE",
"517 8 CURVE SMOOTH",
"503 13 OFFCURVE",
"477 23 OFFCURVE",
"449 51 CURVE SMOOTH",
"428 72 OFFCURVE",
"337 175 OFFCURVE",
"224 304 CURVE SMOOTH",
"222 307 OFFCURVE",
"219 307 OFFCURVE",
"215 307 CURVE SMOOTH",
"212 307 OFFCURVE",
"208 306 OFFCURVE",
"206 305 CURVE",
"206 119 LINE SMOOTH",
"206 89 OFFCURVE",
"206 61 OFFCURVE",
"211 45 CURVE SMOOTH",
"214 34 OFFCURVE",
"268 29 OFFCURVE",
"280 29 CURVE",
"284 24 OFFCURVE",
"285 2 OFFCURVE",
"280 -3 CURVE",
"239 -1 OFFCURVE",
"202 2 OFFCURVE",
"163 2 CURVE SMOOTH",
"124 2 OFFCURVE",
"86 -1 OFFCURVE"
);
}
);
width = 657;
}
);
unicode = 004B;
userData = {
com.fontlab.hintData = {
hhints = (
{
position = -3;
width = 32;
},
{
position = 630;
width = 32;
}
);
vhints = (
{
position = 119;
width = 87;
}
);
};
};
},
{
glyphname = L;
lastChange = "2017-07-12 19:24:32 +0000";
layers = (
{
layerId = "7694D355-AE73-4198-9D25-79029021B8F9";
paths = (
{
closed = 1;
nodes = (
"45 -3 CURVE",
"40 2 OFFCURVE",
"41 21 OFFCURVE",
"45 26 CURVE",
"57 26 OFFCURVE",
"111 31 OFFCURVE",
"114 42 CURVE SMOOTH",
"119 58 OFFCURVE",
"119 86 OFFCURVE",
"119 116 CURVE SMOOTH",
"119 543 LINE SMOOTH",
"119 573 OFFCURVE",
"119 601 OFFCURVE",
"114 617 CURVE SMOOTH",
"111 628 OFFCURVE",
"57 633 OFFCURVE",
"45 633 CURVE",
"41 638 OFFCURVE",
"40 657 OFFCURVE",
"45 662 CURVE",
"86 660 OFFCURVE",
"124 657 OFFCURVE",
"163 657 CURVE SMOOTH",
"202 657 OFFCURVE",
"239 660 OFFCURVE",
"280 662 CURVE",
"285 657 OFFCURVE",
"284 638 OFFCURVE",
"280 633 CURVE",
"268 633 OFFCURVE",
"214 628 OFFCURVE",
"211 617 CURVE SMOOTH",
"206 601 OFFCURVE",
"206 573 OFFCURVE",
"206 543 CURVE SMOOTH",
"206 116 LINE SMOOTH",
"206 101 OFFCURVE",
"206 49 OFFCURVE",
"212 44 CURVE SMOOTH",
"225 34 OFFCURVE",
"241 34 OFFCURVE",
"283 34 CURVE SMOOTH",
"340 34 LINE SMOOTH",
"378 34 OFFCURVE",
"429 42 OFFCURVE",
"457 61 CURVE SMOOTH",
"482 78 OFFCURVE",
"504 109 OFFCURVE",
"520 162 CURVE SMOOTH",
"521 166 OFFCURVE",
"527 168 OFFCURVE",
"534 168 CURVE SMOOTH",
"544 168 OFFCURVE",
"556 165 OFFCURVE",
"559 162 CURVE",
"540 108 OFFCURVE",
"512 40 OFFCURVE",
"505 -4 CURVE",
"396 -4 OFFCURVE",
"297 0 OFFCURVE",
"164 0 CURVE SMOOTH",
"117 0 OFFCURVE",
"84 -3 OFFCURVE"
);
}
);
width = 564;
}
);
unicode = 004C;
userData = {
com.fontlab.hintData = {
hhints = (
{
position = -3;
width = 29;
},
{
position = 0;
width = 34;
},
{
position = 633;
width = 29;
}
);
vhints = (
{
position = 119;
width = 87;
}
);
};
};
},
{
glyphname = Lslash;
lastChange = "2017-07-12 19:24:32 +0000";
layers = (
{
layerId = "7694D355-AE73-4198-9D25-79029021B8F9";
paths = (
{
closed = 1;
nodes = (
"35 196 LINE SMOOTH",
"30 192 OFFCURVE",
"30 237 OFFCURVE",
"35 242 CURVE",
"119 297.164 LINE",
"119 543 LINE SMOOTH",
"119 573 OFFCURVE",
"119 601 OFFCURVE",
"114 617 CURVE SMOOTH",
"111 628 OFFCURVE",
"57 633 OFFCURVE",
"45 633 CURVE",
"41 638 OFFCURVE",
"40 657 OFFCURVE",
"45 662 CURVE",
"86 660 OFFCURVE",
"124 657 OFFCURVE",
"163 657 CURVE SMOOTH",
"202 657 OFFCURVE",
"239 660 OFFCURVE",
"280 662 CURVE",
"285 657 OFFCURVE",
"284 638 OFFCURVE",
"280 633 CURVE",
"268 633 OFFCURVE",
"214 628 OFFCURVE",
"211 617 CURVE SMOOTH",
"206 601 OFFCURVE",
"206 573 OFFCURVE",
"206 543 CURVE SMOOTH",
"206 343.299 LINE",
"370 451 LINE SMOOTH",
"376 455 OFFCURVE",
"371 411 OFFCURVE",
"366 407 CURVE SMOOTH",
"206 299.399 LINE",
"206 116 LINE SMOOTH",
"206 101 OFFCURVE",
"206 49 OFFCURVE",
"212 44 CURVE SMOOTH",
"225 34 OFFCURVE",
"241 34 OFFCURVE",
"283 34 CURVE SMOOTH",
"340 34 LINE SMOOTH",
"378 34 OFFCURVE",
"429 42 OFFCURVE",
"457 61 CURVE SMOOTH",
"482 78 OFFCURVE",
"504 109 OFFCURVE",
"520 162 CURVE SMOOTH",
"521 166 OFFCURVE",
"527 168 OFFCURVE",
"534 168 CURVE SMOOTH",
"544 168 OFFCURVE",
"556 165 OFFCURVE",
"559 162 CURVE SMOOTH",
"540 108 OFFCURVE",
"512 40 OFFCURVE",
"505 -4 CURVE",
"396 -4 OFFCURVE",
"297 0 OFFCURVE",
"164 0 CURVE SMOOTH",
"117 0 OFFCURVE",
"84 -3 OFFCURVE",
"45 -3 CURVE",
"40 2 OFFCURVE",
"41 21 OFFCURVE",
"45 26 CURVE",
"57 26 OFFCURVE",
"111 31 OFFCURVE",
"114 42 CURVE SMOOTH",
"119 58 OFFCURVE",
"119 86 OFFCURVE",
"119 116 CURVE SMOOTH",
"119 253.134 LINE"
);
}
);
width = 564;
}
);
unicode = 0141;
userData = {
com.fontlab.hintData = {
hhints = (
{
position = -3;
width = 29;
},
{
position = 0;
width = 34;
},
{
position = 633;
width = 29;
}
);
vhints = (
{
position = 119;
width = 87;
}
);
};
};
},
{
glyphname = M;
lastChange = "2017-07-12 19:24:32 +0000";
layers = (
{
layerId = "7694D355-AE73-4198-9D25-79029021B8F9";
paths = (
{
closed = 1;
nodes = (
"26 -3 CURVE",
"24 -1 OFFCURVE",
"22 18 OFFCURVE",
"26 26 CURVE",
"38 26 OFFCURVE",
"98 31 OFFCURVE",
"107 44 CURVE SMOOTH",
"116 57 OFFCURVE",
"118 73 OFFCURVE",
"119 94 CURVE SMOOTH",
"128 334 OFFCURVE",
"133 554 OFFCURVE",
"133 572 CURVE SMOOTH",
"133 586 OFFCURVE",
"133 601 OFFCURVE",
"129 612 CURVE SMOOTH",
"125 624 OFFCURVE",
"71 633 OFFCURVE",
"59 633 CURVE SMOOTH",
"57 633 OFFCURVE",
"57 660 OFFCURVE",
"59 662 CURVE",
"105 660 OFFCURVE",
"116 657 OFFCURVE",
"162 657 CURVE SMOOTH",
"196 657 OFFCURVE",
"221 660 OFFCURVE",
"243 662 CURVE",
"263 599 OFFCURVE",
"384 324 OFFCURVE",
"455 146 CURVE SMOOTH",
"456 144 OFFCURVE",
"458 144 OFFCURVE",
"459 144 CURVE SMOOTH",
"460 144 OFFCURVE",
"463 145 OFFCURVE",
"464 148 CURVE SMOOTH",
"523 300 OFFCURVE",
"559 394 OFFCURVE",
"617 542 CURVE SMOOTH",
"635 588 OFFCURVE",
"661 662 OFFCURVE",
"661 662 CURVE",
"693 660 OFFCURVE",
"721 658 OFFCURVE",
"740 658 CURVE SMOOTH",
"775 658 OFFCURVE",
"827 660 OFFCURVE",
"852 662 CURVE",
"853 659 OFFCURVE",
"855 633 OFFCURVE",
"855 633 CURVE",
"841 633 OFFCURVE",
"789 625 OFFCURVE",
"784 615 CURVE SMOOTH",
"780 606 OFFCURVE",
"779 589 OFFCURVE",
"779 577 CURVE SMOOTH",
"781 508 OFFCURVE",
"786 270 OFFCURVE",
"789 140 CURVE SMOOTH",
"790 101 OFFCURVE",
"792 67 OFFCURVE",
"801 43 CURVE SMOOTH",
"806 29 OFFCURVE",
"863 26 OFFCURVE",
"871 26 CURVE",
"876 17 OFFCURVE",
"874 0 OFFCURVE",
"873 -3 CURVE",
"833 -1 OFFCURVE",
"798 2 OFFCURVE",
"754 2 CURVE SMOOTH",
"708 2 OFFCURVE",
"680 -1 OFFCURVE",
"634 -3 CURVE",
"632 -1 OFFCURVE",
"630 18 OFFCURVE",
"634 26 CURVE",
"646 26 OFFCURVE",
"687 30 OFFCURVE",
"699 37 CURVE SMOOTH",
"706 41 OFFCURVE",
"708 65 OFFCURVE",
"708 79 CURVE SMOOTH",
"708 93 OFFCURVE",
"706 122 OFFCURVE",
"706 137 CURVE SMOOTH",
"702 281 OFFCURVE",
"699 403 OFFCURVE",
"693 565 CURVE SMOOTH",
"693 569 OFFCURVE",
"691 585 OFFCURVE",
"684 585 CURVE SMOOTH",
"682 585 OFFCURVE",
"681 583 OFFCURVE",
"679 578 CURVE SMOOTH",
"597 372 OFFCURVE",
"545 242 OFFCURVE",
"468 49 CURVE SMOOTH",
"464 40 OFFCURVE",
"441 0 OFFCURVE",
"430 -2 CURVE SMOOTH",
"427 -3 OFFCURVE",
"424 -1 OFFCURVE",
"421 0 CURVE",
"177 584 LINE",
"173 366 OFFCURVE",
"164 85 OFFCURVE",
"164 75 CURVE SMOOTH",
"164 66 OFFCURVE",
"165 52 OFFCURVE",
"168 44 CURVE SMOOTH",
"174 29 OFFCURVE",
"239 26 OFFCURVE",
"247 26 CURVE",
"252 20 OFFCURVE",
"250 0 OFFCURVE",
"249 -3 CURVE",
"209 -1 OFFCURVE",
"187 2 OFFCURVE",
"143 2 CURVE SMOOTH",
"97 2 OFFCURVE",
"72 -1 OFFCURVE"
);
}
);
width = 907;
}
);
unicode = 004D;
userData = {
com.fontlab.hintData = {
hhints = (
{
position = -3;
width = 29;
},
{
position = 633;
width = 29;
}
);
vhints = (
{
position = 119;
width = 45;
},
{
position = 133;
width = 44;
},
{
position = 693;
width = 86;
},
{
position = 708;
width = 81;
}
);
};
};
},
{
glyphname = N;
lastChange = "2017-07-12 19:24:32 +0000";
layers = (
{
layerId = "7694D355-AE73-4198-9D25-79029021B8F9";
paths = (
{
closed = 1;
nodes = (
"41 -3 CURVE",
"38 2 OFFCURVE",
"36 15 OFFCURVE",
"41 26 CURVE",
"53 26 OFFCURVE",
"112 34 OFFCURVE",
"119 46 CURVE SMOOTH",
"128 61 OFFCURVE",
"129 76 OFFCURVE",
"129 114 CURVE SMOOTH",
"129 548 LINE SMOOTH",
"129 586 OFFCURVE",
"128 601 OFFCURVE",
"119 616 CURVE SMOOTH",
"112 628 OFFCURVE",
"53 636 OFFCURVE",
"41 636 CURVE",
"36 647 OFFCURVE",
"38 660 OFFCURVE",
"41 665 CURVE",
"87 663 OFFCURVE",
"110 660 OFFCURVE",
"143 660 CURVE SMOOTH",
"173 660 OFFCURVE",
"205 661 OFFCURVE",
"219 662 CURVE",
"270 582 OFFCURVE",
"500 321 OFFCURVE",
"611 166 CURVE",
"611 545 LINE SMOOTH",
"611 581 OFFCURVE",
"611 598 OFFCURVE",
"601 614 CURVE SMOOTH",
"595 624 OFFCURVE",
"541 634 OFFCURVE",
"525 634 CURVE",
"520 641 OFFCURVE",
"521 657 OFFCURVE",
"523 663 CURVE",
"563 661 OFFCURVE",
"594 658 OFFCURVE",
"638 658 CURVE SMOOTH",
"684 658 OFFCURVE",
"699 661 OFFCURVE",
"745 663 CURVE",
"748 658 OFFCURVE",
"750 645 OFFCURVE",
"745 634 CURVE",
"733 634 OFFCURVE",
"674 626 OFFCURVE",
"667 614 CURVE SMOOTH",
"658 599 OFFCURVE",
"657 584 OFFCURVE",
"657 546 CURVE SMOOTH",
"657 139 LINE SMOOTH",
"657 81 OFFCURVE",
"657 53 OFFCURVE",
"659 1 CURVE",
"658 -4 OFFCURVE",
"649 -5 OFFCURVE",
"646 -5 CURVE SMOOTH",
"641 -5 OFFCURVE",
"625 0 OFFCURVE",
"611 18 CURVE SMOOTH",
"175 569 LINE",
"175 115 LINE SMOOTH",
"175 79 OFFCURVE",
"175 62 OFFCURVE",
"185 46 CURVE SMOOTH",
"191 36 OFFCURVE",
"244 26 OFFCURVE",
"260 26 CURVE",
"265 19 OFFCURVE",
"264 3 OFFCURVE",
"262 -3 CURVE",
"222 -1 OFFCURVE",
"192 2 OFFCURVE",
"148 2 CURVE SMOOTH",
"102 2 OFFCURVE",
"87 -1 OFFCURVE"
);
}
);
width = 776;
}
);
unicode = 004E;
userData = {
com.fontlab.hintData = {
hhints = (
{
position = -3;
width = 29;
},
{
position = 634;
width = 29;
}
);
vhints = (
{
position = 129;
width = 46;
},
{
position = 611;
width = 46;
}
);
};
};
},
{
glyphname = Eng;
lastChange = "2017-07-12 19:24:32 +0000";
layers = (
{
layerId = "7694D355-AE73-4198-9D25-79029021B8F9";
paths = (
{
closed = 1;
nodes = (
"41 -3 CURVE",
"38 2 OFFCURVE",
"36 15 OFFCURVE",
"41 26 CURVE",
"53 26 OFFCURVE",
"112 34 OFFCURVE",
"119 46 CURVE SMOOTH",
"128 61 OFFCURVE",
"129 76 OFFCURVE",
"129 114 CURVE SMOOTH",
"129 548 LINE SMOOTH",
"129 586 OFFCURVE",
"128 601 OFFCURVE",
"119 616 CURVE SMOOTH",
"112 628 OFFCURVE",
"53 636 OFFCURVE",
"41 636 CURVE",
"36 647 OFFCURVE",
"38 660 OFFCURVE",
"41 665 CURVE",
"87 663 OFFCURVE",
"110 660 OFFCURVE",
"143 660 CURVE SMOOTH",
"173 660 OFFCURVE",
"205 661 OFFCURVE",
"219 662 CURVE",
"270 582 OFFCURVE",
"500 321 OFFCURVE",
"611 166 CURVE",
"611 545 LINE SMOOTH",
"611 581 OFFCURVE",
"611 598 OFFCURVE",
"601 614 CURVE SMOOTH",
"595 624 OFFCURVE",
"541 634 OFFCURVE",
"525 634 CURVE",
"520 641 OFFCURVE",
"521 657 OFFCURVE",
"523 663 CURVE",
"563 661 OFFCURVE",
"594 658 OFFCURVE",
"638 658 CURVE SMOOTH",
"684 658 OFFCURVE",
"699 661 OFFCURVE",
"745 663 CURVE",
"748 658 OFFCURVE",
"750 645 OFFCURVE",
"745 634 CURVE",
"733 634 OFFCURVE",
"674 626 OFFCURVE",
"667 614 CURVE SMOOTH",
"658 599 OFFCURVE",
"657 584 OFFCURVE",
"657 546 CURVE SMOOTH",
"657 121 LINE SMOOTH",
"657 -129 OFFCURVE",
"558 -227 OFFCURVE",
"423 -227 CURVE SMOOTH",
"408 -227 OFFCURVE",
"372 -218 OFFCURVE",
"360 -209 CURVE",
"355 -204 OFFCURVE",
"352 -193 OFFCURVE",
"352 -186 CURVE SMOOTH",
"352 -155 OFFCURVE",
"368 -130 OFFCURVE",
"400 -130 CURVE SMOOTH",
"418 -130 OFFCURVE",
"434 -146 OFFCURVE",
"448 -159 CURVE SMOOTH",
"459 -169 OFFCURVE",
"476 -180 OFFCURVE",
"493 -180 CURVE SMOOTH",
"530 -180 OFFCURVE",
"583 -138 OFFCURVE",
"595 38 CURVE",
"175 569 LINE",
"175 115 LINE SMOOTH",
"175 79 OFFCURVE",
"175 62 OFFCURVE",
"185 46 CURVE SMOOTH",
"191 36 OFFCURVE",
"244 26 OFFCURVE",
"260 26 CURVE",
"265 19 OFFCURVE",
"264 3 OFFCURVE",
"262 -3 CURVE",
"222 -1 OFFCURVE",
"192 2 OFFCURVE",
"148 2 CURVE SMOOTH",
"102 2 OFFCURVE",
"87 -1 OFFCURVE"
);
}
);
width = 776;
}
);
unicode = 014A;
userData = {
com.fontlab.hintData = {
hhints = (
{
position = -227;
width = 47;
},
{
position = -3;
width = 29;
},
{
position = 634;
width = 24;
}
);
vhints = (
{
position = 129;
width = 46;
},
{
position = 611;
width = 46;
}
);
};
};
},
{
glyphname = O;
lastChange = "2017-07-12 19:24:32 +0000";
layers = (
{
layerId = "7694D355-AE73-4198-9D25-79029021B8F9";
paths = (
{
closed = 1;
nodes = (
"49 328 CURVE SMOOTH",
"49 515 OFFCURVE",
"197 667 OFFCURVE",
"373 667 CURVE SMOOTH",
"549 667 OFFCURVE",
"699 527 OFFCURVE",
"699 328 CURVE SMOOTH",
"699 141 OFFCURVE",
"549 -10 OFFCURVE",
"373 -10 CURVE SMOOTH",
"197 -10 OFFCURVE",
"49 130 OFFCURVE"
);
},
{
closed = 1;
nodes = (
"148 350 CURVE SMOOTH",
"148 195 OFFCURVE",
"234 24 OFFCURVE",
"389 24 CURVE SMOOTH",
"539 24 OFFCURVE",
"600 174 OFFCURVE",
"600 309 CURVE SMOOTH",
"600 464 OFFCURVE",
"513 633 OFFCURVE",
"358 633 CURVE SMOOTH",
"208 633 OFFCURVE",
"148 484 OFFCURVE"
);
}
);
width = 748;
}
);
unicode = 004F;
userData = {
com.fontlab.hintData = {
hhints = (
{
position = -10;
width = 34;
},
{
position = 633;
width = 34;
}
);
vhints = (
{
position = 49;
width = 99;
},
{
position = 600;
width = 99;
}
);
};
};
},
{
glyphname = Ohorn;
lastChange = "2017-07-12 19:24:32 +0000";
layers = (
{
layerId = "7694D355-AE73-4198-9D25-79029021B8F9";
paths = (
{
closed = 1;
nodes = (
"48 328 CURVE SMOOTH",
"48 515 OFFCURVE",
"196 667 OFFCURVE",
"372 667 CURVE SMOOTH",
"426 667 OFFCURVE",
"479 653 OFFCURVE",
"524 629 CURVE SMOOTH",
"559 611 OFFCURVE",
"601 592 OFFCURVE",
"631 592 CURVE SMOOTH",
"656 592 OFFCURVE",
"670 606 OFFCURVE",
"670 624 CURVE SMOOTH",
"670 641 OFFCURVE",
"644 650 OFFCURVE",
"644 674 CURVE SMOOTH",
"644 694 OFFCURVE",
"667 708 OFFCURVE",
"689 708 CURVE SMOOTH",
"699 708 OFFCURVE",
"705 707 OFFCURVE",
"713 704 CURVE",
"722 695 OFFCURVE",
"732 680 OFFCURVE",
"732 653 CURVE SMOOTH",
"732 596 OFFCURVE",
"666 561 OFFCURVE",
"625 561 CURVE SMOOTH",
"624 561 OFFCURVE",
"614 561 OFFCURVE",
"610 562 CURVE",
"664 503 OFFCURVE",
"698 422 OFFCURVE",
"698 328 CURVE SMOOTH",
"698 141 OFFCURVE",
"548 -10 OFFCURVE",
"372 -10 CURVE SMOOTH",
"196 -10 OFFCURVE",
"48 130 OFFCURVE"
);
},
{
closed = 1;
nodes = (
"147 350 CURVE SMOOTH",
"147 195 OFFCURVE",
"233 24 OFFCURVE",
"388 24 CURVE SMOOTH",
"538 24 OFFCURVE",
"599 174 OFFCURVE",
"599 309 CURVE SMOOTH",
"599 464 OFFCURVE",
"512 633 OFFCURVE",
"357 633 CURVE SMOOTH",
"207 633 OFFCURVE",
"147 484 OFFCURVE"
);
}
);
width = 769;
}
);
unicode = 01A0;
userData = {
com.fontlab.hintData = {
hhints = (
{
position = -10;
width = 34;
},
{
position = 561;
width = 31;
},
{
position = 633;
width = 34;
}
);
vhints = (
{
position = 48;
width = 99;
},
{
position = 599;
width = 99;
},
{
position = 670;
width = 62;
}
);
};
};
},
{
glyphname = Oslash;
lastChange = "2017-07-12 19:24:32 +0000";
layers = (
{
layerId = "7694D355-AE73-4198-9D25-79029021B8F9";
paths = (
{
closed = 1;
nodes = (
"49 328 CURVE SMOOTH",
"49 515 OFFCURVE",
"197 667 OFFCURVE",
"373 667 CURVE SMOOTH",
"432.103 667 OFFCURVE",
"488.274 651.212 OFFCURVE",
"536.818 622.704 CURVE",
"565 667 LINE",
"574 665 OFFCURVE",
"598 651 OFFCURVE",
"594 645 CURVE SMOOTH",
"567.044 602.567 LINE",
"646.442 542.917 OFFCURVE",
"699 445.795 OFFCURVE",
"699 328 CURVE SMOOTH",
"699 141 OFFCURVE",
"549 -10 OFFCURVE",
"373 -10 CURVE SMOOTH",
"312.802 -10 OFFCURVE",
"255.88 6.378 OFFCURVE",
"207.035 35.854 CURVE",
"176 -13 LINE",
"167 -10 OFFCURVE",
"143 4 OFFCURVE",
"147 10 CURVE SMOOTH",
"176.685 56.658 LINE",
"99.545 116.387 OFFCURVE",
"49 212.289 OFFCURVE"
);
},
{
closed = 1;
nodes = (
"503.578 570.459 LINE",
"465.449 608.86 OFFCURVE",
"416.581 633 OFFCURVE",
"358 633 CURVE SMOOTH",
"208 633 OFFCURVE",
"148 484 OFFCURVE",
"148 350 CURVE SMOOTH",
"148 268.579 OFFCURVE",
"171.731 182.742 OFFCURVE",
"216.728 119.597 CURVE"
);
},
{
closed = 1;
nodes = (
"528.323 541.614 CURVE",
"241.269 89.744 LINE",
"279.568 49.505 OFFCURVE",
"329.138 24 OFFCURVE",
"389 24 CURVE SMOOTH",
"539 24 OFFCURVE",
"600 174 OFFCURVE",
"600 309 CURVE SMOOTH",
"600 391.855 OFFCURVE",
"575.14 478.71 OFFCURVE"
);
}
);
width = 748;
}
);
unicode = 00D8;
userData = {
com.fontlab.hintData = {
hhints = (
{
position = -10;
width = 34;
},
{
position = 633;
width = 34;
},
{
position = 647;
width = 20;
}
);
vhints = (
{
position = 49;
width = 99;
},
{
position = 600;
width = 99;
}
);
};
};
},
{
glyphname = OE;
lastChange = "2017-07-12 19:24:32 +0000";
layers = (
{
layerId = "7694D355-AE73-4198-9D25-79029021B8F9";
paths = (
{
closed = 1;
nodes = (
"49 328 CURVE SMOOTH",
"49 515 OFFCURVE",
"199 667 OFFCURVE",
"368 667 CURVE SMOOTH",
"393 667 OFFCURVE",
"528 656 OFFCURVE",
"593 657 CURVE SMOOTH",
"687 657 OFFCURVE",
"806 664 OFFCURVE",
"915 664 CURVE",
"922 614 OFFCURVE",
"935 573 OFFCURVE",
"944 528 CURVE",
"941 525 OFFCURVE",
"933 523 OFFCURVE",
"926 523 CURVE SMOOTH",
"919 523 OFFCURVE",
"913 525 OFFCURVE",
"912 530 CURVE SMOOTH",
"890 610 OFFCURVE",
"849 624 OFFCURVE",
"796 624 CURVE SMOOTH",
"710 624 LINE SMOOTH",
"698 624 OFFCURVE",
"644 623 OFFCURVE",
"641 613 CURVE SMOOTH",
"636 597 OFFCURVE",
"636 569 OFFCURVE",
"636 542 CURVE SMOOTH",
"636 355 LINE SMOOTH",
"636 350 OFFCURVE",
"657 349 OFFCURVE",
"679 349 CURVE SMOOTH",
"732 349 LINE SMOOTH",
"828 349 OFFCURVE",
"825 355 OFFCURVE",
"842 421 CURVE SMOOTH",
"843 426 OFFCURVE",
"850 428 OFFCURVE",
"857 428 CURVE SMOOTH",
"864 428 OFFCURVE",
"871 426 OFFCURVE",
"874 423 CURVE",
"874 234 LINE",
"872 232 OFFCURVE",
"865 230 OFFCURVE",
"858 230 CURVE SMOOTH",
"851 230 OFFCURVE",
"844 233 OFFCURVE",
"842 238 CURVE SMOOTH",
"827 295 OFFCURVE",
"823 298 OFFCURVE",
"814 304 CURVE SMOOTH",
"803 311 OFFCURVE",
"746 312 OFFCURVE",
"708 312 CURVE SMOOTH",
"680 312 OFFCURVE",
"636 312 OFFCURVE",
"636 303 CURVE SMOOTH",
"636 113 LINE SMOOTH",
"636 98 OFFCURVE",
"636 49 OFFCURVE",
"642 44 CURVE SMOOTH",
"655 34 OFFCURVE",
"671 34 OFFCURVE",
"713 34 CURVE SMOOTH",
"761 34 LINE SMOOTH",
"808 34 OFFCURVE",
"859 44 OFFCURVE",
"887 61 CURVE SMOOTH",
"919 80 OFFCURVE",
"934 119 OFFCURVE",
"950 162 CURVE SMOOTH",
"951 166 OFFCURVE",
"957 168 OFFCURVE",
"964 168 CURVE SMOOTH",
"974 168 OFFCURVE",
"986 165 OFFCURVE",
"989 162 CURVE",
"970 108 OFFCURVE",
"942 40 OFFCURVE",
"935 -4 CURVE",
"826 -4 OFFCURVE",
"727 0 OFFCURVE",
"594 0 CURVE SMOOTH",
"548 0 OFFCURVE",
"505 -1 OFFCURVE",
"476 -3 CURVE SMOOTH",
"461 -4 OFFCURVE",
"388 -7 OFFCURVE",
"363 -7 CURVE SMOOTH",
"187 -7 OFFCURVE",
"49 141 OFFCURVE"
);
},
{
closed = 1;
nodes = (
"148 350 CURVE SMOOTH",
"148 195 OFFCURVE",
"233 24 OFFCURVE",
"388 24 CURVE SMOOTH",
"443 24 OFFCURVE",
"502 28 OFFCURVE",
"525 63 CURVE SMOOTH",
"549 99 OFFCURVE",
"549 133 OFFCURVE",
"549 187 CURVE SMOOTH",
"549 495 LINE SMOOTH",
"549 530 OFFCURVE",
"543 563 OFFCURVE",
"514 593 CURVE SMOOTH",
"481 628 OFFCURVE",
"427 633 OFFCURVE",
"357 633 CURVE SMOOTH",
"212 633 OFFCURVE",
"148 484 OFFCURVE"
);
}
);
width = 1017;
}
);
unicode = 0152;
userData = {
com.fontlab.hintData = {
hhints = (
{
position = -7;
width = 31;
},
{
position = 0;
width = 34;
},
{
position = 312;
width = 37;
},
{
position = 408;
width = 20;
},
{
position = 624;
width = 40;
},
{
position = 624;
width = 33;
},
{
position = 633;
width = 34;
}
);
vhints = (
{
position = 49;
width = 99;
},
{
position = 549;
width = 87;
},
{
position = 842;
width = 32;
},
{
position = 912;
width = 32;
}
);
};
};
},
{
glyphname = P;
lastChange = "2017-07-12 19:24:32 +0000";
layers = (
{
layerId = "7694D355-AE73-4198-9D25-79029021B8F9";
paths = (
{
closed = 1;
nodes = (
"45 -3 CURVE",
"40 2 OFFCURVE",
"41 21 OFFCURVE",
"45 26 CURVE",
"57 26 OFFCURVE",
"111 31 OFFCURVE",
"114 42 CURVE SMOOTH",
"119 58 OFFCURVE",
"119 86 OFFCURVE",
"119 116 CURVE SMOOTH",
"119 543 LINE SMOOTH",
"119 573 OFFCURVE",
"119 601 OFFCURVE",
"114 617 CURVE SMOOTH",
"111 628 OFFCURVE",
"57 633 OFFCURVE",
"45 633 CURVE",
"41 638 OFFCURVE",
"40 657 OFFCURVE",
"45 662 CURVE",
"86 660 OFFCURVE",
"124 657 OFFCURVE",
"163 657 CURVE SMOOTH",
"202 657 OFFCURVE",
"246 659 OFFCURVE",
"305 659 CURVE SMOOTH",
"411 659 OFFCURVE",
"518 595 OFFCURVE",
"518 479 CURVE SMOOTH",
"518 357 OFFCURVE",
"429 278 OFFCURVE",
"298 278 CURVE SMOOTH",
"287 278 OFFCURVE",
"265 281 OFFCURVE",
"255 286 CURVE SMOOTH",
"252 288 OFFCURVE",
"241 296 OFFCURVE",
"241 308 CURVE SMOOTH",
"241 310 OFFCURVE",
"242 314 OFFCURVE",
"246 313 CURVE SMOOTH",
"257 310 OFFCURVE",
"269 306 OFFCURVE",
"284 306 CURVE SMOOTH",
"364 306 OFFCURVE",
"426 362 OFFCURVE",
"426 462 CURVE SMOOTH",
"426 561 OFFCURVE",
"372 627 OFFCURVE",
"261 627 CURVE SMOOTH",
"249 627 OFFCURVE",
"215 626 OFFCURVE",
"211 617 CURVE SMOOTH",
"206 605 OFFCURVE",
"206 572 OFFCURVE",
"206 542 CURVE SMOOTH",
"206 116 LINE SMOOTH",
"206 86 OFFCURVE",
"206 58 OFFCURVE",
"211 42 CURVE SMOOTH",
"214 31 OFFCURVE",
"268 26 OFFCURVE",
"280 26 CURVE",
"284 21 OFFCURVE",
"285 2 OFFCURVE",
"280 -3 CURVE",
"239 -1 OFFCURVE",
"202 2 OFFCURVE",
"163 2 CURVE SMOOTH",
"124 2 OFFCURVE",
"86 -1 OFFCURVE"
);
}
);
width = 548;
}
);
unicode = 0050;
userData = {
com.fontlab.hintData = {
hhints = (
{
position = -3;
width = 29;
},
{
position = 278;
width = 28;
},
{
position = 627;
width = 32;
}
);
vhints = (
{
position = 119;
width = 87;
},
{
position = 426;
width = 92;
}
);
};
};
},
{
glyphname = Thorn;
lastChange = "2017-07-12 19:24:32 +0000";
layers = (
{
layerId = "7694D355-AE73-4198-9D25-79029021B8F9";
paths = (
{
closed = 1;
nodes = (
"45 -3 CURVE",
"40 2 OFFCURVE",
"41 21 OFFCURVE",
"45 26 CURVE",
"57 26 OFFCURVE",
"111 31 OFFCURVE",
"114 42 CURVE SMOOTH",
"119 58 OFFCURVE",
"119 86 OFFCURVE",
"119 116 CURVE SMOOTH",
"119 543 LINE SMOOTH",
"119 573 OFFCURVE",
"119 601 OFFCURVE",
"114 617 CURVE SMOOTH",
"111 628 OFFCURVE",
"57 633 OFFCURVE",
"45 633 CURVE",
"41 638 OFFCURVE",
"40 657 OFFCURVE",
"45 662 CURVE",
"86 660 OFFCURVE",
"124 657 OFFCURVE",
"163 657 CURVE SMOOTH",
"202 657 OFFCURVE",
"239 660 OFFCURVE",
"280 662 CURVE",
"285 657 OFFCURVE",
"284 638 OFFCURVE",
"280 633 CURVE",
"268 633 OFFCURVE",
"214 628 OFFCURVE",
"211 617 CURVE SMOOTH",
"206 601 OFFCURVE",
"206 573 OFFCURVE",
"206 543 CURVE SMOOTH",
"206 480 LINE",
"243 506 OFFCURVE",
"308 509 OFFCURVE",
"325 509 CURVE SMOOTH",
"406 509 OFFCURVE",
"518 445 OFFCURVE",
"518 329 CURVE SMOOTH",
"518 207 OFFCURVE",
"429 128 OFFCURVE",
"298 128 CURVE SMOOTH",
"287 128 OFFCURVE",
"265 131 OFFCURVE",
"255 136 CURVE SMOOTH",
"252 138 OFFCURVE",
"241 146 OFFCURVE",
"241 158 CURVE SMOOTH",
"241 160 OFFCURVE",
"242 164 OFFCURVE",
"246 163 CURVE SMOOTH",
"257 160 OFFCURVE",
"269 156 OFFCURVE",
"284 156 CURVE SMOOTH",
"364 156 OFFCURVE",
"426 212 OFFCURVE",
"426 312 CURVE SMOOTH",
"426 411 OFFCURVE",
"370 470 OFFCURVE",
"288 470 CURVE SMOOTH",
"276 470 OFFCURVE",
"229 464 OFFCURVE",
"214 440 CURVE SMOOTH",
"207 429 OFFCURVE",
"206 390 OFFCURVE",
"206 360 CURVE SMOOTH",
"206 116 LINE SMOOTH",
"206 86 OFFCURVE",
"206 58 OFFCURVE",
"211 42 CURVE SMOOTH",
"214 31 OFFCURVE",
"268 26 OFFCURVE",
"280 26 CURVE",
"284 21 OFFCURVE",
"285 2 OFFCURVE",
"280 -3 CURVE",
"239 -1 OFFCURVE",
"202 2 OFFCURVE",
"163 2 CURVE SMOOTH",
"124 2 OFFCURVE",
"86 -1 OFFCURVE"
);
}
);
width = 548;
}
);
unicode = 00DE;
userData = {
com.fontlab.hintData = {
hhints = (
{
position = -3;
width = 29;
},
{
position = 128;
width = 28;
},
{
position = 470;
width = 39;
},
{
position = 633;
width = 29;
}
);
vhints = (
{
position = 119;
width = 87;
},
{
position = 426;
width = 92;
}
);
};
};
},
{
glyphname = Q;
lastChange = "2017-07-12 19:24:32 +0000";
layers = (
{
layerId = "7694D355-AE73-4198-9D25-79029021B8F9";
paths = (
{
closed = 1;
nodes = (
"49 328 CURVE SMOOTH",
"49 515 OFFCURVE",
"197 667 OFFCURVE",
"373 667 CURVE SMOOTH",
"549 667 OFFCURVE",
"699 527 OFFCURVE",
"699 328 CURVE SMOOTH",
"699 175 OFFCURVE",
"599 46 OFFCURVE",
"466 4 CURVE",
"493 -9 OFFCURVE",
"516 -22 OFFCURVE",
"535 -34 CURVE SMOOTH",
"591 -69 OFFCURVE",
"624 -81 OFFCURVE",
"685 -81 CURVE SMOOTH",
"725 -81 OFFCURVE",
"749 -77 OFFCURVE",
"756 -75 CURVE",
"763 -75 OFFCURVE",
"771 -78 OFFCURVE",
"774 -82 CURVE SMOOTH",
"775 -83 OFFCURVE",
"775 -84 OFFCURVE",
"775 -85 CURVE SMOOTH",
"720 -114 OFFCURVE",
"670 -136 OFFCURVE",
"609 -136 CURVE SMOOTH",
"554 -136 OFFCURVE",
"507.064 -109.897 OFFCURVE",
"441 -69 CURVE SMOOTH",
"399 -43 OFFCURVE",
"348.976 -14.095 OFFCURVE",
"293 0 CURVE SMOOTH",
"154 35 OFFCURVE",
"49 161 OFFCURVE"
);
},
{
closed = 1;
nodes = (
"148 350 CURVE SMOOTH",
"148 195 OFFCURVE",
"234 24 OFFCURVE",
"389 24 CURVE SMOOTH",
"539 24 OFFCURVE",
"600 174 OFFCURVE",
"600 309 CURVE SMOOTH",
"600 464 OFFCURVE",
"513 633 OFFCURVE",
"358 633 CURVE SMOOTH",
"208 633 OFFCURVE",
"148 484 OFFCURVE"
);
}
);
width = 747;
}
);
unicode = 0051;
userData = {
com.fontlab.hintData = {
hhints = (
{
position = -136;
width = 55;
},
{
position = 633;
width = 34;
}
);
vhints = (
{
position = 49;
width = 99;
},
{
position = 600;
width = 99;
}
);
};
};
},
{
glyphname = R;
lastChange = "2017-07-12 19:24:32 +0000";
layers = (
{
layerId = "7694D355-AE73-4198-9D25-79029021B8F9";
paths = (
{
closed = 1;
nodes = (
"45 -3 CURVE",
"40 2 OFFCURVE",
"41 21 OFFCURVE",
"45 26 CURVE",
"57 26 OFFCURVE",
"111 31 OFFCURVE",
"114 42 CURVE SMOOTH",
"119 58 OFFCURVE",
"119 86 OFFCURVE",
"119 116 CURVE SMOOTH",
"119 543 LINE SMOOTH",
"119 573 OFFCURVE",
"119 601 OFFCURVE",
"114 617 CURVE SMOOTH",
"111 628 OFFCURVE",
"57 633 OFFCURVE",
"45 633 CURVE",
"41 638 OFFCURVE",
"40 657 OFFCURVE",
"45 662 CURVE",
"86 660 OFFCURVE",
"124 657 OFFCURVE",
"163 657 CURVE SMOOTH",
"202 657 OFFCURVE",
"246 659 OFFCURVE",
"305 659 CURVE SMOOTH",
"396 659 OFFCURVE",
"508 600 OFFCURVE",
"508 486 CURVE SMOOTH",
"508 414 OFFCURVE",
"439 344 OFFCURVE",
"372 321 CURVE",
"425 233 OFFCURVE",
"467 173 OFFCURVE",
"533 86 CURVE SMOOTH",
"562 48 OFFCURVE",
"591 30 OFFCURVE",
"646 26 CURVE",
"651 21 OFFCURVE",
"646 -1 OFFCURVE",
"645 -3 CURVE",
"578 -3 OFFCURVE",
"533 2 OFFCURVE",
"513 9 CURVE SMOOTH",
"499 14 OFFCURVE",
"472 22 OFFCURVE",
"448 53 CURVE SMOOTH",
"433 73 OFFCURVE",
"352 192 OFFCURVE",
"289 290 CURVE SMOOTH",
"283 299 OFFCURVE",
"273 302 OFFCURVE",
"259 302 CURVE SMOOTH",
"206 302 LINE",
"206 116 LINE SMOOTH",
"206 86 OFFCURVE",
"206 58 OFFCURVE",
"211 42 CURVE SMOOTH",
"214 31 OFFCURVE",
"268 26 OFFCURVE",
"280 26 CURVE",
"284 21 OFFCURVE",
"285 2 OFFCURVE",
"280 -3 CURVE",
"239 -1 OFFCURVE",
"202 2 OFFCURVE",
"163 2 CURVE SMOOTH",
"124 2 OFFCURVE",
"86 -1 OFFCURVE"
);
},
{
closed = 1;
nodes = (
"206 333 LINE",
"260 333 LINE SMOOTH",
"338 333 OFFCURVE",
"415 389 OFFCURVE",
"415 477 CURVE SMOOTH",
"415 564 OFFCURVE",
"372 627 OFFCURVE",
"261 627 CURVE SMOOTH",
"249 627 OFFCURVE",
"215 626 OFFCURVE",
"211 617 CURVE SMOOTH",
"206 605 OFFCURVE",
"206 572 OFFCURVE",
"206 542 CURVE SMOOTH"
);
}
);
width = 621;
}
);
unicode = 0052;
userData = {
com.fontlab.hintData = {
hhints = (
{
position = -3;
width = 29;
},
{
position = 302;
width = 31;
},
{
position = 627;
width = 32;
}
);
vhints = (
{
position = 119;
width = 87;
},
{
position = 415;
width = 93;
}
);
};
};
},
{
glyphname = S;
lastChange = "2017-07-12 19:24:32 +0000";
layers = (
{
layerId = "7694D355-AE73-4198-9D25-79029021B8F9";
paths = (
{
closed = 1;
nodes = (
"49 174 CURVE",
"55 180 OFFCURVE",
"66 186 OFFCURVE",
"75 186 CURVE SMOOTH",
"82 186 OFFCURVE",
"85 182 OFFCURVE",
"86 177 CURVE SMOOTH",
"94 139 OFFCURVE",
"132 24 OFFCURVE",
"252 24 CURVE SMOOTH",
"317 24 OFFCURVE",
"372 68 OFFCURVE",
"372 146 CURVE SMOOTH",
"372 215 OFFCURVE",
"336 237 OFFCURVE",
"239 290 CURVE SMOOTH",
"163 332 OFFCURVE",
"65 390 OFFCURVE",
"65 490 CURVE SMOOTH",
"65 596 OFFCURVE",
"161 666 OFFCURVE",
"261 666 CURVE SMOOTH",
"323 666 OFFCURVE",
"346 653 OFFCURVE",
"412 638 CURVE",
"420 586 OFFCURVE",
"424 523 OFFCURVE",
"426 496 CURVE SMOOTH",
"427 489 OFFCURVE",
"412 485 OFFCURVE",
"405 485 CURVE SMOOTH",
"402 485 OFFCURVE",
"397 486 OFFCURVE",
"394 489 CURVE",
"388 539 OFFCURVE",
"339 632 OFFCURVE",
"254 632 CURVE SMOOTH",
"172 632 OFFCURVE",
"145 569 OFFCURVE",
"145 521 CURVE SMOOTH",
"145 449 OFFCURVE",
"205 413 OFFCURVE",
"277 371 CURVE SMOOTH",
"361 322 OFFCURVE",
"459 265 OFFCURVE",
"459 173 CURVE SMOOTH",
"459 63 OFFCURVE",
"357 -10 OFFCURVE",
"250 -10 CURVE SMOOTH",
"182 -10 OFFCURVE",
"119 9 OFFCURVE",
"70 19 CURVE",
"58 78 OFFCURVE",
"49 162 OFFCURVE"
);
}
);
width = 502;
}
);
unicode = 0053;
userData = {
com.fontlab.hintData = {
hhints = (
{
position = -10;
width = 34;
},
{
position = 632;
width = 34;
}
);
vhints = (
{
position = 49;
width = 37;
},
{
position = 65;
width = 80;
},
{
position = 372;
width = 87;
}
);
};
};
},
{
glyphname = Scedilla;
lastChange = "2017-07-12 19:24:32 +0000";
layers = (
{
layerId = "7694D355-AE73-4198-9D25-79029021B8F9";
paths = (
{
closed = 1;
nodes = (
"49 174 CURVE",
"55 180 OFFCURVE",
"66 186 OFFCURVE",
"75 186 CURVE SMOOTH",
"82 186 OFFCURVE",
"85 182 OFFCURVE",
"86 177 CURVE SMOOTH",
"94 139 OFFCURVE",
"132 24 OFFCURVE",
"252 24 CURVE SMOOTH",
"317 24 OFFCURVE",
"372 68 OFFCURVE",
"372 146 CURVE SMOOTH",
"372 215 OFFCURVE",
"336 237 OFFCURVE",
"239 290 CURVE SMOOTH",
"163 332 OFFCURVE",
"65 390 OFFCURVE",
"65 490 CURVE SMOOTH",
"65 596 OFFCURVE",
"161 666 OFFCURVE",
"261 666 CURVE SMOOTH",
"323 666 OFFCURVE",
"346 653 OFFCURVE",
"412 638 CURVE",
"420 586 OFFCURVE",
"424 523 OFFCURVE",
"426 496 CURVE SMOOTH",
"427 489 OFFCURVE",
"412 485 OFFCURVE",
"405 485 CURVE SMOOTH",
"402 485 OFFCURVE",
"397 486 OFFCURVE",
"394 489 CURVE SMOOTH",
"388 539 OFFCURVE",
"339 632 OFFCURVE",
"254 632 CURVE SMOOTH",
"172 632 OFFCURVE",
"145 569 OFFCURVE",
"145 521 CURVE SMOOTH",
"145 449 OFFCURVE",
"205 413 OFFCURVE",
"277 371 CURVE SMOOTH",
"361 322 OFFCURVE",
"459 265 OFFCURVE",
"459 173 CURVE SMOOTH",
"459 68.702 OFFCURVE",
"367.301 -2.332 OFFCURVE",
"266.587 -9.417 CURVE",
"249 -31 LINE",
"279 -31 LINE SMOOTH",
"310 -31 OFFCURVE",
"331 -58 OFFCURVE",
"331 -89 CURVE SMOOTH",
"331 -144 OFFCURVE",
"281 -178 OFFCURVE",
"220 -178 CURVE SMOOTH",
"206 -178 OFFCURVE",
"187 -173 OFFCURVE",
"180 -168 CURVE",
"179 -162 OFFCURVE",
"176 -158 OFFCURVE",
"176 -151 CURVE SMOOTH",
"176 -143 OFFCURVE",
"186 -135 OFFCURVE",
"193 -135 CURVE SMOOTH",
"207 -135 OFFCURVE",
"217 -150 OFFCURVE",
"236 -150 CURVE SMOOTH",
"269 -150 OFFCURVE",
"287 -131 OFFCURVE",
"287 -111 CURVE SMOOTH",
"287 -83 OFFCURVE",
"266 -71 OFFCURVE",
"251 -71 CURVE SMOOTH",
"238 -71 OFFCURVE",
"232 -74 OFFCURVE",
"220 -79 CURVE SMOOTH",
"218 -79 OFFCURVE",
"206 -69 OFFCURVE",
"208 -64 CURVE SMOOTH",
"217.781 -47.995 OFFCURVE",
"233.095 -26.456 OFFCURVE",
"242.697 -9.928 CURVE",
"177.495 -8.648 OFFCURVE",
"117.241 9.359 OFFCURVE",
"70 19 CURVE",
"58 78 OFFCURVE",
"49 162 OFFCURVE"
);
}
);
width = 502;
}
);
unicode = 015E;
userData = {
com.fontlab.hintData = {
hhints = (
{
position = -178;
width = 28;
},
{
position = -71;
width = 40;
},
{
position = -10;
width = 34;
},
{
position = 632;
width = 34;
}
);
vhints = (
{
position = 49;
width = 37;
},
{
position = 65;
width = 80;
},
{
position = 287;
width = 44;
},
{
position = 372;
width = 87;
}
);
};
};
},
{
glyphname = T;
lastChange = "2017-07-12 19:24:32 +0000";
layers = (
{
layerId = "7694D355-AE73-4198-9D25-79029021B8F9";
paths = (
{
closed = 1;
nodes = (
"12 506 CURVE",
"23 559 OFFCURVE",
"31 617 OFFCURVE",
"38 678 CURVE",
"44 681 OFFCURVE",
"55 678 OFFCURVE",
"61 675 CURVE SMOOTH",
"73 669 OFFCURVE",
"101 661 OFFCURVE",
"117 661 CURVE SMOOTH",
"508 661 LINE SMOOTH",
"524 661 OFFCURVE",
"556 670 OFFCURVE",
"568 676 CURVE SMOOTH",
"578 681 OFFCURVE",
"581 681 OFFCURVE",
"587 678 CURVE",
"594 617 OFFCURVE",
"602 559 OFFCURVE",
"613 506 CURVE",
"610 503 OFFCURVE",
"603 498 OFFCURVE",
"594 499 CURVE SMOOTH",
"589 499 OFFCURVE",
"582 501 OFFCURVE",
"580 504 CURVE",
"566 574 OFFCURVE",
"534 626 OFFCURVE",
"484 626 CURVE SMOOTH",
"357 626 LINE",
"357 116 LINE SMOOTH",
"357 86 OFFCURVE",
"357 58 OFFCURVE",
"362 42 CURVE SMOOTH",
"365 31 OFFCURVE",
"419 26 OFFCURVE",
"431 26 CURVE",
"435 21 OFFCURVE",
"436 2 OFFCURVE",
"431 -3 CURVE",
"390 -1 OFFCURVE",
"353 2 OFFCURVE",
"314 2 CURVE SMOOTH",
"275 2 OFFCURVE",
"237 -1 OFFCURVE",
"196 -3 CURVE",
"191 2 OFFCURVE",
"192 21 OFFCURVE",
"196 26 CURVE",
"208 26 OFFCURVE",
"262 31 OFFCURVE",
"265 42 CURVE SMOOTH",
"270 58 OFFCURVE",
"270 86 OFFCURVE",
"270 116 CURVE SMOOTH",
"270 626 LINE",
"141 626 LINE SMOOTH",
"91 626 OFFCURVE",
"59 574 OFFCURVE",
"45 504 CURVE",
"43 501 OFFCURVE",
"36 499 OFFCURVE",
"31 499 CURVE SMOOTH",
"22 498 OFFCURVE",
"15 503 OFFCURVE"
);
}
);
width = 626;
}
);
unicode = 0054;
userData = {
com.fontlab.hintData = {
hhints = (
{
position = -3;
width = 29;
},
{
position = 626;
width = 35;
}
);
vhints = (
{
position = 12;
width = 33;
},
{
position = 270;
width = 87;
},
{
position = 580;
width = 33;
}
);
};
};
},
{
glyphname = Tbar;
lastChange = "2017-07-12 19:24:32 +0000";
layers = (
{
layerId = "7694D355-AE73-4198-9D25-79029021B8F9";
paths = (
{
closed = 1;
nodes = (
"157 311 LINE SMOOTH",
"153 311 OFFCURVE",
"152 339 OFFCURVE",
"158 348 CURVE",
"269 348 LINE",
"269 626 LINE",
"140 626 LINE SMOOTH",
"90 626 OFFCURVE",
"58 574 OFFCURVE",
"44 504 CURVE SMOOTH",
"42 501 OFFCURVE",
"35 499 OFFCURVE",
"30 499 CURVE SMOOTH",
"21 498 OFFCURVE",
"14 503 OFFCURVE",
"11 506 CURVE SMOOTH",
"22 559 OFFCURVE",
"30 617 OFFCURVE",
"37 678 CURVE",
"43 681 OFFCURVE",
"54 678 OFFCURVE",
"60 675 CURVE SMOOTH",
"72 669 OFFCURVE",
"100 661 OFFCURVE",
"116 661 CURVE SMOOTH",
"507 661 LINE SMOOTH",
"523 661 OFFCURVE",
"555 670 OFFCURVE",
"567 676 CURVE SMOOTH",
"577 681 OFFCURVE",
"580 681 OFFCURVE",
"586 678 CURVE",
"593 617 OFFCURVE",
"601 559 OFFCURVE",
"612 506 CURVE SMOOTH",
"609 503 OFFCURVE",
"602 498 OFFCURVE",
"593 499 CURVE SMOOTH",
"588 499 OFFCURVE",
"581 501 OFFCURVE",
"579 504 CURVE SMOOTH",
"565 574 OFFCURVE",
"533 626 OFFCURVE",
"483 626 CURVE SMOOTH",
"356 626 LINE",
"356 348 LINE",
"473 348 LINE SMOOTH",
"477 348 OFFCURVE",
"477 320 OFFCURVE",
"473 311 CURVE",
"356 311 LINE",
"356 116 LINE SMOOTH",
"356 86 OFFCURVE",
"356 58 OFFCURVE",
"361 42 CURVE SMOOTH",
"364 31 OFFCURVE",
"418 26 OFFCURVE",
"430 26 CURVE",
"434 21 OFFCURVE",
"435 2 OFFCURVE",
"430 -3 CURVE",
"389 -1 OFFCURVE",
"352 2 OFFCURVE",
"313 2 CURVE SMOOTH",
"274 2 OFFCURVE",
"236 -1 OFFCURVE",
"195 -3 CURVE",
"190 2 OFFCURVE",
"191 21 OFFCURVE",
"195 26 CURVE",
"207 26 OFFCURVE",
"261 31 OFFCURVE",
"264 42 CURVE SMOOTH",
"269 58 OFFCURVE",
"269 86 OFFCURVE",
"269 116 CURVE SMOOTH",
"269 311 LINE"
);
}
);
width = 626;
}
);
unicode = 0166;
userData = {
com.fontlab.hintData = {
hhints = (
{
position = -3;
width = 29;
},
{
position = 311;
width = 37;
},
{
position = 626;
width = 35;
}
);
vhints = (
{
position = 11;
width = 33;
},
{
position = 269;
width = 87;
},
{
position = 579;
width = 33;
}
);
};
};
},
{
glyphname = Tcommaaccent;
lastChange = "2017-07-12 19:24:32 +0000";
layers = (
{
layerId = "7694D355-AE73-4198-9D25-79029021B8F9";
paths = (
{
closed = 1;
nodes = (
"12 506 CURVE SMOOTH",
"23 559 OFFCURVE",
"31 617 OFFCURVE",
"38 678 CURVE",
"44 681 OFFCURVE",
"55 678 OFFCURVE",
"61 675 CURVE SMOOTH",
"73 669 OFFCURVE",
"101 661 OFFCURVE",
"117 661 CURVE SMOOTH",
"508 661 LINE SMOOTH",
"524 661 OFFCURVE",
"556 670 OFFCURVE",
"568 676 CURVE SMOOTH",
"578 681 OFFCURVE",
"581 681 OFFCURVE",
"587 678 CURVE",
"594 617 OFFCURVE",
"602 559 OFFCURVE",
"613 506 CURVE SMOOTH",
"610 503 OFFCURVE",
"603 498 OFFCURVE",
"594 499 CURVE SMOOTH",
"589 499 OFFCURVE",
"582 501 OFFCURVE",
"580 504 CURVE SMOOTH",
"566 574 OFFCURVE",
"534 626 OFFCURVE",
"484 626 CURVE SMOOTH",
"357 626 LINE",
"357 116 LINE SMOOTH",
"357 86 OFFCURVE",
"357 58 OFFCURVE",
"362 42 CURVE SMOOTH",
"365 31 OFFCURVE",
"419 26 OFFCURVE",
"431 26 CURVE",
"435 21 OFFCURVE",
"436 2 OFFCURVE",
"431 -3 CURVE",
"393.565 -1.174 OFFCURVE",
"359.465 1.486 OFFCURVE",
"324.132 1.935 CURVE",
"303 -24 LINE",
"333 -24 LINE SMOOTH",
"364 -24 OFFCURVE",
"385 -51 OFFCURVE",
"385 -82 CURVE SMOOTH",
"385 -137 OFFCURVE",
"335 -171 OFFCURVE",
"274 -171 CURVE SMOOTH",
"260 -171 OFFCURVE",
"241 -166 OFFCURVE",
"234 -161 CURVE",
"233 -155 OFFCURVE",
"230 -151 OFFCURVE",
"230 -144 CURVE SMOOTH",
"230 -136 OFFCURVE",
"240 -128 OFFCURVE",
"247 -128 CURVE SMOOTH",
"261 -128 OFFCURVE",
"271 -143 OFFCURVE",
"290 -143 CURVE SMOOTH",
"323 -143 OFFCURVE",
"341 -124 OFFCURVE",
"341 -104 CURVE SMOOTH",
"341 -76 OFFCURVE",
"320 -64 OFFCURVE",
"305 -64 CURVE SMOOTH",
"292 -64 OFFCURVE",
"286 -67 OFFCURVE",
"274 -72 CURVE SMOOTH",
"272 -72 OFFCURVE",
"260 -62 OFFCURVE",
"262 -57 CURVE SMOOTH",
"272.758 -39.396 OFFCURVE",
"290.212 -15.096 OFFCURVE",
"299.393 1.867 CURVE",
"265.439 1.265 OFFCURVE",
"231.868 -1.25 OFFCURVE",
"196 -3 CURVE",
"191 2 OFFCURVE",
"192 21 OFFCURVE",
"196 26 CURVE",
"208 26 OFFCURVE",
"262 31 OFFCURVE",
"265 42 CURVE SMOOTH",
"270 58 OFFCURVE",
"270 86 OFFCURVE",
"270 116 CURVE SMOOTH",
"270 626 LINE",
"141 626 LINE SMOOTH",
"91 626 OFFCURVE",
"59 574 OFFCURVE",
"45 504 CURVE SMOOTH",
"43 501 OFFCURVE",
"36 499 OFFCURVE",
"31 499 CURVE SMOOTH",
"22 498 OFFCURVE",
"15 503 OFFCURVE"
);
}
);
width = 626;
}
);
unicode = 0162;
userData = {
com.fontlab.hintData = {
hhints = (
{
position = -171;
width = 28;
},
{
position = -64;
width = 40;
},
{
position = -3;
width = 29;
},
{
position = 626;
width = 35;
}
);
vhints = (
{
position = 12;
width = 33;
},
{
position = 270;
width = 87;
},
{
position = 341;
width = 44;
},
{
position = 580;
width = 33;
}
);
};
};
},
{
glyphname = U;
lastChange = "2017-07-12 19:24:32 +0000";
layers = (
{
layerId = "7694D355-AE73-4198-9D25-79029021B8F9";
paths = (
{
closed = 1;
nodes = (
"29 633 CURVE",
"25 638 OFFCURVE",
"24 657 OFFCURVE",
"29 662 CURVE",
"70 660 OFFCURVE",
"108 657 OFFCURVE",
"147 657 CURVE SMOOTH",
"186 657 OFFCURVE",
"223 660 OFFCURVE",
"264 662 CURVE",
"269 657 OFFCURVE",
"268 638 OFFCURVE",
"264 633 CURVE",
"252 633 OFFCURVE",
"198 628 OFFCURVE",
"195 617 CURVE SMOOTH",
"190 601 OFFCURVE",
"190 573 OFFCURVE",
"190 543 CURVE SMOOTH",
"190 296 LINE SMOOTH",
"190 213 OFFCURVE",
"207 152 OFFCURVE",
"239 112 CURVE SMOOTH",
"270 73 OFFCURVE",
"317 54 OFFCURVE",
"376 54 CURVE SMOOTH",
"479 54 OFFCURVE",
"567 102 OFFCURVE",
"570 274 CURVE",
"570 545 LINE SMOOTH",
"570 581 OFFCURVE",
"570 598 OFFCURVE",
"560 614 CURVE SMOOTH",
"554 624 OFFCURVE",
"504 634 OFFCURVE",
"488 634 CURVE",
"483 641 OFFCURVE",
"484 657 OFFCURVE",
"486 663 CURVE",
"526 661 OFFCURVE",
"553 658 OFFCURVE",
"597 658 CURVE SMOOTH",
"643 658 OFFCURVE",
"658 661 OFFCURVE",
"704 663 CURVE",
"707 658 OFFCURVE",
"709 645 OFFCURVE",
"704 634 CURVE",
"692 634 OFFCURVE",
"633 626 OFFCURVE",
"626 614 CURVE SMOOTH",
"617 599 OFFCURVE",
"616 584 OFFCURVE",
"616 546 CURVE SMOOTH",
"616 276 LINE SMOOTH",
"616 76 OFFCURVE",
"511 -4 OFFCURVE",
"355 -4 CURVE SMOOTH",
"283 -4 OFFCURVE",
"221 20 OFFCURVE",
"177 62 CURVE SMOOTH",
"131 106 OFFCURVE",
"103 171 OFFCURVE",
"103 251 CURVE SMOOTH",
"103 543 LINE SMOOTH",
"103 573 OFFCURVE",
"103 601 OFFCURVE",
"98 617 CURVE SMOOTH",
"95 628 OFFCURVE",
"41 633 OFFCURVE"
);
}
);
width = 723;
}
);
unicode = 0055;
userData = {
com.fontlab.hintData = {
hhints = (
{
position = -4;
width = 58;
},
{
position = 633;
width = 29;
}
);
vhints = (
{
position = 103;
width = 87;
},
{
position = 570;
width = 46;
}
);
};
};
},
{
glyphname = Uhorn;
lastChange = "2017-07-12 19:24:32 +0000";
layers = (
{
layerId = "7694D355-AE73-4198-9D25-79029021B8F9";
paths = (
{
closed = 1;
nodes = (
"30 633 CURVE",
"26 638 OFFCURVE",
"25 657 OFFCURVE",
"30 662 CURVE",
"71 660 OFFCURVE",
"109 657 OFFCURVE",
"148 657 CURVE SMOOTH",
"187 657 OFFCURVE",
"224 660 OFFCURVE",
"265 662 CURVE",
"270 657 OFFCURVE",
"269 638 OFFCURVE",
"265 633 CURVE",
"253 633 OFFCURVE",
"199 628 OFFCURVE",
"196 617 CURVE SMOOTH",
"191 601 OFFCURVE",
"191 573 OFFCURVE",
"191 543 CURVE SMOOTH",
"191 296 LINE SMOOTH",
"191 213 OFFCURVE",
"208 152 OFFCURVE",
"240 112 CURVE SMOOTH",
"271 73 OFFCURVE",
"318 54 OFFCURVE",
"377 54 CURVE SMOOTH",
"480 54 OFFCURVE",
"568 102 OFFCURVE",
"571 274 CURVE",
"571 545 LINE SMOOTH",
"571 581 OFFCURVE",
"571 598 OFFCURVE",
"561 614 CURVE SMOOTH",
"555 624 OFFCURVE",
"505 634 OFFCURVE",
"489 634 CURVE",
"484 641 OFFCURVE",
"485 657 OFFCURVE",
"487 663 CURVE",
"527 661 OFFCURVE",
"554 658 OFFCURVE",
"598 658 CURVE SMOOTH",
"649 658 OFFCURVE",
"694 664 OFFCURVE",
"694 682 CURVE SMOOTH",
"694 699 OFFCURVE",
"668 708 OFFCURVE",
"668 732 CURVE SMOOTH",
"668 752 OFFCURVE",
"691 766 OFFCURVE",
"713 766 CURVE SMOOTH",
"723 766 OFFCURVE",
"729 765 OFFCURVE",
"737 762 CURVE",
"746 753 OFFCURVE",
"756 738 OFFCURVE",
"756 711 CURVE SMOOTH",
"756 654 OFFCURVE",
"696 632 OFFCURVE",
"650 622 CURVE SMOOTH",
"641 620 OFFCURVE",
"632 612 OFFCURVE",
"629 606 CURVE SMOOTH",
"623 594 OFFCURVE",
"619 584 OFFCURVE",
"619 546 CURVE SMOOTH",
"619 276 LINE SMOOTH",
"619 76 OFFCURVE",
"512 -4 OFFCURVE",
"356 -4 CURVE SMOOTH",
"284 -4 OFFCURVE",
"222 20 OFFCURVE",
"178 62 CURVE SMOOTH",
"132 106 OFFCURVE",
"104 171 OFFCURVE",
"104 251 CURVE SMOOTH",
"104 543 LINE SMOOTH",
"104 573 OFFCURVE",
"104 601 OFFCURVE",
"99 617 CURVE SMOOTH",
"96 628 OFFCURVE",
"42 633 OFFCURVE"
);
}
);
width = 723;
}
);
unicode = 01AF;
userData = {
com.fontlab.hintData = {
hhints = (
{
position = -4;
width = 58;
},
{
position = 633;
width = 29;
}
);
vhints = (
{
position = 104;
width = 87;
},
{
position = 571;
width = 48;
},
{
position = 694;
width = 62;
}
);
};
};
},
{
glyphname = Uogonek;
lastChange = "2017-07-12 19:24:32 +0000";
layers = (
{
layerId = "7694D355-AE73-4198-9D25-79029021B8F9";
paths = (
{
closed = 1;
nodes = (
"29 633 CURVE",
"25 638 OFFCURVE",
"24 657 OFFCURVE",
"29 662 CURVE",
"70 660 OFFCURVE",
"108 657 OFFCURVE",
"147 657 CURVE SMOOTH",
"186 657 OFFCURVE",
"223 660 OFFCURVE",
"264 662 CURVE",
"269 657 OFFCURVE",
"268 638 OFFCURVE",
"264 633 CURVE",
"252 633 OFFCURVE",
"198 628 OFFCURVE",
"195 617 CURVE SMOOTH",
"190 601 OFFCURVE",
"190 573 OFFCURVE",
"190 543 CURVE SMOOTH",
"190 296 LINE SMOOTH",
"190 213 OFFCURVE",
"207 152 OFFCURVE",
"239 112 CURVE SMOOTH",
"270 73 OFFCURVE",
"317 54 OFFCURVE",
"376 54 CURVE SMOOTH",
"479 54 OFFCURVE",
"567 102 OFFCURVE",
"570 274 CURVE",
"570 545 LINE SMOOTH",
"570 581 OFFCURVE",
"570 598 OFFCURVE",
"560 614 CURVE SMOOTH",
"554 624 OFFCURVE",
"504 634 OFFCURVE",
"488 634 CURVE",
"483 641 OFFCURVE",
"484 657 OFFCURVE",
"486 663 CURVE",
"526 661 OFFCURVE",
"553 658 OFFCURVE",
"597 658 CURVE SMOOTH",
"643 658 OFFCURVE",
"658 661 OFFCURVE",
"704 663 CURVE",
"707 658 OFFCURVE",
"709 645 OFFCURVE",
"704 634 CURVE",
"692 634 OFFCURVE",
"633 626 OFFCURVE",
"626 614 CURVE SMOOTH",
"617 599 OFFCURVE",
"616 584 OFFCURVE",
"616 546 CURVE SMOOTH",
"616 276 LINE SMOOTH",
"616 147 OFFCURVE",
"578 87 OFFCURVE",
"501 29 CURVE SMOOTH",
"473 8 OFFCURVE",
"364 -68 OFFCURVE",
"364 -122 CURVE SMOOTH",
"364 -137 OFFCURVE",
"371 -165 OFFCURVE",
"405 -165 CURVE SMOOTH",
"456 -165 OFFCURVE",
"480 -127 OFFCURVE",
"486 -127 CURVE SMOOTH",
"487 -127 OFFCURVE",
"491 -132 OFFCURVE",
"491 -140 CURVE SMOOTH",
"491 -145 OFFCURVE",
"489 -153 OFFCURVE",
"486 -157 CURVE SMOOTH",
"464 -186 OFFCURVE",
"426 -224 OFFCURVE",
"381 -224 CURVE SMOOTH",
"325 -224 OFFCURVE",
"310 -174 OFFCURVE",
"310 -147 CURVE SMOOTH",
"310 -93 OFFCURVE",
"366 -31 OFFCURVE",
"419 2 CURVE",
"403 -3 OFFCURVE",
"373 -4 OFFCURVE",
"355 -4 CURVE SMOOTH",
"283 -4 OFFCURVE",
"221 20 OFFCURVE",
"177 62 CURVE SMOOTH",
"131 106 OFFCURVE",
"103 171 OFFCURVE",
"103 251 CURVE SMOOTH",
"103 543 LINE SMOOTH",
"103 573 OFFCURVE",
"103 601 OFFCURVE",
"98 617 CURVE SMOOTH",
"95 628 OFFCURVE",
"41 633 OFFCURVE"
);
}
);
width = 723;
}
);
unicode = 0172;
userData = {
com.fontlab.hintData = {
hhints = (
{
position = -224;
width = 59;
},
{
position = -4;
width = 58;
},
{
position = 633;
width = 29;
}
);
vhints = (
{
position = 103;
width = 87;
},
{
position = 310;
width = 54;
},
{
position = 570;
width = 46;
}
);
};
};
},
{
glyphname = V;
lastChange = "2017-07-12 19:24:32 +0000";
layers = (
{
layerId = "7694D355-AE73-4198-9D25-79029021B8F9";
paths = (
{
closed = 1;
nodes = (
"-6 633 CURVE SMOOTH",
"-8 633 OFFCURVE",
"-8 660 OFFCURVE",
"-6 662 CURVE",
"40 660 OFFCURVE",
"64 657 OFFCURVE",
"110 657 CURVE SMOOTH",
"154 657 OFFCURVE",
"194 660 OFFCURVE",
"234 662 CURVE",
"236 656 OFFCURVE",
"236 634 OFFCURVE",
"232 633 CURVE",
"224 633 OFFCURVE",
"172 628 OFFCURVE",
"172 600 CURVE SMOOTH",
"172 590 OFFCURVE",
"177 566 OFFCURVE",
"189 532 CURVE SMOOTH",
"222 442 OFFCURVE",
"335 137 OFFCURVE",
"338 129 CURVE",
"344 142 OFFCURVE",
"438 369 OFFCURVE",
"498 523 CURVE SMOOTH",
"507 546 OFFCURVE",
"516 575 OFFCURVE",
"516 593 CURVE SMOOTH",
"516 625 OFFCURVE",
"462 632 OFFCURVE",
"450 632 CURVE",
"445 634 OFFCURVE",
"445 656 OFFCURVE",
"450 661 CURVE",
"487 659 OFFCURVE",
"517 657 OFFCURVE",
"554 657 CURVE SMOOTH",
"600 657 OFFCURVE",
"612 660 OFFCURVE",
"652 662 CURVE",
"655 657 OFFCURVE",
"653 633 OFFCURVE",
"650 633 CURVE SMOOTH",
"642 633 OFFCURVE",
"603 627 OFFCURVE",
"586 607 CURVE SMOOTH",
"574 593 OFFCURVE",
"551 544 OFFCURVE",
"536 506 CURVE SMOOTH",
"463 322 OFFCURVE",
"420 218 OFFCURVE",
"342 32 CURVE SMOOTH",
"331 5 OFFCURVE",
"317 -2 OFFCURVE",
"304 -2 CURVE SMOOTH",
"300 -2 OFFCURVE",
"296 10 OFFCURVE",
"294 14 CURVE SMOOTH",
"226 192 OFFCURVE",
"179 322 OFFCURVE",
"104 514 CURVE SMOOTH",
"89 553 OFFCURVE",
"75 584 OFFCURVE",
"58 610 CURVE SMOOTH",
"47 626 OFFCURVE",
"6 633 OFFCURVE"
);
}
);
width = 638;
}
);
unicode = 0056;
userData = {
com.fontlab.hintData = {
hhints = (
{
position = -2;
width = 21;
},
{
position = 633;
width = 29;
}
);
};
};
},
{
glyphname = W;
lastChange = "2017-07-12 19:24:32 +0000";
layers = (
{
layerId = "7694D355-AE73-4198-9D25-79029021B8F9";
paths = (
{
closed = 1;
nodes = (
"-4 633 CURVE SMOOTH",
"-6 633 OFFCURVE",
"-6 660 OFFCURVE",
"-4 662 CURVE",
"42 660 OFFCURVE",
"72 657 OFFCURVE",
"118 657 CURVE SMOOTH",
"162 657 OFFCURVE",
"186 660 OFFCURVE",
"226 662 CURVE",
"228 656 OFFCURVE",
"228 634 OFFCURVE",
"224 633 CURVE",
"216 633 OFFCURVE",
"164 628 OFFCURVE",
"164 600 CURVE SMOOTH",
"164 593 OFFCURVE",
"169 570 OFFCURVE",
"179 535 CURVE SMOOTH",
"202 452 OFFCURVE",
"253 290 OFFCURVE",
"295 148 CURVE",
"342 303 OFFCURVE",
"416 531 OFFCURVE",
"446 629 CURVE SMOOTH",
"452 648 OFFCURVE",
"471 662 OFFCURVE",
"482 662 CURVE SMOOTH",
"486 662 OFFCURVE",
"489 657 OFFCURVE",
"494 646 CURVE",
"501 624 OFFCURVE",
"586 350 OFFCURVE",
"653 151 CURVE",
"696 304 OFFCURVE",
"721 383 OFFCURVE",
"758 524 CURVE SMOOTH",
"764 548 OFFCURVE",
"770 576 OFFCURVE",
"770 594 CURVE SMOOTH",
"770 626 OFFCURVE",
"714 633 OFFCURVE",
"702 633 CURVE",
"697 635 OFFCURVE",
"697 657 OFFCURVE",
"702 662 CURVE",
"739 660 OFFCURVE",
"773 657 OFFCURVE",
"810 657 CURVE SMOOTH",
"856 657 OFFCURVE",
"864 660 OFFCURVE",
"904 662 CURVE",
"907 657 OFFCURVE",
"905 633 OFFCURVE",
"902 633 CURVE SMOOTH",
"894 633 OFFCURVE",
"859 624 OFFCURVE",
"839 607 CURVE SMOOTH",
"825 595 OFFCURVE",
"815 572 OFFCURVE",
"803 531 CURVE SMOOTH",
"748 342 OFFCURVE",
"713 211 OFFCURVE",
"660 32 CURVE SMOOTH",
"655 14 OFFCURVE",
"635 -2 OFFCURVE",
"622 -2 CURVE SMOOTH",
"618 -2 OFFCURVE",
"613 10 OFFCURVE",
"612 14 CURVE SMOOTH",
"563 159 OFFCURVE",
"448 508 OFFCURVE",
"448 508 CURVE",
"392 324 OFFCURVE",
"351 209 OFFCURVE",
"298 32 CURVE SMOOTH",
"293 14 OFFCURVE",
"273 -2 OFFCURVE",
"260 -2 CURVE SMOOTH",
"256 -2 OFFCURVE",
"251 10 OFFCURVE",
"250 14 CURVE SMOOTH",
"192 199 OFFCURVE",
"151 335 OFFCURVE",
"90 532 CURVE SMOOTH",
"78 572 OFFCURVE",
"73 595 OFFCURVE",
"54 613 CURVE SMOOTH",
"40 626 OFFCURVE",
"8 633 OFFCURVE"
);
}
);
width = 900;
}
);
unicode = 0057;
userData = {
com.fontlab.hintData = {
hhints = (
{
position = -2;
width = 21;
},
{
position = 633;
width = 29;
}
);
};
};
},
{
glyphname = X;
lastChange = "2017-07-12 19:24:32 +0000";
layers = (
{
layerId = "7694D355-AE73-4198-9D25-79029021B8F9";
paths = (
{
closed = 1;
nodes = (
"-8 -3 CURVE",
"-11 3 OFFCURVE",
"-8 23 OFFCURVE",
"-6 26 CURVE",
"2 26 OFFCURVE",
"73 34 OFFCURVE",
"101 70 CURVE SMOOTH",
"177 167 OFFCURVE",
"225 236 OFFCURVE",
"297 332 CURVE",
"258 392 OFFCURVE",
"156 548 OFFCURVE",
"156 548 CURVE SMOOTH",
"133 584 OFFCURVE",
"118 601 OFFCURVE",
"90 617 CURVE SMOOTH",
"73 627 OFFCURVE",
"46 633 OFFCURVE",
"34 633 CURVE SMOOTH",
"29 633 OFFCURVE",
"29 657 OFFCURVE",
"34 662 CURVE",
"83 660 OFFCURVE",
"110 657 OFFCURVE",
"159 657 CURVE SMOOTH",
"208 657 OFFCURVE",
"247 660 OFFCURVE",
"287 662 CURVE",
"289 656 OFFCURVE",
"290 633 OFFCURVE",
"285 633 CURVE SMOOTH",
"271 633 OFFCURVE",
"225 627 OFFCURVE",
"225 601 CURVE SMOOTH",
"225 593 OFFCURVE",
"229 583 OFFCURVE",
"237 571 CURVE SMOOTH",
"353 393 LINE",
"413 473 OFFCURVE",
"474 550 OFFCURVE",
"499 590 CURVE SMOOTH",
"503 596 OFFCURVE",
"503 604 OFFCURVE",
"503 606 CURVE SMOOTH",
"503 615 OFFCURVE",
"492 632 OFFCURVE",
"436 632 CURVE",
"432 633 OFFCURVE",
"431 654 OFFCURVE",
"434 661 CURVE",
"474 658 OFFCURVE",
"500 656 OFFCURVE",
"537 656 CURVE SMOOTH",
"589 656 OFFCURVE",
"623 659 OFFCURVE",
"647 661 CURVE",
"650 656 OFFCURVE",
"651 638 OFFCURVE",
"645 632 CURVE",
"637 632 OFFCURVE",
"585 627 OFFCURVE",
"556 592 CURVE SMOOTH",
"479 500 OFFCURVE",
"444 456 OFFCURVE",
"372 360 CURVE",
"569 66 LINE SMOOTH",
"588 37 OFFCURVE",
"634 26 OFFCURVE",
"667 26 CURVE",
"671 21 OFFCURVE",
"669 -1 OFFCURVE",
"668 -3 CURVE",
"628 -1 OFFCURVE",
"606 2 OFFCURVE",
"565 2 CURVE SMOOTH",
"509 2 OFFCURVE",
"475 -1 OFFCURVE",
"419 -3 CURVE",
"414 2 OFFCURVE",
"414 26 OFFCURVE",
"419 26 CURVE SMOOTH",
"430 26 OFFCURVE",
"477 35 OFFCURVE",
"477 54 CURVE SMOOTH",
"477 57 OFFCURVE",
"474 63 OFFCURVE",
"472 66 CURVE SMOOTH",
"320 301 LINE",
"260 221 OFFCURVE",
"169 94 OFFCURVE",
"154 66 CURVE SMOOTH",
"153 63 OFFCURVE",
"149 56 OFFCURVE",
"149 50 CURVE SMOOTH",
"149 38 OFFCURVE",
"170 26 OFFCURVE",
"226 26 CURVE",
"230 20 OFFCURVE",
"230 0 OFFCURVE",
"228 -3 CURVE",
"191 -1 OFFCURVE",
"152 2 OFFCURVE",
"115 2 CURVE SMOOTH",
"63 2 OFFCURVE",
"32 -1 OFFCURVE"
);
}
);
width = 668;
}
);
unicode = 0058;
userData = {
com.fontlab.hintData = {
hhints = (
{
position = -3;
width = 29;
},
{
position = 633;
width = 29;
}
);
};
};
},
{
glyphname = Y;
lastChange = "2017-07-12 19:24:32 +0000";
layers = (
{
layerId = "7694D355-AE73-4198-9D25-79029021B8F9";
paths = (
{
closed = 1;
nodes = (
"-10 633 CURVE SMOOTH",
"-15 633 OFFCURVE",
"-15 657 OFFCURVE",
"-10 662 CURVE",
"39 660 OFFCURVE",
"66 657 OFFCURVE",
"115 657 CURVE SMOOTH",
"164 657 OFFCURVE",
"203 660 OFFCURVE",
"243 662 CURVE",
"245 656 OFFCURVE",
"246 633 OFFCURVE",
"241 633 CURVE SMOOTH",
"227 633 OFFCURVE",
"181 627 OFFCURVE",
"181 601 CURVE SMOOTH",
"181 593 OFFCURVE",
"185 584 OFFCURVE",
"193 571 CURVE SMOOTH",
"332 331 LINE",
"381 419 OFFCURVE",
"447 554 OFFCURVE",
"462 590 CURVE SMOOTH",
"463 593 OFFCURVE",
"465 599 OFFCURVE",
"465 605 CURVE SMOOTH",
"465 615 OFFCURVE",
"451 632 OFFCURVE",
"395 632 CURVE SMOOTH",
"392 632 OFFCURVE",
"391 658 OFFCURVE",
"393 661 CURVE",
"430 659 OFFCURVE",
"456 656 OFFCURVE",
"493 656 CURVE SMOOTH",
"545 656 OFFCURVE",
"563 659 OFFCURVE",
"603 661 CURVE",
"605 655 OFFCURVE",
"604 632 OFFCURVE",
"601 632 CURVE SMOOTH",
"593 632 OFFCURVE",
"535 632 OFFCURVE",
"512 592 CURVE SMOOTH",
"474 525 OFFCURVE",
"397 381 OFFCURVE",
"354 301 CURVE SMOOTH",
"348 290 OFFCURVE",
"349 279 OFFCURVE",
"349 270 CURVE SMOOTH",
"349 210 OFFCURVE",
"348 116 OFFCURVE",
"348 116 CURVE SMOOTH",
"348 86 OFFCURVE",
"348 58 OFFCURVE",
"353 42 CURVE SMOOTH",
"356 31 OFFCURVE",
"410 26 OFFCURVE",
"422 26 CURVE",
"426 21 OFFCURVE",
"427 2 OFFCURVE",
"422 -3 CURVE",
"381 -1 OFFCURVE",
"344 2 OFFCURVE",
"305 2 CURVE SMOOTH",
"266 2 OFFCURVE",
"228 -1 OFFCURVE",
"187 -3 CURVE",
"182 2 OFFCURVE",
"183 21 OFFCURVE",
"187 26 CURVE",
"199 26 OFFCURVE",
"253 31 OFFCURVE",
"256 42 CURVE SMOOTH",
"261 58 OFFCURVE",
"261 86 OFFCURVE",
"261 116 CURVE SMOOTH",
"261 267 LINE SMOOTH",
"261 274 OFFCURVE",
"259 285 OFFCURVE",
"254 295 CURVE SMOOTH",
"196 400 OFFCURVE",
"171 442 OFFCURVE",
"112 548 CURVE SMOOTH",
"91 585 OFFCURVE",
"74 601 OFFCURVE",
"46 617 CURVE SMOOTH",
"29 627 OFFCURVE",
"2 633 OFFCURVE"
);
}
);
width = 598;
}
);
unicode = 0059;
userData = {
com.fontlab.hintData = {
hhints = (
{
position = -3;
width = 29;
},
{
position = 633;
width = 29;
}
);
vhints = (
{
position = 261;
width = 87;
}
);
};
};
},
{
glyphname = Z;
lastChange = "2017-07-12 19:24:32 +0000";
layers = (
{
layerId = "7694D355-AE73-4198-9D25-79029021B8F9";
paths = (
{
closed = 1;
nodes = (
"35 14 CURVE SMOOTH",
"460 626 LINE",
"216 626 LINE SMOOTH",
"148 626 OFFCURVE",
"102 577 OFFCURVE",
"80 495 CURVE",
"78 492 OFFCURVE",
"74 491 OFFCURVE",
"69 491 CURVE SMOOTH",
"60 491 OFFCURVE",
"46 496 OFFCURVE",
"43 499 CURVE",
"60 545 OFFCURVE",
"70 601 OFFCURVE",
"76 669 CURVE",
"97 666 OFFCURVE",
"131 661 OFFCURVE",
"158 661 CURVE SMOOTH",
"352 661 LINE SMOOTH",
"436 661 OFFCURVE",
"478 665 OFFCURVE",
"562 671 CURVE",
"566 670 OFFCURVE",
"580 657 OFFCURVE",
"580 649 CURVE",
"578 641 OFFCURVE",
"157 35 OFFCURVE",
"157 35 CURVE",
"418 35 LINE SMOOTH",
"461 35 OFFCURVE",
"490 50 OFFCURVE",
"511 71 CURVE SMOOTH",
"540 100 OFFCURVE",
"553 140 OFFCURVE",
"564 169 CURVE SMOOTH",
"565 171 OFFCURVE",
"573 172 OFFCURVE",
"578 172 CURVE SMOOTH",
"588 172 OFFCURVE",
"598 167 OFFCURVE",
"602 163 CURVE",
"578 84 OFFCURVE",
"566 51 OFFCURVE",
"554 0 CURVE",
"53 0 LINE SMOOTH",
"42 0 OFFCURVE",
"31 8 OFFCURVE"
);
}
);
width = 633;
}
);
unicode = 005A;
userData = {
com.fontlab.hintData = {
hhints = (
{
position = 0;
width = 35;
},
{
position = 626;
width = 35;
},
{
position = 649;
width = 20;
}
);
vhints = (
{
position = 43;
width = 37;
}
);
};
};
},
{
glyphname = uni0189;
lastChange = "2017-07-12 19:24:32 +0000";
layers = (
{
layerId = "7694D355-AE73-4198-9D25-79029021B8F9";
paths = (
{
closed = 1;
nodes = (
"56 311 LINE SMOOTH",
"52 311 OFFCURVE",
"51 339 OFFCURVE",
"57 348 CURVE",
"126 348 LINE",
"126 543 LINE SMOOTH",
"126 573 OFFCURVE",
"126 601 OFFCURVE",
"121 617 CURVE SMOOTH",
"118 628 OFFCURVE",
"64 633 OFFCURVE",
"52 633 CURVE",
"48 638 OFFCURVE",
"47 657 OFFCURVE",
"52 662 CURVE",
"93 660 OFFCURVE",
"131 657 OFFCURVE",
"170 657 CURVE SMOOTH",
"209 657 OFFCURVE",
"271 658 OFFCURVE",
"315 658 CURVE SMOOTH",
"534 658 OFFCURVE",
"666 519 OFFCURVE",
"666 334 CURVE SMOOTH",
"666 164 OFFCURVE",
"584 -3 OFFCURVE",
"302 -3 CURVE SMOOTH",
"52 -3 LINE",
"47 2 OFFCURVE",
"48 21 OFFCURVE",
"52 26 CURVE",
"64 26 OFFCURVE",
"118 31 OFFCURVE",
"121 42 CURVE SMOOTH",
"126 58 OFFCURVE",
"126 86 OFFCURVE",
"126 116 CURVE SMOOTH",
"126 311 LINE"
);
},
{
closed = 1;
nodes = (
"214 115 LINE SMOOTH",
"214 101 OFFCURVE",
"215 49 OFFCURVE",
"220 43 CURVE SMOOTH",
"228 32 OFFCURVE",
"265 29 OFFCURVE",
"302 29 CURVE SMOOTH",
"444 29 OFFCURVE",
"567 118 OFFCURVE",
"567 313 CURVE SMOOTH",
"567 539 OFFCURVE",
"432 626 OFFCURVE",
"288 626 CURVE SMOOTH",
"276 626 OFFCURVE",
"222 625 OFFCURVE",
"219 615 CURVE SMOOTH",
"214 599 OFFCURVE",
"214 570 OFFCURVE",
"214 541 CURVE SMOOTH",
"214 348 LINE",
"372 348 LINE SMOOTH",
"376 348 OFFCURVE",
"376 320 OFFCURVE",
"372 311 CURVE",
"214 311 LINE"
);
}
);
width = 717;
}
);
unicode = 0189;
userData = {
com.fontlab.hintData = {
hhints = (
{
position = -3;
width = 29;
},
{
position = 311;
width = 37;
},
{
position = 626;
width = 32;
},
{
position = 633;
width = 29;
}
);
vhints = (
{
position = 126;
width = 88;
},
{
position = 567;
width = 99;
}
);
};
};
},
{
glyphname = uni021A;
lastChange = "2017-07-12 19:24:32 +0000";
layers = (
{
components = (
{
name = T;
}
);
layerId = "7694D355-AE73-4198-9D25-79029021B8F9";
paths = (
{
closed = 1;
nodes = (
"282 -220 CURVE SMOOTH",
"282 -215 OFFCURVE",
"328 -185 OFFCURVE",
"328 -161 CURVE SMOOTH",
"328 -134 OFFCURVE",
"291 -131 OFFCURVE",
"291 -101 CURVE SMOOTH",
"291 -76 OFFCURVE",
"310 -46 OFFCURVE",
"370 -46 CURVE",
"382 -56 OFFCURVE",
"392 -83 OFFCURVE",
"392 -99 CURVE SMOOTH",
"392 -168 OFFCURVE",
"340 -208 OFFCURVE",
"310 -225 CURVE SMOOTH",
"309 -226 OFFCURVE",
"306 -227 OFFCURVE",
"302 -227 CURVE SMOOTH",
"289 -227 OFFCURVE",
"282 -223 OFFCURVE"
);
}
);
width = 627;
}
);
unicode = 021A;
userData = {
com.fontlab.hintData = {
hhints = (
{
position = -227;
width = 181;
},
{
position = -3;
width = 29;
},
{
position = 626;
width = 35;
}
);
vhints = (
{
position = 12;
width = 33;
},
{
position = 270;
width = 87;
},
{
position = 328;
width = 64;
},
{
position = 580;
width = 33;
}
);
};
};
},
{
glyphname = uni1EA6;
lastChange = "2017-07-12 19:24:32 +0000";
layers = (
{
components = (
{
name = uni0302.cap;
transform = "{1, 0, 0, 1, 316, -22}";
},
{
name = A;
}
);
layerId = "7694D355-AE73-4198-9D25-79029021B8F9";
paths = (
{
closed = 1;
nodes = (
"120.65 880.928 CURVE SMOOTH",
"120.65 890.491 OFFCURVE",
"125.873 904.838 OFFCURVE",
"154.968 904.838 CURVE SMOOTH",
"160.937 904.838 OFFCURVE",
"165.413 904.041 OFFCURVE",
"168.396 902.446 CURVE SMOOTH",
"194.508 881.725 OFFCURVE",
"258.667 811.589 OFFCURVE",
"258.667 806.01 CURVE SMOOTH",
"258.667 803.619 OFFCURVE",
"256.429 798.837 OFFCURVE",
"254.19 798.837 CURVE SMOOTH",
"241.508 798.837 OFFCURVE",
"120.65 853.033 OFFCURVE"
);
}
);
width = 627;
}
);
unicode = 1EA6;
userData = {
com.fontlab.hintData = {
hhints = (
{
position = -3;
width = 29;
},
{
position = 253;
width = 39;
},
{
position = 643;
width = 20;
},
{
position = 696;
width = 132;
}
);
vhints = (
{
position = 201;
width = 229;
}
);
};
};
},
{
glyphname = uni1EAA;
lastChange = "2017-07-12 19:24:32 +0000";
layers = (
{
components = (
{
name = A;
}
);
layerId = "7694D355-AE73-4198-9D25-79029021B8F9";
paths = (
{
closed = 1;
nodes = (
"198 712.226 CURVE",
"241 753.383 OFFCURVE",
"260 768.931 OFFCURVE",
"301 810.087 CURVE SMOOTH",
"305 813.746 OFFCURVE",
"309 817.404 OFFCURVE",
"313 817.404 CURVE SMOOTH",
"317 817.404 OFFCURVE",
"321 813.746 OFFCURVE",
"325 810.087 CURVE SMOOTH",
"365 770.76 OFFCURVE",
"384 754.297 OFFCURVE",
"427 712.226 CURVE",
"427 706.738 OFFCURVE",
"423 696.678 OFFCURVE",
"417 696.678 CURVE",
"400 706.738 OFFCURVE",
"313 755.212 OFFCURVE",
"313 755.212 CURVE",
"313 755.212 OFFCURVE",
"235 711.312 OFFCURVE",
"209 696.678 CURVE",
"203 696.678 OFFCURVE",
"198 706.738 OFFCURVE"
);
},
{
closed = 1;
nodes = (
"181 856 CURVE SMOOTH",
"181 890 OFFCURVE",
"223 916 OFFCURVE",
"270 916 CURVE SMOOTH",
"295 916 OFFCURVE",
"313 908 OFFCURVE",
"332 900 CURVE SMOOTH",
"348 893 OFFCURVE",
"364 887 OFFCURVE",
"386 887 CURVE SMOOTH",
"414 887 OFFCURVE",
"436 906 OFFCURVE",
"444 916 CURVE",
"447 914 OFFCURVE",
"449 909 OFFCURVE",
"449 905 CURVE SMOOTH",
"449 871 OFFCURVE",
"411 846 OFFCURVE",
"367 846 CURVE SMOOTH",
"345 846 OFFCURVE",
"326 853 OFFCURVE",
"307 860 CURVE SMOOTH",
"288 867 OFFCURVE",
"269 875 OFFCURVE",
"246 875 CURVE SMOOTH",
"218 875 OFFCURVE",
"193 852 OFFCURVE",
"187 845 CURVE",
"184 846 OFFCURVE",
"181 852 OFFCURVE"
);
}
);
width = 627;
}
);
unicode = 1EAA;
userData = {
com.fontlab.hintData = {
hhints = (
{
position = -3;
width = 29;
},
{
position = 253;
width = 39;
},
{
position = 643;
width = 20;
},
{
position = 697;
width = 21;
},
{
position = 846;
width = 41;
},
{
position = 875;
width = 41;
}
);
};
};
},
{
glyphname = uni1EAE;
lastChange = "2017-07-12 19:24:32 +0000";
layers = (
{
components = (
{
name = uni0306.cap;
transform = "{1, 0, 0, 1, 323, -17}";
},
{
name = A;
}
);
layerId = "7694D355-AE73-4198-9D25-79029021B8F9";
paths = (
{
closed = 1;
nodes = (
"284 794.91 CURVE SMOOTH",
"284 800.44 OFFCURVE",
"347.64 869.96 OFFCURVE",
"373.54 890.5 CURVE SMOOTH",
"376.5 892.08 OFFCURVE",
"380.94 892.87 OFFCURVE",
"386.86 892.87 CURVE SMOOTH",
"415.72 892.87 OFFCURVE",
"420.9 878.65 OFFCURVE",
"420.9 869.17 CURVE SMOOTH",
"420.9 841.52 OFFCURVE",
"301.02 787.8 OFFCURVE",
"288.44 787.8 CURVE SMOOTH",
"286.22 787.8 OFFCURVE",
"284 792.54 OFFCURVE"
);
}
);
width = 627;
}
);
unicode = 1EAE;
userData = {
com.fontlab.hintData = {
hhints = (
{
position = -3;
width = 29;
},
{
position = 253;
width = 39;
},
{
position = 643;
width = 20;
},
{
position = 711;
width = 46;
}
);
vhints = (
{
position = 214;
width = 22;
},
{
position = 410;
width = 22;
}
);
};
};
},
{
glyphname = uni1EB0;
lastChange = "2017-07-12 19:24:32 +0000";
layers = (
{
components = (
{
name = uni0306.cap;
transform = "{1, 0, 0, 1, 321, -17}";
},
{
name = A;
}
);
layerId = "7694D355-AE73-4198-9D25-79029021B8F9";
paths = (
{
closed = 1;
nodes = (
"221.78 869.17 CURVE SMOOTH",
"221.78 878.65 OFFCURVE",
"226.96 892.87 OFFCURVE",
"255.82 892.87 CURVE SMOOTH",
"261.74 892.87 OFFCURVE",
"266.18 892.08 OFFCURVE",
"269.14 890.5 CURVE SMOOTH",
"295.04 869.96 OFFCURVE",
"358.68 800.44 OFFCURVE",
"358.68 794.91 CURVE SMOOTH",
"358.68 792.54 OFFCURVE",
"356.46 787.8 OFFCURVE",
"354.24 787.8 CURVE SMOOTH",
"341.66 787.8 OFFCURVE",
"221.78 841.52 OFFCURVE"
);
}
);
width = 627;
}
);
unicode = 1EB0;
userData = {
com.fontlab.hintData = {
hhints = (
{
position = -3;
width = 29;
},
{
position = 253;
width = 39;
},
{
position = 643;
width = 20;
},
{
position = 711;
width = 46;
}
);
vhints = (
{
position = 212;
width = 22;
},
{
position = 408;
width = 22;
}
);
};
};
},
{
glyphname = uni1EB4;
lastChange = "2017-07-12 19:24:32 +0000";
layers = (
{
components = (
{
name = uni0306.cap;
transform = "{1, 0, 0, 1, 315, -20}";
},
{
name = A;
}
);
layerId = "7694D355-AE73-4198-9D25-79029021B8F9";
paths = (
{
closed = 1;
nodes = (
"177 856 CURVE SMOOTH",
"177 890 OFFCURVE",
"219 916 OFFCURVE",
"266 916 CURVE SMOOTH",
"291 916 OFFCURVE",
"309 908 OFFCURVE",
"328 900 CURVE SMOOTH",
"344 893 OFFCURVE",
"360 887 OFFCURVE",
"382 887 CURVE SMOOTH",
"410 887 OFFCURVE",
"432 906 OFFCURVE",
"440 916 CURVE",
"443 914 OFFCURVE",
"445 909 OFFCURVE",
"445 905 CURVE SMOOTH",
"445 871 OFFCURVE",
"407 846 OFFCURVE",
"363 846 CURVE SMOOTH",
"341 846 OFFCURVE",
"322 853 OFFCURVE",
"303 860 CURVE SMOOTH",
"284 867 OFFCURVE",
"265 875 OFFCURVE",
"242 875 CURVE SMOOTH",
"214 875 OFFCURVE",
"189 852 OFFCURVE",
"183 845 CURVE",
"180 846 OFFCURVE",
"177 852 OFFCURVE"
);
}
);
width = 627;
}
);
unicode = 1EB4;
userData = {
com.fontlab.hintData = {
hhints = (
{
position = -3;
width = 29;
},
{
position = 253;
width = 39;
},
{
position = 643;
width = 20;
},
{
position = 708;
width = 46;
},
{
position = 846;
width = 41;
},
{
position = 875;
width = 41;
}
);
vhints = (
{
position = 206;
width = 22;
},
{
position = 402;
width = 22;
}
);
};
};
},
{
glyphname = uni1EBE;
lastChange = "2017-07-12 19:24:32 +0000";
layers = (
{
components = (
{
name = uni0302.cap;
transform = "{1, 0, 0, 1, 310, -22}";
},
{
name = E;
transform = "{1, 0, 0, 1, -1, 0}";
}
);
layerId = "7694D355-AE73-4198-9D25-79029021B8F9";
paths = (
{
closed = 1;
nodes = (
"377.889 799.007 CURVE SMOOTH",
"377.889 804.586 OFFCURVE",
"442.048 874.722 OFFCURVE",
"468.158 895.443 CURVE SMOOTH",
"471.143 897.037 OFFCURVE",
"475.619 897.834 OFFCURVE",
"481.587 897.834 CURVE SMOOTH",
"510.683 897.834 OFFCURVE",
"515.904 883.488 OFFCURVE",
"515.904 873.925 CURVE SMOOTH",
"515.904 846.029 OFFCURVE",
"395.048 791.834 OFFCURVE",
"382.365 791.834 CURVE SMOOTH",
"380.127 791.834 OFFCURVE",
"377.889 796.616 OFFCURVE"
);
}
);
width = 586;
}
);
unicode = 1EBE;
userData = {
com.fontlab.hintData = {
hhints = (
{
position = -3;
width = 29;
},
{
position = 0;
width = 34;
},
{
position = 312;
width = 37;
},
{
position = 408;
width = 20;
},
{
position = 624;
width = 33;
},
{
position = 624;
width = 40;
},
{
position = 633;
width = 29;
},
{
position = 696;
width = 132;
}
);
vhints = (
{
position = 118;
width = 87;
},
{
position = 195;
width = 229;
},
{
position = 411;
width = 32;
},
{
position = 481;
width = 32;
}
);
};
};
},
{
glyphname = uni1EC0;
lastChange = "2017-07-12 19:24:32 +0000";
layers = (
{
components = (
{
name = uni0302.cap;
transform = "{1, 0, 0, 1, 299, -22}";
},
{
name = E;
transform = "{1, 0, 0, 1, -1, 0}";
}
);
layerId = "7694D355-AE73-4198-9D25-79029021B8F9";
paths = (
{
closed = 1;
nodes = (
"87.65 868.928 CURVE SMOOTH",
"87.65 878.491 OFFCURVE",
"92.873 892.838 OFFCURVE",
"121.968 892.838 CURVE SMOOTH",
"127.937 892.838 OFFCURVE",
"132.413 892.041 OFFCURVE",
"135.396 890.446 CURVE SMOOTH",
"161.508 869.725 OFFCURVE",
"225.667 799.589 OFFCURVE",
"225.667 794.01 CURVE SMOOTH",
"225.667 791.619 OFFCURVE",
"223.429 786.837 OFFCURVE",
"221.19 786.837 CURVE SMOOTH",
"208.508 786.837 OFFCURVE",
"87.65 841.033 OFFCURVE"
);
}
);
width = 586;
}
);
unicode = 1EC0;
userData = {
com.fontlab.hintData = {
hhints = (
{
position = -3;
width = 29;
},
{
position = 0;
width = 34;
},
{
position = 312;
width = 37;
},
{
position = 408;
width = 20;
},
{
position = 624;
width = 33;
},
{
position = 624;
width = 40;
},
{
position = 633;
width = 29;
},
{
position = 696;
width = 132;
}
);
vhints = (
{
position = 118;
width = 87;
},
{
position = 184;
width = 229;
},
{
position = 411;
width = 32;
},
{
position = 481;
width = 32;
}
);
};
};
},
{
glyphname = uni1EC4;
lastChange = "2017-07-12 19:24:32 +0000";
layers = (
{
components = (
{
name = E;
transform = "{1, 0, 0, 1, -1, 0}";
}
);
layerId = "7694D355-AE73-4198-9D25-79029021B8F9";
paths = (
{
closed = 1;
nodes = (
"180 712.226 CURVE",
"223 753.383 OFFCURVE",
"242 768.931 OFFCURVE",
"283 810.087 CURVE SMOOTH",
"287 813.746 OFFCURVE",
"291 817.404 OFFCURVE",
"295 817.404 CURVE SMOOTH",
"299 817.404 OFFCURVE",
"303 813.746 OFFCURVE",
"307 810.087 CURVE SMOOTH",
"347 770.76 OFFCURVE",
"366 754.297 OFFCURVE",
"409 712.226 CURVE",
"409 706.738 OFFCURVE",
"405 696.678 OFFCURVE",
"399 696.678 CURVE",
"382 706.738 OFFCURVE",
"295 755.212 OFFCURVE",
"295 755.212 CURVE",
"295 755.212 OFFCURVE",
"217 711.312 OFFCURVE",
"191 696.678 CURVE",
"185 696.678 OFFCURVE",
"180 706.738 OFFCURVE"
);
},
{
closed = 1;
nodes = (
"161 856 CURVE SMOOTH",
"161 890 OFFCURVE",
"203 916 OFFCURVE",
"250 916 CURVE SMOOTH",
"275 916 OFFCURVE",
"293 908 OFFCURVE",
"312 900 CURVE SMOOTH",
"328 893 OFFCURVE",
"344 887 OFFCURVE",
"366 887 CURVE SMOOTH",
"394 887 OFFCURVE",
"416 906 OFFCURVE",
"424 916 CURVE",
"427 914 OFFCURVE",
"429 909 OFFCURVE",
"429 905 CURVE SMOOTH",
"429 871 OFFCURVE",
"391 846 OFFCURVE",
"347 846 CURVE SMOOTH",
"325 846 OFFCURVE",
"306 853 OFFCURVE",
"287 860 CURVE SMOOTH",
"268 867 OFFCURVE",
"249 875 OFFCURVE",
"226 875 CURVE SMOOTH",
"198 875 OFFCURVE",
"173 852 OFFCURVE",
"167 845 CURVE",
"164 846 OFFCURVE",
"161 852 OFFCURVE"
);
}
);
width = 586;
}
);
unicode = 1EC4;
userData = {
com.fontlab.hintData = {
hhints = (
{
position = -3;
width = 29;
},
{
position = 0;
width = 34;
},
{
position = 312;
width = 37;
},
{
position = 408;
width = 20;
},
{
position = 624;
width = 33;
},
{
position = 624;
width = 40;
},
{
position = 633;
width = 29;
},
{
position = 697;
width = 21;
},
{
position = 846;
width = 41;
},
{
position = 875;
width = 41;
}
);
vhints = (
{
position = 118;
width = 87;
},
{
position = 411;
width = 32;
},
{
position = 481;
width = 32;
}
);
};
};
},
{
glyphname = uni1ED0;
lastChange = "2017-07-12 19:24:32 +0000";
layers = (
{
components = (
{
name = uni0302.cap;
transform = "{1, 0, 0, 1, 373, -23}";
},
{
name = O;
}
);
layerId = "7694D355-AE73-4198-9D25-79029021B8F9";
paths = (
{
closed = 1;
nodes = (
"446 788.91 CURVE SMOOTH",
"446 794.44 OFFCURVE",
"509.64 863.96 OFFCURVE",
"535.54 884.5 CURVE SMOOTH",
"538.5 886.08 OFFCURVE",
"542.94 886.87 OFFCURVE",
"548.86 886.87 CURVE SMOOTH",
"577.72 886.87 OFFCURVE",
"582.9 872.65 OFFCURVE",
"582.9 863.17 CURVE SMOOTH",
"582.9 835.52 OFFCURVE",
"463.02 781.8 OFFCURVE",
"450.44 781.8 CURVE SMOOTH",
"448.22 781.8 OFFCURVE",
"446 786.54 OFFCURVE"
);
}
);
width = 748;
}
);
unicode = 1ED0;
userData = {
com.fontlab.hintData = {
hhints = (
{
position = -10;
width = 34;
},
{
position = 633;
width = 34;
},
{
position = 695;
width = 132;
}
);
vhints = (
{
position = 49;
width = 99;
},
{
position = 258;
width = 229;
},
{
position = 600;
width = 99;
}
);
};
};
},
{
glyphname = uni1ED2;
lastChange = "2017-07-12 19:24:32 +0000";
layers = (
{
components = (
{
name = uni0302.cap;
transform = "{1, 0, 0, 1, 373, -23}";
},
{
name = O;
}
);
layerId = "7694D355-AE73-4198-9D25-79029021B8F9";
paths = (
{
closed = 1;
nodes = (
"163.65 878.928 CURVE SMOOTH",
"163.65 888.491 OFFCURVE",
"168.873 902.838 OFFCURVE",
"197.968 902.838 CURVE SMOOTH",
"203.937 902.838 OFFCURVE",
"208.413 902.041 OFFCURVE",
"211.396 900.446 CURVE SMOOTH",
"237.508 879.725 OFFCURVE",
"301.667 809.589 OFFCURVE",
"301.667 804.01 CURVE SMOOTH",
"301.667 801.619 OFFCURVE",
"299.429 796.837 OFFCURVE",
"297.19 796.837 CURVE SMOOTH",
"284.508 796.837 OFFCURVE",
"163.65 851.033 OFFCURVE"
);
}
);
width = 748;
}
);
unicode = 1ED2;
userData = {
com.fontlab.hintData = {
hhints = (
{
position = -10;
width = 34;
},
{
position = 633;
width = 34;
},
{
position = 695;
width = 132;
}
);
vhints = (
{
position = 49;
width = 99;
},
{
position = 258;
width = 229;
},
{
position = 600;
width = 99;
}
);
};
};
},
{
glyphname = uni1ED6;
lastChange = "2017-07-12 19:24:32 +0000";
layers = (
{
components = (
{
name = O;
}
);
layerId = "7694D355-AE73-4198-9D25-79029021B8F9";
paths = (
{
closed = 1;
nodes = (
"258 711.85 CURVE",
"301 752.8 OFFCURVE",
"320 768.27 OFFCURVE",
"361 809.22 CURVE SMOOTH",
"365 812.86 OFFCURVE",
"369 816.5 OFFCURVE",
"373 816.5 CURVE SMOOTH",
"377 816.5 OFFCURVE",
"381 812.86 OFFCURVE",
"385 809.22 CURVE SMOOTH",
"425 770.09 OFFCURVE",
"444 753.71 OFFCURVE",
"487 711.85 CURVE",
"487 706.39 OFFCURVE",
"483 696.38 OFFCURVE",
"477 696.38 CURVE",
"460 706.39 OFFCURVE",
"373 754.62 OFFCURVE",
"373 754.62 CURVE",
"373 754.62 OFFCURVE",
"295 710.94 OFFCURVE",
"269 696.38 CURVE",
"263 696.38 OFFCURVE",
"258 706.39 OFFCURVE"
);
},
{
closed = 1;
nodes = (
"236.35 862.4 CURVE SMOOTH",
"236.35 872.8 OFFCURVE",
"243 883.2 OFFCURVE",
"249.65 890.4 CURVE SMOOTH",
"267.7 908.8 OFFCURVE",
"289.55 919.2 OFFCURVE",
"315.2 919.2 CURVE SMOOTH",
"340.85 919.2 OFFCURVE",
"359.85 910.4 OFFCURVE",
"378.85 901.6 CURVE SMOOTH",
"398.8 892 OFFCURVE",
"421.6 882.4 OFFCURVE",
"436.8 882.4 CURVE SMOOTH",
"474.8 882.4 OFFCURVE",
"491.9 909.6 OFFCURVE",
"498.55 912.8 CURVE",
"502.35 912.8 OFFCURVE",
"504.25 908 OFFCURVE",
"504.25 904.8 CURVE SMOOTH",
"504.25 894.4 OFFCURVE",
"497.6 884 OFFCURVE",
"490.95 876.8 CURVE SMOOTH",
"472.9 858.4 OFFCURVE",
"451.05 847.2 OFFCURVE",
"425.4 847.2 CURVE SMOOTH",
"399.75 847.2 OFFCURVE",
"380.75 856 OFFCURVE",
"361.75 864.8 CURVE SMOOTH",
"341.8 874.4 OFFCURVE",
"321.85 884 OFFCURVE",
"302.85 884 CURVE SMOOTH",
"264.85 884 OFFCURVE",
"248.7 856.8 OFFCURVE",
"242.05 853.6 CURVE",
"238.25 853.6 OFFCURVE",
"236.35 859.2 OFFCURVE"
);
}
);
width = 748;
}
);
unicode = 1ED6;
userData = {
com.fontlab.hintData = {
hhints = (
{
position = -10;
width = 34;
},
{
position = 633;
width = 34;
},
{
position = 696;
width = 21;
},
{
position = 847;
width = 35;
},
{
position = 884;
width = 35;
}
);
vhints = (
{
position = 49;
width = 99;
},
{
position = 600;
width = 99;
}
);
};
};
},
{
glyphname = uni1EDA;
lastChange = "2017-07-12 19:24:32 +0000";
layers = (
{
components = (
{
name = acutecomb.cap;
transform = "{1, 0, 0, 1, 412, -1}";
}
);
layerId = "7694D355-AE73-4198-9D25-79029021B8F9";
paths = (
{
closed = 1;
nodes = (
"48 328 CURVE SMOOTH",
"48 515 OFFCURVE",
"196 667 OFFCURVE",
"372 667 CURVE SMOOTH",
"426 667 OFFCURVE",
"479 653 OFFCURVE",
"524 629 CURVE SMOOTH",
"559 611 OFFCURVE",
"601 592 OFFCURVE",
"631 592 CURVE SMOOTH",
"656 592 OFFCURVE",
"670 606 OFFCURVE",
"670 624 CURVE SMOOTH",
"670 641 OFFCURVE",
"644 650 OFFCURVE",
"644 674 CURVE SMOOTH",
"644 694 OFFCURVE",
"667 708 OFFCURVE",
"689 708 CURVE SMOOTH",
"699 708 OFFCURVE",
"705 707 OFFCURVE",
"713 704 CURVE",
"722 695 OFFCURVE",
"732 680 OFFCURVE",
"732 653 CURVE SMOOTH",
"732 596 OFFCURVE",
"666 561 OFFCURVE",
"625 561 CURVE SMOOTH",
"624 561 OFFCURVE",
"614 561 OFFCURVE",
"610 562 CURVE",
"664 503 OFFCURVE",
"698 422 OFFCURVE",
"698 328 CURVE SMOOTH",
"698 141 OFFCURVE",
"548 -10 OFFCURVE",
"372 -10 CURVE SMOOTH",
"196 -10 OFFCURVE",
"48 130 OFFCURVE"
);
},
{
closed = 1;
nodes = (
"147 350 CURVE SMOOTH",
"147 195 OFFCURVE",
"233 24 OFFCURVE",
"388 24 CURVE SMOOTH",
"538 24 OFFCURVE",
"599 174 OFFCURVE",
"599 309 CURVE SMOOTH",
"599 464 OFFCURVE",
"512 633 OFFCURVE",
"357 633 CURVE SMOOTH",
"207 633 OFFCURVE",
"147 484 OFFCURVE"
);
}
);
width = 769;
}
);
unicode = 1EDA;
userData = {
com.fontlab.hintData = {
hhints = (
{
position = -10;
width = 34;
},
{
position = 561;
width = 31;
},
{
position = 633;
width = 34;
},
{
position = 719;
width = 133;
}
);
vhints = (
{
position = 48;
width = 99;
},
{
position = 324;
width = 185;
},
{
position = 599;
width = 99;
},
{
position = 670;
width = 62;
}
);
};
};
},
{
glyphname = uni1EDC;
lastChange = "2017-07-12 19:24:32 +0000";
layers = (
{
components = (
{
name = gravecomb.cap;
transform = "{1, 0, 0, 1, 350, -1}";
}
);
layerId = "7694D355-AE73-4198-9D25-79029021B8F9";
paths = (
{
closed = 1;
nodes = (
"48 328 CURVE SMOOTH",
"48 515 OFFCURVE",
"196 667 OFFCURVE",
"372 667 CURVE SMOOTH",
"426 667 OFFCURVE",
"479 653 OFFCURVE",
"524 629 CURVE SMOOTH",
"559 611 OFFCURVE",
"601 592 OFFCURVE",
"631 592 CURVE SMOOTH",
"656 592 OFFCURVE",
"670 606 OFFCURVE",
"670 624 CURVE SMOOTH",
"670 641 OFFCURVE",
"644 650 OFFCURVE",
"644 674 CURVE SMOOTH",
"644 694 OFFCURVE",
"667 708 OFFCURVE",
"689 708 CURVE SMOOTH",
"699 708 OFFCURVE",
"705 707 OFFCURVE",
"713 704 CURVE",
"722 695 OFFCURVE",
"732 680 OFFCURVE",
"732 653 CURVE SMOOTH",
"732 596 OFFCURVE",
"666 561 OFFCURVE",
"625 561 CURVE SMOOTH",
"624 561 OFFCURVE",
"614 561 OFFCURVE",
"610 562 CURVE",
"664 503 OFFCURVE",
"698 422 OFFCURVE",
"698 328 CURVE SMOOTH",
"698 141 OFFCURVE",
"548 -10 OFFCURVE",
"372 -10 CURVE SMOOTH",
"196 -10 OFFCURVE",
"48 130 OFFCURVE"
);
},
{
closed = 1;
nodes = (
"147 350 CURVE SMOOTH",
"147 195 OFFCURVE",
"233 24 OFFCURVE",
"388 24 CURVE SMOOTH",
"538 24 OFFCURVE",
"599 174 OFFCURVE",
"599 309 CURVE SMOOTH",
"599 464 OFFCURVE",
"512 633 OFFCURVE",
"357 633 CURVE SMOOTH",
"207 633 OFFCURVE",
"147 484 OFFCURVE"
);
}
);
width = 769;
}
);
unicode = 1EDC;
userData = {
com.fontlab.hintData = {
hhints = (
{
position = -10;
width = 34;
},
{
position = 561;
width = 31;
},
{
position = 633;
width = 34;
},
{
position = 719;
width = 133;
}
);
vhints = (
{
position = 48;
width = 99;
},
{
position = 260;
width = 185;
},
{
position = 599;
width = 99;
},
{
position = 670;
width = 62;
}
);
};
};
},
{
glyphname = uni1EDE;
lastChange = "2017-07-12 19:24:32 +0000";
layers = (
{
components = (
{
name = hookabovecomb.cap;
transform = "{1, 0, 0, 1, 379, 0}";
}
);
layerId = "7694D355-AE73-4198-9D25-79029021B8F9";
paths = (
{
closed = 1;
nodes = (
"48 328 CURVE SMOOTH",
"48 515 OFFCURVE",
"196 667 OFFCURVE",
"372 667 CURVE SMOOTH",
"426 667 OFFCURVE",
"479 653 OFFCURVE",
"524 629 CURVE SMOOTH",
"559 611 OFFCURVE",
"601 592 OFFCURVE",
"631 592 CURVE SMOOTH",
"656 592 OFFCURVE",
"670 606 OFFCURVE",
"670 624 CURVE SMOOTH",
"670 641 OFFCURVE",
"644 650 OFFCURVE",
"644 674 CURVE SMOOTH",
"644 694 OFFCURVE",
"667 708 OFFCURVE",
"689 708 CURVE SMOOTH",
"699 708 OFFCURVE",
"705 707 OFFCURVE",
"713 704 CURVE",
"722 695 OFFCURVE",
"732 680 OFFCURVE",
"732 653 CURVE SMOOTH",
"732 596 OFFCURVE",
"666 561 OFFCURVE",
"625 561 CURVE SMOOTH",
"624 561 OFFCURVE",
"614 561 OFFCURVE",
"610 562 CURVE",
"664 503 OFFCURVE",
"698 422 OFFCURVE",
"698 328 CURVE SMOOTH",
"698 141 OFFCURVE",
"548 -10 OFFCURVE",
"372 -10 CURVE SMOOTH",
"196 -10 OFFCURVE",
"48 130 OFFCURVE"
);
},
{
closed = 1;
nodes = (
"147 350 CURVE SMOOTH",
"147 195 OFFCURVE",
"233 24 OFFCURVE",
"388 24 CURVE SMOOTH",
"538 24 OFFCURVE",
"599 174 OFFCURVE",
"599 309 CURVE SMOOTH",
"599 464 OFFCURVE",
"512 633 OFFCURVE",
"357 633 CURVE SMOOTH",
"207 633 OFFCURVE",
"147 484 OFFCURVE"
);
}
);
width = 769;
}
);
unicode = 1EDE;
userData = {
com.fontlab.hintData = {
hhints = (
{
position = -10;
width = 34;
},
{
position = 561;
width = 31;
},
{
position = 633;
width = 34;
},
{
position = 728;
width = 58;
},
{
position = 851;
width = 21;
}
);
vhints = (
{
position = 48;
width = 99;
},
{
position = 344;
width = 48;
},
{
position = 412;
width = 52;
},
{
position = 599;
width = 99;
},
{
position = 670;
width = 62;
}
);
};
};
},
{
glyphname = uni1EE0;
lastChange = "2017-07-12 19:24:32 +0000";
layers = (
{
components = (
{
name = tildecomb.cap;
transform = "{1, 0, 0, 1, 366, -8}";
}
);
layerId = "7694D355-AE73-4198-9D25-79029021B8F9";
paths = (
{
closed = 1;
nodes = (
"48 328 CURVE SMOOTH",
"48 515 OFFCURVE",
"196 667 OFFCURVE",
"372 667 CURVE SMOOTH",
"426 667 OFFCURVE",
"479 653 OFFCURVE",
"524 629 CURVE SMOOTH",
"559 611 OFFCURVE",
"601 592 OFFCURVE",
"631 592 CURVE SMOOTH",
"656 592 OFFCURVE",
"670 606 OFFCURVE",
"670 624 CURVE SMOOTH",
"670 641 OFFCURVE",
"644 650 OFFCURVE",
"644 674 CURVE SMOOTH",
"644 694 OFFCURVE",
"667 708 OFFCURVE",
"689 708 CURVE SMOOTH",
"699 708 OFFCURVE",
"705 707 OFFCURVE",
"713 704 CURVE",
"722 695 OFFCURVE",
"732 680 OFFCURVE",
"732 653 CURVE SMOOTH",
"732 596 OFFCURVE",
"666 561 OFFCURVE",
"625 561 CURVE SMOOTH",
"624 561 OFFCURVE",
"614 561 OFFCURVE",
"610 562 CURVE",
"664 503 OFFCURVE",
"698 422 OFFCURVE",
"698 328 CURVE SMOOTH",
"698 141 OFFCURVE",
"548 -10 OFFCURVE",
"372 -10 CURVE SMOOTH",
"196 -10 OFFCURVE",
"48 130 OFFCURVE"
);
},
{
closed = 1;
nodes = (
"147 350 CURVE SMOOTH",
"147 195 OFFCURVE",
"233 24 OFFCURVE",
"388 24 CURVE SMOOTH",
"538 24 OFFCURVE",
"599 174 OFFCURVE",
"599 309 CURVE SMOOTH",
"599 464 OFFCURVE",
"512 633 OFFCURVE",
"357 633 CURVE SMOOTH",
"207 633 OFFCURVE",
"147 484 OFFCURVE"
);
}
);
width = 769;
}
);
unicode = 1EE0;
userData = {
com.fontlab.hintData = {
hhints = (
{
position = -10;
width = 34;
},
{
position = 561;
width = 31;
},
{
position = 633;
width = 34;
},
{
position = 726;
width = 44;
},
{
position = 772;
width = 44;
}
);
vhints = (
{
position = 48;
width = 99;
},
{
position = 225;
width = 282;
},
{
position = 599;
width = 99;
},
{
position = 670;
width = 62;
}
);
};
};
},
{
glyphname = uni1EE2;
lastChange = "2017-07-12 19:24:32 +0000";
layers = (
{
components = (
{
name = uni0307;
transform = "{1, 0, 0, 1, 372, -669}";
}
);
layerId = "7694D355-AE73-4198-9D25-79029021B8F9";
paths = (
{
closed = 1;
nodes = (
"48 328 CURVE SMOOTH",
"48 515 OFFCURVE",
"196 667 OFFCURVE",
"372 667 CURVE SMOOTH",
"426 667 OFFCURVE",
"479 653 OFFCURVE",
"524 629 CURVE SMOOTH",
"559 611 OFFCURVE",
"601 592 OFFCURVE",
"631 592 CURVE SMOOTH",
"656 592 OFFCURVE",
"670 606 OFFCURVE",
"670 624 CURVE SMOOTH",
"670 641 OFFCURVE",
"644 650 OFFCURVE",
"644 674 CURVE SMOOTH",
"644 694 OFFCURVE",
"667 708 OFFCURVE",
"689 708 CURVE SMOOTH",
"699 708 OFFCURVE",
"705 707 OFFCURVE",
"713 704 CURVE",
"722 695 OFFCURVE",
"732 680 OFFCURVE",
"732 653 CURVE SMOOTH",
"732 596 OFFCURVE",
"666 561 OFFCURVE",
"625 561 CURVE SMOOTH",
"624 561 OFFCURVE",
"614 561 OFFCURVE",
"610 562 CURVE",
"664 503 OFFCURVE",
"698 422 OFFCURVE",
"698 328 CURVE SMOOTH",
"698 141 OFFCURVE",
"548 -10 OFFCURVE",
"372 -10 CURVE SMOOTH",
"196 -10 OFFCURVE",
"48 130 OFFCURVE"
);
},
{
closed = 1;
nodes = (
"147 350 CURVE SMOOTH",
"147 195 OFFCURVE",
"233 24 OFFCURVE",
"388 24 CURVE SMOOTH",
"538 24 OFFCURVE",
"599 174 OFFCURVE",
"599 309 CURVE SMOOTH",
"599 464 OFFCURVE",
"512 633 OFFCURVE",
"357 633 CURVE SMOOTH",
"207 633 OFFCURVE",
"147 484 OFFCURVE"
);
}
);
width = 769;
}
);
unicode = 1EE2;
userData = {
com.fontlab.hintData = {
hhints = (
{
position = -155;
width = 100;
},
{
position = -10;
width = 34;
},
{
position = 561;
width = 31;
},
{
position = 633;
width = 34;
}
);
vhints = (
{
position = 48;
width = 99;
},
{
position = 322;
width = 100;
},
{
position = 599;
width = 99;
},
{
position = 670;
width = 62;
}
);
};
};
},
{
glyphname = uni1EE8;
lastChange = "2017-07-12 19:24:32 +0000";
layers = (
{
components = (
{
name = acutecomb.cap;
transform = "{1, 0, 0, 1, 382, 19}";
}
);
layerId = "7694D355-AE73-4198-9D25-79029021B8F9";
paths = (
{
closed = 1;
nodes = (
"30 633 CURVE",
"26 638 OFFCURVE",
"25 657 OFFCURVE",
"30 662 CURVE",
"71 660 OFFCURVE",
"109 657 OFFCURVE",
"148 657 CURVE SMOOTH",
"187 657 OFFCURVE",
"224 660 OFFCURVE",
"265 662 CURVE",
"270 657 OFFCURVE",
"269 638 OFFCURVE",
"265 633 CURVE",
"253 633 OFFCURVE",
"199 628 OFFCURVE",
"196 617 CURVE SMOOTH",
"191 601 OFFCURVE",
"191 573 OFFCURVE",
"191 543 CURVE SMOOTH",
"191 296 LINE SMOOTH",
"191 213 OFFCURVE",
"208 152 OFFCURVE",
"240 112 CURVE SMOOTH",
"271 73 OFFCURVE",
"318 54 OFFCURVE",
"377 54 CURVE SMOOTH",
"480 54 OFFCURVE",
"568 102 OFFCURVE",
"571 274 CURVE",
"571 545 LINE SMOOTH",
"571 581 OFFCURVE",
"571 598 OFFCURVE",
"561 614 CURVE SMOOTH",
"555 624 OFFCURVE",
"505 634 OFFCURVE",
"489 634 CURVE",
"484 641 OFFCURVE",
"485 657 OFFCURVE",
"487 663 CURVE",
"527 661 OFFCURVE",
"554 658 OFFCURVE",
"598 658 CURVE SMOOTH",
"649 658 OFFCURVE",
"694 664 OFFCURVE",
"694 682 CURVE SMOOTH",
"694 699 OFFCURVE",
"668 708 OFFCURVE",
"668 732 CURVE SMOOTH",
"668 752 OFFCURVE",
"691 766 OFFCURVE",
"713 766 CURVE SMOOTH",
"723 766 OFFCURVE",
"729 765 OFFCURVE",
"737 762 CURVE",
"746 753 OFFCURVE",
"756 738 OFFCURVE",
"756 711 CURVE SMOOTH",
"756 654 OFFCURVE",
"696 632 OFFCURVE",
"650 622 CURVE SMOOTH",
"641 620 OFFCURVE",
"632 612 OFFCURVE",
"629 606 CURVE SMOOTH",
"623 594 OFFCURVE",
"619 584 OFFCURVE",
"619 546 CURVE SMOOTH",
"619 276 LINE SMOOTH",
"619 76 OFFCURVE",
"512 -4 OFFCURVE",
"356 -4 CURVE SMOOTH",
"284 -4 OFFCURVE",
"222 20 OFFCURVE",
"178 62 CURVE SMOOTH",
"132 106 OFFCURVE",
"104 171 OFFCURVE",
"104 251 CURVE SMOOTH",
"104 543 LINE SMOOTH",
"104 573 OFFCURVE",
"104 601 OFFCURVE",
"99 617 CURVE SMOOTH",
"96 628 OFFCURVE",
"42 633 OFFCURVE"
);
}
);
width = 723;
}
);
unicode = 1EE8;
userData = {
com.fontlab.hintData = {
hhints = (
{
position = -4;
width = 58;
},
{
position = 633;
width = 29;
},
{
position = 739;
width = 133;
}
);
vhints = (
{
position = 104;
width = 87;
},
{
position = 294;
width = 185;
},
{
position = 571;
width = 48;
},
{
position = 694;
width = 62;
}
);
};
};
},
{
glyphname = uni1EEA;
lastChange = "2017-07-12 19:24:32 +0000";
layers = (
{
components = (
{
name = gravecomb.cap;
transform = "{1, 0, 0, 1, 372, 19}";
}
);
layerId = "7694D355-AE73-4198-9D25-79029021B8F9";
paths = (
{
closed = 1;
nodes = (
"30 633 CURVE",
"26 638 OFFCURVE",
"25 657 OFFCURVE",
"30 662 CURVE",
"71 660 OFFCURVE",
"109 657 OFFCURVE",
"148 657 CURVE SMOOTH",
"187 657 OFFCURVE",
"224 660 OFFCURVE",
"265 662 CURVE",
"270 657 OFFCURVE",
"269 638 OFFCURVE",
"265 633 CURVE",
"253 633 OFFCURVE",
"199 628 OFFCURVE",
"196 617 CURVE SMOOTH",
"191 601 OFFCURVE",
"191 573 OFFCURVE",
"191 543 CURVE SMOOTH",
"191 296 LINE SMOOTH",
"191 213 OFFCURVE",
"208 152 OFFCURVE",
"240 112 CURVE SMOOTH",
"271 73 OFFCURVE",
"318 54 OFFCURVE",
"377 54 CURVE SMOOTH",
"480 54 OFFCURVE",
"568 102 OFFCURVE",
"571 274 CURVE",
"571 545 LINE SMOOTH",
"571 581 OFFCURVE",
"571 598 OFFCURVE",
"561 614 CURVE SMOOTH",
"555 624 OFFCURVE",
"505 634 OFFCURVE",
"489 634 CURVE",
"484 641 OFFCURVE",
"485 657 OFFCURVE",
"487 663 CURVE",
"527 661 OFFCURVE",
"554 658 OFFCURVE",
"598 658 CURVE SMOOTH",
"649 658 OFFCURVE",
"694 664 OFFCURVE",
"694 682 CURVE SMOOTH",
"694 699 OFFCURVE",
"668 708 OFFCURVE",
"668 732 CURVE SMOOTH",
"668 752 OFFCURVE",
"691 766 OFFCURVE",
"713 766 CURVE SMOOTH",
"723 766 OFFCURVE",
"729 765 OFFCURVE",
"737 762 CURVE",
"746 753 OFFCURVE",
"756 738 OFFCURVE",
"756 711 CURVE SMOOTH",
"756 654 OFFCURVE",
"696 632 OFFCURVE",
"650 622 CURVE SMOOTH",
"641 620 OFFCURVE",
"632 612 OFFCURVE",
"629 606 CURVE SMOOTH",
"623 594 OFFCURVE",
"619 584 OFFCURVE",
"619 546 CURVE SMOOTH",
"619 276 LINE SMOOTH",
"619 76 OFFCURVE",
"512 -4 OFFCURVE",
"356 -4 CURVE SMOOTH",
"284 -4 OFFCURVE",
"222 20 OFFCURVE",
"178 62 CURVE SMOOTH",
"132 106 OFFCURVE",
"104 171 OFFCURVE",
"104 251 CURVE SMOOTH",
"104 543 LINE SMOOTH",
"104 573 OFFCURVE",
"104 601 OFFCURVE",
"99 617 CURVE SMOOTH",
"96 628 OFFCURVE",
"42 633 OFFCURVE"
);
}
);
width = 723;
}
);
unicode = 1EEA;
userData = {
com.fontlab.hintData = {
hhints = (
{
position = -4;
width = 58;
},
{
position = 633;
width = 29;
},
{
position = 739;
width = 133;
}
);
vhints = (
{
position = 104;
width = 87;
},
{
position = 282;
width = 185;
},
{
position = 571;
width = 48;
},
{
position = 694;
width = 62;
}
);
};
};
},
{
glyphname = uni1EEC;
lastChange = "2017-07-12 19:24:32 +0000";
layers = (
{
components = (
{
name = hookabovecomb.cap;
transform = "{1, 0, 0, 1, 376, -17}";
}
);
layerId = "7694D355-AE73-4198-9D25-79029021B8F9";
paths = (
{
closed = 1;
nodes = (
"30 633 CURVE",
"26 638 OFFCURVE",
"25 657 OFFCURVE",
"30 662 CURVE",
"71 660 OFFCURVE",
"109 657 OFFCURVE",
"148 657 CURVE SMOOTH",
"187 657 OFFCURVE",
"224 660 OFFCURVE",
"265 662 CURVE",
"270 657 OFFCURVE",
"269 638 OFFCURVE",
"265 633 CURVE",
"253 633 OFFCURVE",
"199 628 OFFCURVE",
"196 617 CURVE SMOOTH",
"191 601 OFFCURVE",
"191 573 OFFCURVE",
"191 543 CURVE SMOOTH",
"191 296 LINE SMOOTH",
"191 213 OFFCURVE",
"208 152 OFFCURVE",
"240 112 CURVE SMOOTH",
"271 73 OFFCURVE",
"318 54 OFFCURVE",
"377 54 CURVE SMOOTH",
"480 54 OFFCURVE",
"568 102 OFFCURVE",
"571 274 CURVE",
"571 545 LINE SMOOTH",
"571 581 OFFCURVE",
"571 598 OFFCURVE",
"561 614 CURVE SMOOTH",
"555 624 OFFCURVE",
"505 634 OFFCURVE",
"489 634 CURVE",
"484 641 OFFCURVE",
"485 657 OFFCURVE",
"487 663 CURVE",
"527 661 OFFCURVE",
"554 658 OFFCURVE",
"598 658 CURVE SMOOTH",
"649 658 OFFCURVE",
"694 664 OFFCURVE",
"694 682 CURVE SMOOTH",
"694 699 OFFCURVE",
"668 708 OFFCURVE",
"668 732 CURVE SMOOTH",
"668 752 OFFCURVE",
"691 766 OFFCURVE",
"713 766 CURVE SMOOTH",
"723 766 OFFCURVE",
"729 765 OFFCURVE",
"737 762 CURVE",
"746 753 OFFCURVE",
"756 738 OFFCURVE",
"756 711 CURVE SMOOTH",
"756 654 OFFCURVE",
"696 632 OFFCURVE",
"650 622 CURVE SMOOTH",
"641 620 OFFCURVE",
"632 612 OFFCURVE",
"629 606 CURVE SMOOTH",
"623 594 OFFCURVE",
"619 584 OFFCURVE",
"619 546 CURVE SMOOTH",
"619 276 LINE SMOOTH",
"619 76 OFFCURVE",
"512 -4 OFFCURVE",
"356 -4 CURVE SMOOTH",
"284 -4 OFFCURVE",
"222 20 OFFCURVE",
"178 62 CURVE SMOOTH",
"132 106 OFFCURVE",
"104 171 OFFCURVE",
"104 251 CURVE SMOOTH",
"104 543 LINE SMOOTH",
"104 573 OFFCURVE",
"104 601 OFFCURVE",
"99 617 CURVE SMOOTH",
"96 628 OFFCURVE",
"42 633 OFFCURVE"
);
}
);
width = 723;
}
);
unicode = 1EEC;
userData = {
com.fontlab.hintData = {
hhints = (
{
position = -4;
width = 58;
},
{
position = 633;
width = 29;
},
{
position = 711;
width = 58;
},
{
position = 834;
width = 21;
}
);
vhints = (
{
position = 104;
width = 87;
},
{
position = 341;
width = 48;
},
{
position = 409;
width = 52;
},
{
position = 571;
width = 48;
},
{
position = 694;
width = 62;
}
);
};
};
},
{
glyphname = uni1EEE;
lastChange = "2017-07-12 19:24:32 +0000";
layers = (
{
components = (
{
name = tildecomb.cap;
transform = "{1, 0, 0, 1, 380, -7}";
}
);
layerId = "7694D355-AE73-4198-9D25-79029021B8F9";
paths = (
{
closed = 1;
nodes = (
"30 633 CURVE",
"26 638 OFFCURVE",
"25 657 OFFCURVE",
"30 662 CURVE",
"71 660 OFFCURVE",
"109 657 OFFCURVE",
"148 657 CURVE SMOOTH",
"187 657 OFFCURVE",
"224 660 OFFCURVE",
"265 662 CURVE",
"270 657 OFFCURVE",
"269 638 OFFCURVE",
"265 633 CURVE",
"253 633 OFFCURVE",
"199 628 OFFCURVE",
"196 617 CURVE SMOOTH",
"191 601 OFFCURVE",
"191 573 OFFCURVE",
"191 543 CURVE SMOOTH",
"191 296 LINE SMOOTH",
"191 213 OFFCURVE",
"208 152 OFFCURVE",
"240 112 CURVE SMOOTH",
"271 73 OFFCURVE",
"318 54 OFFCURVE",
"377 54 CURVE SMOOTH",
"480 54 OFFCURVE",
"568 102 OFFCURVE",
"571 274 CURVE",
"571 545 LINE SMOOTH",
"571 581 OFFCURVE",
"571 598 OFFCURVE",
"561 614 CURVE SMOOTH",
"555 624 OFFCURVE",
"505 634 OFFCURVE",
"489 634 CURVE",
"484 641 OFFCURVE",
"485 657 OFFCURVE",
"487 663 CURVE",
"527 661 OFFCURVE",
"554 658 OFFCURVE",
"598 658 CURVE SMOOTH",
"649 658 OFFCURVE",
"694 664 OFFCURVE",
"694 682 CURVE SMOOTH",
"694 699 OFFCURVE",
"668 708 OFFCURVE",
"668 732 CURVE SMOOTH",
"668 752 OFFCURVE",
"691 766 OFFCURVE",
"713 766 CURVE SMOOTH",
"723 766 OFFCURVE",
"729 765 OFFCURVE",
"737 762 CURVE",
"746 753 OFFCURVE",
"756 738 OFFCURVE",
"756 711 CURVE SMOOTH",
"756 654 OFFCURVE",
"696 632 OFFCURVE",
"650 622 CURVE SMOOTH",
"641 620 OFFCURVE",
"632 612 OFFCURVE",
"629 606 CURVE SMOOTH",
"623 594 OFFCURVE",
"619 584 OFFCURVE",
"619 546 CURVE SMOOTH",
"619 276 LINE SMOOTH",
"619 76 OFFCURVE",
"512 -4 OFFCURVE",
"356 -4 CURVE SMOOTH",
"284 -4 OFFCURVE",
"222 20 OFFCURVE",
"178 62 CURVE SMOOTH",
"132 106 OFFCURVE",
"104 171 OFFCURVE",
"104 251 CURVE SMOOTH",
"104 543 LINE SMOOTH",
"104 573 OFFCURVE",
"104 601 OFFCURVE",
"99 617 CURVE SMOOTH",
"96 628 OFFCURVE",
"42 633 OFFCURVE"
);
}
);
width = 723;
}
);
unicode = 1EEE;
userData = {
com.fontlab.hintData = {
hhints = (
{
position = -4;
width = 58;
},
{
position = 633;
width = 29;
},
{
position = 727;
width = 44;
},
{
position = 773;
width = 44;
}
);
vhints = (
{
position = 104;
width = 87;
},
{
position = 239;
width = 282;
},
{
position = 571;
width = 48;
},
{
position = 694;
width = 62;
}
);
};
};
},
{
glyphname = uni1EF0;
lastChange = "2017-07-12 19:24:32 +0000";
layers = (
{
components = (
{
name = uni0307;
transform = "{1, 0, 0, 1, 356, -663}";
}
);
layerId = "7694D355-AE73-4198-9D25-79029021B8F9";
paths = (
{
closed = 1;
nodes = (
"30 633 CURVE",
"26 638 OFFCURVE",
"25 657 OFFCURVE",
"30 662 CURVE",
"71 660 OFFCURVE",
"109 657 OFFCURVE",
"148 657 CURVE SMOOTH",
"187 657 OFFCURVE",
"224 660 OFFCURVE",
"265 662 CURVE",
"270 657 OFFCURVE",
"269 638 OFFCURVE",
"265 633 CURVE",
"253 633 OFFCURVE",
"199 628 OFFCURVE",
"196 617 CURVE SMOOTH",
"191 601 OFFCURVE",
"191 573 OFFCURVE",
"191 543 CURVE SMOOTH",
"191 296 LINE SMOOTH",
"191 213 OFFCURVE",
"208 152 OFFCURVE",
"240 112 CURVE SMOOTH",
"271 73 OFFCURVE",
"318 54 OFFCURVE",
"377 54 CURVE SMOOTH",
"480 54 OFFCURVE",
"568 102 OFFCURVE",
"571 274 CURVE",
"571 545 LINE SMOOTH",
"571 581 OFFCURVE",
"571 598 OFFCURVE",
"561 614 CURVE SMOOTH",
"555 624 OFFCURVE",
"505 634 OFFCURVE",
"489 634 CURVE",
"484 641 OFFCURVE",
"485 657 OFFCURVE",
"487 663 CURVE",
"527 661 OFFCURVE",
"554 658 OFFCURVE",
"598 658 CURVE SMOOTH",
"649 658 OFFCURVE",
"694 664 OFFCURVE",
"694 682 CURVE SMOOTH",
"694 699 OFFCURVE",
"668 708 OFFCURVE",
"668 732 CURVE SMOOTH",
"668 752 OFFCURVE",
"691 766 OFFCURVE",
"713 766 CURVE SMOOTH",
"723 766 OFFCURVE",
"729 765 OFFCURVE",
"737 762 CURVE",
"746 753 OFFCURVE",
"756 738 OFFCURVE",
"756 711 CURVE SMOOTH",
"756 654 OFFCURVE",
"696 632 OFFCURVE",
"650 622 CURVE SMOOTH",
"641 620 OFFCURVE",
"632 612 OFFCURVE",
"629 606 CURVE SMOOTH",
"623 594 OFFCURVE",
"619 584 OFFCURVE",
"619 546 CURVE SMOOTH",
"619 276 LINE SMOOTH",
"619 76 OFFCURVE",
"512 -4 OFFCURVE",
"356 -4 CURVE SMOOTH",
"284 -4 OFFCURVE",
"222 20 OFFCURVE",
"178 62 CURVE SMOOTH",
"132 106 OFFCURVE",
"104 171 OFFCURVE",
"104 251 CURVE SMOOTH",
"104 543 LINE SMOOTH",
"104 573 OFFCURVE",
"104 601 OFFCURVE",
"99 617 CURVE SMOOTH",
"96 628 OFFCURVE",
"42 633 OFFCURVE"
);
}
);
width = 723;
}
);
unicode = 1EF0;
userData = {
com.fontlab.hintData = {
hhints = (
{
position = -149;
width = 100;
},
{
position = -4;
width = 58;
},
{
position = 633;
width = 29;
}
);
vhints = (
{
position = 104;
width = 87;
},
{
position = 306;
width = 100;
},
{
position = 571;
width = 48;
},
{
position = 694;
width = 62;
}
);
};
};
},
{
glyphname = AE.alt01;
lastChange = "2017-07-12 19:24:32 +0000";
layers = (
{
layerId = "7694D355-AE73-4198-9D25-79029021B8F9";
paths = (
{
closed = 1;
nodes = (
"-18 4 CURVE SMOOTH",
"-18 12 OFFCURVE",
"-15 24 OFFCURVE",
"-11 24 CURVE SMOOTH",
"1 24 OFFCURVE",
"37 32 OFFCURVE",
"49 45 CURVE SMOOTH",
"109 105 OFFCURVE",
"104 144 OFFCURVE",
"356 586 CURVE SMOOTH",
"357 588 OFFCURVE",
"358 591 OFFCURVE",
"358 595 CURVE SMOOTH",
"358 607 OFFCURVE",
"350 625 OFFCURVE",
"321 625 CURVE SMOOTH",
"318 625 OFFCURVE",
"316 629 OFFCURVE",
"316 634 CURVE SMOOTH",
"316 642 OFFCURVE",
"320 653 OFFCURVE",
"323 656 CURVE",
"416 656 LINE SMOOTH",
"509 656 OFFCURVE",
"627 664 OFFCURVE",
"736 664 CURVE",
"743 614 OFFCURVE",
"748 574 OFFCURVE",
"755 530 CURVE",
"752 527 OFFCURVE",
"744 525 OFFCURVE",
"737 525 CURVE SMOOTH",
"730 525 OFFCURVE",
"724 527 OFFCURVE",
"723 532 CURVE SMOOTH",
"700 616 OFFCURVE",
"645 616 OFFCURVE",
"618 616 CURVE SMOOTH",
"555 616 LINE SMOOTH",
"477 616 OFFCURVE",
"468 601 OFFCURVE",
"468 590 CURVE SMOOTH",
"468 588 LINE",
"490 347 LINE SMOOTH",
"491 341 OFFCURVE",
"507 340 OFFCURVE",
"526 340 CURVE SMOOTH",
"563 340 LINE SMOOTH",
"654 340 OFFCURVE",
"651 345 OFFCURVE",
"668 411 CURVE SMOOTH",
"669 416 OFFCURVE",
"675 418 OFFCURVE",
"682 418 CURVE SMOOTH",
"689 418 OFFCURVE",
"696 416 OFFCURVE",
"699 413 CURVE",
"698 402 OFFCURVE",
"698 389 OFFCURVE",
"698 378 CURVE SMOOTH",
"698 326 OFFCURVE",
"705 273 OFFCURVE",
"712 221 CURVE",
"710 219 OFFCURVE",
"702 217 OFFCURVE",
"695 217 CURVE SMOOTH",
"688 217 OFFCURVE",
"682 219 OFFCURVE",
"680 224 CURVE SMOOTH",
"665 281 OFFCURVE",
"658 282 OFFCURVE",
"649 288 CURVE SMOOTH",
"638 295 OFFCURVE",
"578 296 OFFCURVE",
"540 296 CURVE SMOOTH",
"513 296 OFFCURVE",
"498 295 OFFCURVE",
"498 287 CURVE SMOOTH",
"498 286 LINE",
"512 154 LINE",
"512 154 OFFCURVE",
"518 84 OFFCURVE",
"521 67 CURVE SMOOTH",
"523 54 OFFCURVE",
"525 44 OFFCURVE",
"598 44 CURVE SMOOTH",
"636 44 OFFCURVE",
"695 46 OFFCURVE",
"724 61 CURVE SMOOTH",
"743 71 OFFCURVE",
"763 109 OFFCURVE",
"778 162 CURVE SMOOTH",
"779 166 OFFCURVE",
"786 168 OFFCURVE",
"793 168 CURVE SMOOTH",
"803 168 OFFCURVE",
"814 165 OFFCURVE",
"817 162 CURVE",
"799 108 OFFCURVE",
"779 40 OFFCURVE",
"772 -4 CURVE",
"663 -4 OFFCURVE",
"568 2 OFFCURVE",
"477 2 CURVE SMOOTH",
"410 2 OFFCURVE",
"343 -3 OFFCURVE",
"343 -3 CURVE",
"341 -1 OFFCURVE",
"340 5 OFFCURVE",
"340 11 CURVE SMOOTH",
"340 20 OFFCURVE",
"342 31 OFFCURVE",
"345 31 CURVE SMOOTH",
"357 31 OFFCURVE",
"414 41 OFFCURVE",
"419 50 CURVE SMOOTH",
"425 60 OFFCURVE",
"427 74 OFFCURVE",
"427 89 CURVE SMOOTH",
"427 128 OFFCURVE",
"410 266 OFFCURVE",
"408 285 CURVE SMOOTH",
"408 290 OFFCURVE",
"404 293 OFFCURVE",
"399 293 CURVE SMOOTH",
"254 293 LINE SMOOTH",
"251 293 OFFCURVE",
"249 292 OFFCURVE",
"248 290 CURVE SMOOTH",
"165 131 LINE",
"141 88 OFFCURVE",
"133 66 OFFCURVE",
"133 54 CURVE SMOOTH",
"133 30 OFFCURVE",
"188 24 OFFCURVE",
"194 24 CURVE SMOOTH",
"195 24 OFFCURVE",
"196 22 OFFCURVE",
"196 20 CURVE SMOOTH",
"196 14 OFFCURVE",
"192 1 OFFCURVE",
"190 -3 CURVE",
"150 -1 OFFCURVE",
"132 2 OFFCURVE",
"88 2 CURVE SMOOTH",
"42 2 OFFCURVE",
"30 -1 OFFCURVE",
"-16 -3 CURVE",
"-17 -2 OFFCURVE",
"-18 1 OFFCURVE"
);
},
{
closed = 1;
nodes = (
"275 342 LINE SMOOTH",
"275 340 OFFCURVE",
"276 340 OFFCURVE",
"276 340 CURVE",
"298 339 OFFCURVE",
"317 339 OFFCURVE",
"334 339 CURVE SMOOTH",
"356 339 OFFCURVE",
"375 339 OFFCURVE",
"397 341 CURVE SMOOTH",
"400 341 OFFCURVE",
"402 343 OFFCURVE",
"402 346 CURVE SMOOTH",
"395 424 OFFCURVE",
"382 547 OFFCURVE",
"382 547 CURVE",
"275 344 LINE"
);
}
);
width = 842;
}
);
userData = {
com.fontlab.hintData = {
hhints = (
{
position = -3;
width = 27;
},
{
position = 2;
width = 42;
},
{
position = 296;
width = 44;
},
{
position = 616;
width = 48;
},
{
position = 616;
width = 40;
},
{
position = 625;
width = 31;
}
);
vhints = (
{
position = -18;
width = 151;
},
{
position = 358;
width = 110;
},
{
position = 408;
width = 90;
},
{
position = 427;
width = 85;
},
{
position = 668;
width = 31;
},
{
position = 723;
width = 32;
}
);
};
};
},
{
glyphname = Q.alt01;
lastChange = "2017-07-12 19:24:32 +0000";
layers = (
{
layerId = "7694D355-AE73-4198-9D25-79029021B8F9";
paths = (
{
closed = 1;
nodes = (
"49 328 CURVE SMOOTH",
"49 515 OFFCURVE",
"197 667 OFFCURVE",
"373 667 CURVE SMOOTH",
"549 667 OFFCURVE",
"699 527 OFFCURVE",
"699 328 CURVE SMOOTH",
"699 175 OFFCURVE",
"599 46 OFFCURVE",
"466 4 CURVE",
"538 -12 OFFCURVE",
"563.591 -1.035 OFFCURVE",
"641 -31 CURVE SMOOTH",
"672 -43 OFFCURVE",
"876 -158 OFFCURVE",
"1017 -158 CURVE SMOOTH",
"1099 -158 OFFCURVE",
"1200 -125 OFFCURVE",
"1214 -119 CURVE",
"1216 -119 LINE SMOOTH",
"1221 -119 OFFCURVE",
"1225 -134 OFFCURVE",
"1225 -142 CURVE SMOOTH",
"1225 -145 OFFCURVE",
"1225 -147 OFFCURVE",
"1224 -147 CURVE SMOOTH",
"1180 -170 OFFCURVE",
"1124 -221 OFFCURVE",
"970 -221 CURVE SMOOTH",
"859 -221 OFFCURVE",
"647.767 -108.656 OFFCURVE",
"540 -70 CURVE SMOOTH",
"448 -37 OFFCURVE",
"349 -14 OFFCURVE",
"293 0 CURVE SMOOTH",
"154 35 OFFCURVE",
"49 161 OFFCURVE"
);
},
{
closed = 1;
nodes = (
"148 350 CURVE SMOOTH",
"148 195 OFFCURVE",
"234 24 OFFCURVE",
"389 24 CURVE SMOOTH",
"539 24 OFFCURVE",
"600 174 OFFCURVE",
"600 309 CURVE SMOOTH",
"600 464 OFFCURVE",
"513 633 OFFCURVE",
"358 633 CURVE SMOOTH",
"208 633 OFFCURVE",
"148 484 OFFCURVE"
);
}
);
width = 735;
}
);
userData = {
com.fontlab.hintData = {
hhints = (
{
position = -221;
width = 63;
},
{
position = -147;
width = 28;
},
{
position = 614;
width = 53;
}
);
vhints = (
{
position = 47;
width = 98;
},
{
position = 588;
width = 98;
}
);
};
};
},
{
glyphname = a;
lastChange = "2017-07-12 19:24:32 +0000";
layers = (
{
layerId = "7694D355-AE73-4198-9D25-79029021B8F9";
paths = (
{
closed = 1;
nodes = (
"37 107 CURVE SMOOTH",
"37 148 OFFCURVE",
"65 179 OFFCURVE",
"87 187 CURVE SMOOTH",
"143 207 OFFCURVE",
"233 237 OFFCURVE",
"262 250 CURVE SMOOTH",
"272 254 OFFCURVE",
"274 257 OFFCURVE",
"274 275 CURVE SMOOTH",
"274 302 LINE SMOOTH",
"274 347 OFFCURVE",
"237 398 OFFCURVE",
"188 398 CURVE SMOOTH",
"153 398 OFFCURVE",
"140 375 OFFCURVE",
"133 336 CURVE SMOOTH",
"127 302 OFFCURVE",
"111 288 OFFCURVE",
"86 288 CURVE SMOOTH",
"65 288 OFFCURVE",
"52 310 OFFCURVE",
"52 330 CURVE SMOOTH",
"52 334 OFFCURVE",
"55 349 OFFCURVE",
"59 354 CURVE SMOOTH",
"90 383 OFFCURVE",
"168 436 OFFCURVE",
"241 436 CURVE SMOOTH",
"298 436 OFFCURVE",
"350 376 OFFCURVE",
"350 299 CURVE SMOOTH",
"350 93 LINE SMOOTH",
"350 66 OFFCURVE",
"358 46 OFFCURVE",
"381 46 CURVE SMOOTH",
"399 46 OFFCURVE",
"411 57 OFFCURVE",
"414 59 CURVE",
"417 59 OFFCURVE",
"418 54 OFFCURVE",
"418 51 CURVE SMOOTH",
"418 45 OFFCURVE",
"416 37 OFFCURVE",
"413 32 CURVE",
"401 21 OFFCURVE",
"359 -6 OFFCURVE",
"338 -6 CURVE SMOOTH",
"309 -6 OFFCURVE",
"283 28 OFFCURVE",
"277 59 CURVE",
"265 47 OFFCURVE",
"189 -8 OFFCURVE",
"154 -8 CURVE SMOOTH",
"88 -8 OFFCURVE",
"37 42 OFFCURVE"
);
},
{
closed = 1;
nodes = (
"120 116 CURVE SMOOTH",
"120 79 OFFCURVE",
"149 46 OFFCURVE",
"187 46 CURVE SMOOTH",
"222 46 OFFCURVE",
"274 77 OFFCURVE",
"274 87 CURVE SMOOTH",
"274 223 LINE",
"247 215 OFFCURVE",
"199 201 OFFCURVE",
"181 194 CURVE SMOOTH",
"145 180 OFFCURVE",
"120 154 OFFCURVE"
);
}
);
width = 431;
}
);
unicode = 0061;
userData = {
com.fontlab.hintData = {
hhints = (
{
position = -6;
width = 52;
},
{
position = 398;
width = 38;
}
);
vhints = (
{
position = 37;
width = 83;
},
{
position = 52;
width = 81;
},
{
position = 274;
width = 76;
}
);
};
};
},
{
glyphname = aogonek;
lastChange = "2017-07-12 19:24:32 +0000";
layers = (
{
layerId = "7694D355-AE73-4198-9D25-79029021B8F9";
paths = (
{
closed = 1;
nodes = (
"37 107 CURVE SMOOTH",
"37 148 OFFCURVE",
"65 179 OFFCURVE",
"87 187 CURVE SMOOTH",
"143 207 OFFCURVE",
"233 237 OFFCURVE",
"262 250 CURVE SMOOTH",
"272 254 OFFCURVE",
"274 257 OFFCURVE",
"274 275 CURVE SMOOTH",
"274 302 LINE SMOOTH",
"274 347 OFFCURVE",
"237 398 OFFCURVE",
"188 398 CURVE SMOOTH",
"153 398 OFFCURVE",
"140 375 OFFCURVE",
"133 336 CURVE SMOOTH",
"127 302 OFFCURVE",
"111 288 OFFCURVE",
"86 288 CURVE SMOOTH",
"65 288 OFFCURVE",
"52 310 OFFCURVE",
"52 330 CURVE SMOOTH",
"52 334 OFFCURVE",
"55 349 OFFCURVE",
"59 354 CURVE SMOOTH",
"90 383 OFFCURVE",
"168 436 OFFCURVE",
"241 436 CURVE SMOOTH",
"298 436 OFFCURVE",
"350 376 OFFCURVE",
"350 299 CURVE SMOOTH",
"350 93 LINE SMOOTH",
"350 66 OFFCURVE",
"358 46 OFFCURVE",
"381 46 CURVE SMOOTH",
"399 46 OFFCURVE",
"411 57 OFFCURVE",
"414 59 CURVE",
"417 59 OFFCURVE",
"418 54 OFFCURVE",
"418 51 CURVE SMOOTH",
"418 45 OFFCURVE",
"416 37 OFFCURVE",
"413 32 CURVE",
"403 25 OFFCURVE",
"389 15 OFFCURVE",
"377 7 CURVE SMOOTH",
"339 -20 OFFCURVE",
"264 -67 OFFCURVE",
"264 -121 CURVE SMOOTH",
"264 -136 OFFCURVE",
"271 -164 OFFCURVE",
"305 -164 CURVE SMOOTH",
"356 -164 OFFCURVE",
"380 -126 OFFCURVE",
"386 -126 CURVE SMOOTH",
"387 -126 OFFCURVE",
"391 -131 OFFCURVE",
"391 -139 CURVE SMOOTH",
"391 -144 OFFCURVE",
"389 -153 OFFCURVE",
"386 -157 CURVE SMOOTH",
"364 -186 OFFCURVE",
"326 -223 OFFCURVE",
"281 -223 CURVE SMOOTH",
"225 -223 OFFCURVE",
"210 -173 OFFCURVE",
"210 -146 CURVE SMOOTH",
"210 -102 OFFCURVE",
"265 -37 OFFCURVE",
"313 1 CURVE",
"296 11 OFFCURVE",
"279 35 OFFCURVE",
"277 59 CURVE",
"265 47 OFFCURVE",
"189 -8 OFFCURVE",
"154 -8 CURVE SMOOTH",
"88 -8 OFFCURVE",
"37 42 OFFCURVE"
);
},
{
closed = 1;
nodes = (
"120 116 CURVE SMOOTH",
"120 79 OFFCURVE",
"149 46 OFFCURVE",
"187 46 CURVE SMOOTH",
"222 46 OFFCURVE",
"274 77 OFFCURVE",
"274 87 CURVE SMOOTH",
"274 223 LINE",
"247 215 OFFCURVE",
"199 201 OFFCURVE",
"181 194 CURVE SMOOTH",
"145 180 OFFCURVE",
"120 154 OFFCURVE"
);
}
);
width = 431;
}
);
unicode = 0105;
userData = {
com.fontlab.hintData = {
hhints = (
{
position = -223;
width = 59;
},
{
position = -8;
width = 54;
},
{
position = 398;
width = 38;
}
);
vhints = (
{
position = 37;
width = 83;
},
{
position = 52;
width = 81;
},
{
position = 210;
width = 54;
},
{
position = 274;
width = 76;
}
);
};
};
},
{
glyphname = ae;
lastChange = "2017-07-12 19:24:32 +0000";
layers = (
{
layerId = "7694D355-AE73-4198-9D25-79029021B8F9";
paths = (
{
closed = 1;
nodes = (
"37 107 CURVE SMOOTH",
"37 148 OFFCURVE",
"60 174 OFFCURVE",
"83 186 CURVE SMOOTH",
"131 210 OFFCURVE",
"220 243 OFFCURVE",
"249 256 CURVE SMOOTH",
"259 260 OFFCURVE",
"261 262 OFFCURVE",
"263 270 CURVE SMOOTH",
"265 279 OFFCURVE",
"265 290 OFFCURVE",
"265 302 CURVE SMOOTH",
"265 347 OFFCURVE",
"237 398 OFFCURVE",
"188 398 CURVE SMOOTH",
"153 398 OFFCURVE",
"140 374 OFFCURVE",
"133 335 CURVE SMOOTH",
"127 301 OFFCURVE",
"111 288 OFFCURVE",
"86 288 CURVE SMOOTH",
"65 288 OFFCURVE",
"52 310 OFFCURVE",
"52 330 CURVE SMOOTH",
"52 338 OFFCURVE",
"56 350 OFFCURVE",
"59 354 CURVE SMOOTH",
"83 377 OFFCURVE",
"166 436 OFFCURVE",
"239 436 CURVE SMOOTH",
"282 436 OFFCURVE",
"315 406 OFFCURVE",
"332 374 CURVE",
"356 400 OFFCURVE",
"403 438 OFFCURVE",
"460 438 CURVE SMOOTH",
"580 438 OFFCURVE",
"610 342 OFFCURVE",
"610 302 CURVE SMOOTH",
"610 273 OFFCURVE",
"605 256 OFFCURVE",
"586 255 CURVE SMOOTH",
"555 253 OFFCURVE",
"346 248 OFFCURVE",
"334 248 CURVE",
"331 120 OFFCURVE",
"409 56 OFFCURVE",
"497 56 CURVE SMOOTH",
"552 56 OFFCURVE",
"594 94 OFFCURVE",
"607 109 CURVE SMOOTH",
"608 109 OFFCURVE",
"615 103 OFFCURVE",
"615 95 CURVE SMOOTH",
"615 90 OFFCURVE",
"612 82 OFFCURVE",
"609 77 CURVE SMOOTH",
"591 48 OFFCURVE",
"541 -8 OFFCURVE",
"463 -8 CURVE SMOOTH",
"402 -8 OFFCURVE",
"332 20 OFFCURVE",
"298 77 CURVE",
"274 52 OFFCURVE",
"189 -8 OFFCURVE",
"154 -8 CURVE SMOOTH",
"88 -8 OFFCURVE",
"37 42 OFFCURVE"
);
},
{
closed = 1;
nodes = (
"120 116 CURVE SMOOTH",
"120 79 OFFCURVE",
"149 46 OFFCURVE",
"187 46 CURVE SMOOTH",
"220 46 OFFCURVE",
"279 93 OFFCURVE",
"279 104 CURVE",
"271 122 OFFCURVE",
"264 163 OFFCURVE",
"261 193 CURVE SMOOTH",
"260 204 OFFCURVE",
"259 213 OFFCURVE",
"259 220 CURVE",
"233 211 OFFCURVE",
"198 200 OFFCURVE",
"181 194 CURVE SMOOTH",
"145 181 OFFCURVE",
"120 154 OFFCURVE"
);
},
{
closed = 1;
nodes = (
"339 285 CURVE SMOOTH",
"502 285 LINE SMOOTH",
"514 285 OFFCURVE",
"524 290 OFFCURVE",
"525 308 CURVE SMOOTH",
"526 332 OFFCURVE",
"504 402 OFFCURVE",
"443 402 CURVE SMOOTH",
"359 402 OFFCURVE",
"337 285 OFFCURVE"
);
}
);
width = 653;
}
);
unicode = 00E6;
userData = {
com.fontlab.hintData = {
hhints = (
{
position = -8;
width = 64;
},
{
position = -8;
width = 54;
},
{
position = 248;
width = 37;
},
{
position = 255;
width = 30;
},
{
position = 398;
width = 38;
}
);
vhints = (
{
position = 37;
width = 83;
},
{
position = 52;
width = 81;
},
{
position = 265;
width = 69;
},
{
position = 525;
width = 85;
}
);
};
};
},
{
glyphname = uni01E3;
lastChange = "2017-07-12 19:24:32 +0000";
layers = (
{
components = (
{
name = ae;
}
);
layerId = "7694D355-AE73-4198-9D25-79029021B8F9";
paths = (
{
closed = 1;
nodes = (
"126 534 CURVE SMOOTH",
"126 536 OFFCURVE",
"127 571 OFFCURVE",
"138 571 CURVE SMOOTH",
"513 571 LINE SMOOTH",
"515 571 OFFCURVE",
"518 570 OFFCURVE",
"518 564 CURVE SMOOTH",
"518 559 OFFCURVE",
"517 550 OFFCURVE",
"512 532 CURVE SMOOTH",
"510 526 OFFCURVE",
"505 525 OFFCURVE",
"505 525 CURVE",
"132 525 LINE",
"132 525 OFFCURVE",
"126 524 OFFCURVE"
);
}
);
width = 653;
}
);
unicode = 01E3;
userData = {
com.fontlab.hintData = {
hhints = (
{
position = -8;
width = 54;
},
{
position = -8;
width = 64;
},
{
position = 248;
width = 37;
},
{
position = 255;
width = 30;
},
{
position = 398;
width = 38;
},
{
position = 525;
width = 46;
}
);
vhints = (
{
position = 37;
width = 83;
},
{
position = 52;
width = 81;
},
{
position = 265;
width = 69;
},
{
position = 525;
width = 85;
}
);
};
};
},
{
glyphname = b;
lastChange = "2017-07-12 19:24:32 +0000";
layers = (
{
layerId = "7694D355-AE73-4198-9D25-79029021B8F9";
paths = (
{
closed = 1;
nodes = (
"5 628 CURVE SMOOTH",
"4 628 OFFCURVE",
"2 653 OFFCURVE",
"6 654 CURVE SMOOTH",
"56 659 OFFCURVE",
"106 675 OFFCURVE",
"148 694 CURVE",
"153 694 OFFCURVE",
"159 685 OFFCURVE",
"159 678 CURVE SMOOTH",
"159 678 OFFCURVE",
"148 646 OFFCURVE",
"148 591 CURVE SMOOTH",
"148 394 LINE SMOOTH",
"148 389 OFFCURVE",
"148 379 OFFCURVE",
"154 384 CURVE SMOOTH",
"169 395 OFFCURVE",
"237 438 OFFCURVE",
"275 438 CURVE SMOOTH",
"395 438 OFFCURVE",
"458 324 OFFCURVE",
"458 233 CURVE SMOOTH",
"458 102 OFFCURVE",
"353 -7 OFFCURVE",
"211 -7 CURVE SMOOTH",
"196 -7 OFFCURVE",
"158 2 OFFCURVE",
"137 8 CURVE SMOOTH",
"115 14 OFFCURVE",
"95 22 OFFCURVE",
"72 14 CURVE",
"67 14 OFFCURVE",
"59 31 OFFCURVE",
"59 36 CURVE",
"68 56 OFFCURVE",
"71 90 OFFCURVE",
"71 110 CURVE SMOOTH",
"71 558 LINE SMOOTH",
"71 571 OFFCURVE",
"71 598 OFFCURVE",
"66 610 CURVE SMOOTH",
"60 624 OFFCURVE",
"33 628 OFFCURVE"
);
},
{
closed = 1;
nodes = (
"148 98 LINE SMOOTH",
"148 55 OFFCURVE",
"197 27 OFFCURVE",
"241 27 CURVE SMOOTH",
"313 27 OFFCURVE",
"374 113 OFFCURVE",
"374 194 CURVE SMOOTH",
"374 310 OFFCURVE",
"316 379 OFFCURVE",
"227 379 CURVE SMOOTH",
"201 379 OFFCURVE",
"162 361 OFFCURVE",
"153 352 CURVE SMOOTH",
"150 349 OFFCURVE",
"148 346 OFFCURVE",
"148 341 CURVE SMOOTH"
);
}
);
width = 498;
}
);
unicode = 0062;
userData = {
com.fontlab.hintData = {
hhints = (
{
position = -7;
width = 34;
},
{
position = 379;
width = 5;
},
{
position = 628;
width = 26;
},
{
position = 674;
width = 20;
}
);
vhints = (
{
position = 71;
width = 77;
},
{
position = 374;
width = 84;
}
);
};
};
},
{
glyphname = c;
lastChange = "2017-07-12 19:24:32 +0000";
layers = (
{
layerId = "7694D355-AE73-4198-9D25-79029021B8F9";
paths = (
{
closed = 1;
nodes = (
"39 194 CURVE SMOOTH",
"39 340 OFFCURVE",
"178 438 OFFCURVE",
"282 438 CURVE SMOOTH",
"317 438 OFFCURVE",
"348 430 OFFCURVE",
"372 414 CURVE",
"376 410 OFFCURVE",
"382 396 OFFCURVE",
"382 386 CURVE SMOOTH",
"382 350 OFFCURVE",
"361 338 OFFCURVE",
"344 338 CURVE SMOOTH",
"322 338 OFFCURVE",
"303 364 OFFCURVE",
"286 375 CURVE SMOOTH",
"265 389 OFFCURVE",
"255 394 OFFCURVE",
"229 394 CURVE SMOOTH",
"176 394 OFFCURVE",
"117 332 OFFCURVE",
"117 227 CURVE SMOOTH",
"117 110 OFFCURVE",
"189 58 OFFCURVE",
"279 58 CURVE SMOOTH",
"334 58 OFFCURVE",
"372 94 OFFCURVE",
"385 109 CURVE SMOOTH",
"386 109 OFFCURVE",
"393 103 OFFCURVE",
"393 95 CURVE SMOOTH",
"393 90 OFFCURVE",
"390 82 OFFCURVE",
"387 77 CURVE SMOOTH",
"369 48 OFFCURVE",
"319 -8 OFFCURVE",
"241 -8 CURVE SMOOTH",
"120 -8 OFFCURVE",
"39 90 OFFCURVE"
);
}
);
width = 423;
}
);
unicode = 0063;
userData = {
com.fontlab.hintData = {
hhints = (
{
position = -8;
width = 66;
},
{
position = 394;
width = 44;
}
);
vhints = (
{
position = 39;
width = 78;
}
);
};
};
},
{
glyphname = ccedilla;
lastChange = "2017-07-12 19:24:32 +0000";
layers = (
{
layerId = "7694D355-AE73-4198-9D25-79029021B8F9";
paths = (
{
closed = 1;
nodes = (
"39 194 CURVE SMOOTH",
"39 340 OFFCURVE",
"178 438 OFFCURVE",
"282 438 CURVE SMOOTH",
"317 438 OFFCURVE",
"348 430 OFFCURVE",
"372 414 CURVE SMOOTH",
"376 410 OFFCURVE",
"382 396 OFFCURVE",
"382 386 CURVE SMOOTH",
"382 350 OFFCURVE",
"361 338 OFFCURVE",
"344 338 CURVE SMOOTH",
"322 338 OFFCURVE",
"303 364 OFFCURVE",
"286 375 CURVE SMOOTH",
"265 389 OFFCURVE",
"255 394 OFFCURVE",
"229 394 CURVE SMOOTH",
"176 394 OFFCURVE",
"117 332 OFFCURVE",
"117 227 CURVE SMOOTH",
"117 110 OFFCURVE",
"189 58 OFFCURVE",
"279 58 CURVE SMOOTH",
"334 58 OFFCURVE",
"372 94 OFFCURVE",
"385 109 CURVE SMOOTH",
"386 109 OFFCURVE",
"393 103 OFFCURVE",
"393 95 CURVE SMOOTH",
"393 90 OFFCURVE",
"390 82 OFFCURVE",
"387 77 CURVE SMOOTH",
"369.948 49.528 OFFCURVE",
"324.18 -2.174 OFFCURVE",
"253.095 -7.546 CURVE",
"241 -23 LINE",
"266 -23 LINE SMOOTH",
"292 -23 OFFCURVE",
"310 -46 OFFCURVE",
"310 -72 CURVE SMOOTH",
"310 -119 OFFCURVE",
"268 -148 OFFCURVE",
"216 -148 CURVE SMOOTH",
"204 -148 OFFCURVE",
"188 -143 OFFCURVE",
"182 -139 CURVE SMOOTH",
"181 -134 OFFCURVE",
"179 -131 OFFCURVE",
"179 -125 CURVE SMOOTH",
"179 -118 OFFCURVE",
"187 -111 OFFCURVE",
"193 -111 CURVE SMOOTH",
"205 -111 OFFCURVE",
"214 -124 OFFCURVE",
"230 -124 CURVE SMOOTH",
"258 -124 OFFCURVE",
"273 -108 OFFCURVE",
"273 -91 CURVE SMOOTH",
"273 -67 OFFCURVE",
"255 -57 OFFCURVE",
"242 -57 CURVE SMOOTH",
"231 -57 OFFCURVE",
"226 -60 OFFCURVE",
"216 -64 CURVE SMOOTH",
"214 -64 OFFCURVE",
"204 -55 OFFCURVE",
"206 -51 CURVE SMOOTH",
"213.45 -38.583 OFFCURVE",
"225.012 -21.369 OFFCURVE",
"233.311 -7.867 CURVE",
"116.581 -3.816 OFFCURVE",
"39 92.219 OFFCURVE"
);
}
);
width = 423;
}
);
unicode = 00E7;
userData = {
com.fontlab.hintData = {
hhints = (
{
position = -148;
width = 24;
},
{
position = -57;
width = 34;
},
{
position = -8;
width = 66;
},
{
position = 394;
width = 44;
}
);
vhints = (
{
position = 39;
width = 78;
},
{
position = 273;
width = 37;
}
);
};
};
},
{
glyphname = d;
lastChange = "2017-07-12 19:24:32 +0000";
layers = (
{
layerId = "7694D355-AE73-4198-9D25-79029021B8F9";
paths = (
{
closed = 1;
nodes = (
"39 206 CURVE SMOOTH",
"39 337 OFFCURVE",
"187 438 OFFCURVE",
"277 438 CURVE SMOOTH",
"298 438 OFFCURVE",
"336 432 OFFCURVE",
"346 428 CURVE",
"350 428 OFFCURVE",
"351 437 OFFCURVE",
"351 449 CURVE SMOOTH",
"351 558 LINE SMOOTH",
"351 572 OFFCURVE",
"351 598 OFFCURVE",
"346 610 CURVE SMOOTH",
"340 624 OFFCURVE",
"313 628 OFFCURVE",
"285 628 CURVE SMOOTH",
"284 628 OFFCURVE",
"282 653 OFFCURVE",
"286 654 CURVE SMOOTH",
"336 659 OFFCURVE",
"386 675 OFFCURVE",
"428 694 CURVE",
"433 694 OFFCURVE",
"439 685 OFFCURVE",
"439 678 CURVE SMOOTH",
"439 678 OFFCURVE",
"428 646 OFFCURVE",
"428 591 CURVE SMOOTH",
"428 163 LINE SMOOTH",
"428 124 OFFCURVE",
"429 79 OFFCURVE",
"435 65 CURVE SMOOTH",
"443 47 OFFCURVE",
"491 48 OFFCURVE",
"494 47 CURVE SMOOTH",
"496 46 OFFCURVE",
"497 38 OFFCURVE",
"497 35 CURVE SMOOTH",
"497 33 OFFCURVE",
"494 20 OFFCURVE",
"489 20 CURVE SMOOTH",
"437 17 OFFCURVE",
"360 -8 OFFCURVE",
"359 -8 CURVE SMOOTH",
"353 -8 OFFCURVE",
"351 4 OFFCURVE",
"351 11 CURVE SMOOTH",
"351 46 LINE SMOOTH",
"351 51 OFFCURVE",
"350 54 OFFCURVE",
"348 52 CURVE SMOOTH",
"333 36 OFFCURVE",
"263 -8 OFFCURVE",
"215 -8 CURVE SMOOTH",
"124 -8 OFFCURVE",
"39 84 OFFCURVE"
);
},
{
closed = 1;
nodes = (
"123 230 CURVE SMOOTH",
"123 136 OFFCURVE",
"173 54 OFFCURVE",
"264 54 CURVE SMOOTH",
"309 54 OFFCURVE",
"351 78 OFFCURVE",
"351 94 CURVE SMOOTH",
"351 347 LINE SMOOTH",
"351 370 OFFCURVE",
"301 396 OFFCURVE",
"245 396 CURVE SMOOTH",
"169 396 OFFCURVE",
"123 314 OFFCURVE"
);
}
);
width = 515;
}
);
unicode = 0064;
userData = {
com.fontlab.hintData = {
hhints = (
{
position = -8;
width = 62;
},
{
position = 20;
width = 27;
},
{
position = 396;
width = 42;
},
{
position = 628;
width = 26;
},
{
position = 674;
width = 20;
}
);
vhints = (
{
position = 39;
width = 84;
},
{
position = 351;
width = 77;
}
);
};
};
},
{
glyphname = eth;
lastChange = "2017-07-12 19:24:32 +0000";
layers = (
{
layerId = "7694D355-AE73-4198-9D25-79029021B8F9";
paths = (
{
closed = 1;
nodes = (
"126 227 CURVE SMOOTH",
"126 129 OFFCURVE",
"178 26 OFFCURVE",
"259 26 CURVE SMOOTH",
"338 26 OFFCURVE",
"375 104 OFFCURVE",
"375 202 CURVE SMOOTH",
"375 257 OFFCURVE",
"366 308 OFFCURVE",
"355 329 CURVE SMOOTH",
"327 382 OFFCURVE",
"288 406 OFFCURVE",
"234 406 CURVE SMOOTH",
"154 406 OFFCURVE",
"126 319 OFFCURVE"
);
},
{
closed = 1;
nodes = (
"40 211 CURVE SMOOTH",
"40 319 OFFCURVE",
"108 439 OFFCURVE",
"247 439 CURVE SMOOTH",
"276 439 OFFCURVE",
"312 435 OFFCURVE",
"332 423 CURVE",
"317.031 461.4 OFFCURVE",
"294.013 519.709 OFFCURVE",
"228.484 576.699 CURVE",
"128 509 LINE",
"121 514 OFFCURVE",
"104 535 OFFCURVE",
"111 541 CURVE",
"198.912 600.107 LINE",
"167.851 622.528 OFFCURVE",
"129.276 644.274 OFFCURVE",
"81 664 CURVE",
"81 671 OFFCURVE",
"87 688 OFFCURVE",
"95 688 CURVE SMOOTH",
"141.352 677.344 OFFCURVE",
"189.691 655.335 OFFCURVE",
"235.48 624.693 CURVE",
"346 699 LINE",
"354 694 OFFCURVE",
"371 674 OFFCURVE",
"364 668 CURVE",
"266.493 602.307 LINE",
"295.247 579.986 OFFCURVE",
"322.493 554.303 OFFCURVE",
"347 526 CURVE SMOOTH",
"415 448 OFFCURVE",
"462 349 OFFCURVE",
"462 247 CURVE SMOOTH",
"462 85 OFFCURVE",
"361 -7 OFFCURVE",
"256 -7 CURVE SMOOTH",
"120 -7 OFFCURVE",
"40 91 OFFCURVE"
);
}
);
width = 517;
}
);
unicode = 00F0;
userData = {
com.fontlab.hintData = {
hhints = (
{
position = -7;
width = 33;
},
{
position = 406;
width = 33;
},
{
position = 664;
width = 24;
}
);
vhints = (
{
position = 40;
width = 86;
},
{
position = 375;
width = 87;
}
);
};
};
},
{
glyphname = dcroat;
lastChange = "2017-07-12 19:24:32 +0000";
layers = (
{
layerId = "7694D355-AE73-4198-9D25-79029021B8F9";
paths = (
{
closed = 1;
nodes = (
"213 537 CURVE SMOOTH",
"213 542 OFFCURVE",
"215 553 OFFCURVE",
"219 560 CURVE",
"351 560 LINE",
"350.989 574.356 OFFCURVE",
"350.771 598.55 OFFCURVE",
"346 610 CURVE SMOOTH",
"340 624 OFFCURVE",
"313 628 OFFCURVE",
"285 628 CURVE SMOOTH",
"284 628 OFFCURVE",
"282 653 OFFCURVE",
"286 654 CURVE SMOOTH",
"336 659 OFFCURVE",
"386 675 OFFCURVE",
"428 694 CURVE SMOOTH",
"433 694 OFFCURVE",
"439 685 OFFCURVE",
"439 678 CURVE SMOOTH",
"439 678 OFFCURVE",
"428 646 OFFCURVE",
"428 591 CURVE SMOOTH",
"428 560 LINE",
"484 560 LINE SMOOTH",
"488 560 OFFCURVE",
"490 556 OFFCURVE",
"490 552 CURVE SMOOTH",
"490 547 OFFCURVE",
"488 533 OFFCURVE",
"484 525 CURVE",
"428 525 LINE",
"428 163 LINE SMOOTH",
"428 124 OFFCURVE",
"429 79 OFFCURVE",
"435 65 CURVE SMOOTH",
"443 47 OFFCURVE",
"491 48 OFFCURVE",
"494 47 CURVE SMOOTH",
"496 46 OFFCURVE",
"497 38 OFFCURVE",
"497 35 CURVE SMOOTH",
"497 33 OFFCURVE",
"494 20 OFFCURVE",
"489 20 CURVE SMOOTH",
"437 17 OFFCURVE",
"360 -8 OFFCURVE",
"359 -8 CURVE SMOOTH",
"353 -8 OFFCURVE",
"351 4 OFFCURVE",
"351 11 CURVE SMOOTH",
"351 46 LINE SMOOTH",
"351 51 OFFCURVE",
"350 54 OFFCURVE",
"348 52 CURVE SMOOTH",
"333 36 OFFCURVE",
"263 -8 OFFCURVE",
"215 -8 CURVE SMOOTH",
"124 -8 OFFCURVE",
"39 84 OFFCURVE",
"39 206 CURVE SMOOTH",
"39 337 OFFCURVE",
"187 438 OFFCURVE",
"277 438 CURVE SMOOTH",
"298 438 OFFCURVE",
"336 432 OFFCURVE",
"346 428 CURVE SMOOTH",
"350 428 OFFCURVE",
"351 437 OFFCURVE",
"351 449 CURVE SMOOTH",
"351 525 LINE",
"218 525 LINE SMOOTH",
"214 525 OFFCURVE",
"213 533 OFFCURVE"
);
},
{
closed = 1;
nodes = (
"123 230 CURVE SMOOTH",
"123 136 OFFCURVE",
"173 54 OFFCURVE",
"264 54 CURVE SMOOTH",
"309 54 OFFCURVE",
"351 78 OFFCURVE",
"351 94 CURVE SMOOTH",
"351 347 LINE SMOOTH",
"351 370 OFFCURVE",
"301 396 OFFCURVE",
"245 396 CURVE SMOOTH",
"169 396 OFFCURVE",
"123 314 OFFCURVE"
);
}
);
width = 515;
}
);
unicode = 0111;
userData = {
com.fontlab.hintData = {
hhints = (
{
position = -8;
width = 62;
},
{
position = 20;
width = 27;
},
{
position = 396;
width = 42;
},
{
position = 525;
width = 35;
},
{
position = 628;
width = 26;
},
{
position = 674;
width = 20;
}
);
vhints = (
{
position = 39;
width = 84;
},
{
position = 351;
width = 77;
}
);
};
};
},
{
glyphname = e;
lastChange = "2017-07-12 19:24:32 +0000";
layers = (
{
layerId = "7694D355-AE73-4198-9D25-79029021B8F9";
paths = (
{
closed = 1;
nodes = (
"40 200 CURVE SMOOTH",
"40 334 OFFCURVE",
"149 438 OFFCURVE",
"237 438 CURVE SMOOTH",
"357 438 OFFCURVE",
"387 342 OFFCURVE",
"387 302 CURVE SMOOTH",
"387 273 OFFCURVE",
"382 256 OFFCURVE",
"363 255 CURVE SMOOTH",
"332 253 OFFCURVE",
"123 248 OFFCURVE",
"111 248 CURVE",
"111 241 LINE SMOOTH",
"111 118 OFFCURVE",
"188 56 OFFCURVE",
"274 56 CURVE SMOOTH",
"329 56 OFFCURVE",
"371 94 OFFCURVE",
"384 109 CURVE SMOOTH",
"385 109 OFFCURVE",
"392 103 OFFCURVE",
"392 95 CURVE SMOOTH",
"392 90 OFFCURVE",
"389 82 OFFCURVE",
"386 77 CURVE SMOOTH",
"368 48 OFFCURVE",
"318 -8 OFFCURVE",
"240 -8 CURVE SMOOTH",
"122 -8 OFFCURVE",
"40 82 OFFCURVE"
);
},
{
closed = 1;
nodes = (
"116 285 CURVE SMOOTH",
"279 285 LINE SMOOTH",
"291 285 OFFCURVE",
"302 290 OFFCURVE",
"302 308 CURVE SMOOTH",
"302 337 OFFCURVE",
"281 402 OFFCURVE",
"220 402 CURVE SMOOTH",
"136 402 OFFCURVE",
"114 285 OFFCURVE"
);
}
);
width = 430;
}
);
unicode = 0065;
userData = {
com.fontlab.hintData = {
hhints = (
{
position = -8;
width = 64;
},
{
position = 248;
width = 37;
},
{
position = 255;
width = 30;
},
{
position = 402;
width = 36;
}
);
vhints = (
{
position = 40;
width = 71;
},
{
position = 302;
width = 85;
}
);
};
};
},
{
glyphname = eogonek;
lastChange = "2017-07-12 19:24:32 +0000";
layers = (
{
layerId = "7694D355-AE73-4198-9D25-79029021B8F9";
paths = (
{
closed = 1;
nodes = (
"40 200 CURVE SMOOTH",
"40 334 OFFCURVE",
"149 438 OFFCURVE",
"237 438 CURVE SMOOTH",
"357 438 OFFCURVE",
"387 342 OFFCURVE",
"387 302 CURVE SMOOTH",
"387 273 OFFCURVE",
"382 256 OFFCURVE",
"363 255 CURVE SMOOTH",
"332 253 OFFCURVE",
"123 248 OFFCURVE",
"111 248 CURVE",
"108 120 OFFCURVE",
"186 56 OFFCURVE",
"274 56 CURVE SMOOTH",
"329 56 OFFCURVE",
"371 94 OFFCURVE",
"384 109 CURVE SMOOTH",
"385 109 OFFCURVE",
"392 103 OFFCURVE",
"392 95 CURVE SMOOTH",
"392 90 OFFCURVE",
"389 82 OFFCURVE",
"386 77 CURVE SMOOTH",
"377 63 OFFCURVE",
"359 43 OFFCURVE",
"338 25 CURVE SMOOTH",
"288 -17 OFFCURVE",
"240 -64 OFFCURVE",
"240 -122 CURVE SMOOTH",
"240 -137 OFFCURVE",
"247 -165 OFFCURVE",
"281 -165 CURVE SMOOTH",
"332 -165 OFFCURVE",
"356 -127 OFFCURVE",
"362 -127 CURVE SMOOTH",
"363 -127 OFFCURVE",
"366 -132 OFFCURVE",
"366 -140 CURVE SMOOTH",
"366 -145 OFFCURVE",
"365 -154 OFFCURVE",
"362 -158 CURVE SMOOTH",
"340 -187 OFFCURVE",
"302 -224 OFFCURVE",
"257 -224 CURVE SMOOTH",
"201 -224 OFFCURVE",
"186 -174 OFFCURVE",
"186 -147 CURVE SMOOTH",
"186 -107 OFFCURVE",
"224 -46 OFFCURVE",
"264 -6 CURVE",
"256 -7 OFFCURVE",
"248 -8 OFFCURVE",
"240 -8 CURVE SMOOTH",
"122 -8 OFFCURVE",
"40 82 OFFCURVE"
);
},
{
closed = 1;
nodes = (
"116 285 CURVE SMOOTH",
"279 285 LINE SMOOTH",
"291 285 OFFCURVE",
"301 290 OFFCURVE",
"302 308 CURVE SMOOTH",
"303 332 OFFCURVE",
"281 402 OFFCURVE",
"220 402 CURVE SMOOTH",
"136 402 OFFCURVE",
"114 285 OFFCURVE"
);
}
);
width = 431;
}
);
unicode = 0119;
userData = {
com.fontlab.hintData = {
hhints = (
{
position = -224;
width = 59;
},
{
position = -8;
width = 64;
},
{
position = 248;
width = 37;
},
{
position = 255;
width = 30;
},
{
position = 402;
width = 36;
}
);
vhints = (
{
position = 40;
width = 71;
},
{
position = 186;
width = 54;
},
{
position = 302;
width = 85;
}
);
};
};
},
{
glyphname = g;
lastChange = "2017-07-12 19:24:32 +0000";
layers = (
{
layerId = "7694D355-AE73-4198-9D25-79029021B8F9";
paths = (
{
closed = 1;
nodes = (
"23 -105 CURVE SMOOTH",
"23 -61 OFFCURVE",
"95 -18 OFFCURVE",
"129 -1 CURVE",
"94 10 OFFCURVE",
"47 42 OFFCURVE",
"47 92 CURVE",
"64 112 OFFCURVE",
"115 149 OFFCURVE",
"133 160 CURVE",
"84 187 OFFCURVE",
"50 239 OFFCURVE",
"50 288 CURVE SMOOTH",
"50 367 OFFCURVE",
"123 439 OFFCURVE",
"219 439 CURVE SMOOTH",
"256 439 OFFCURVE",
"281.86 428.656 OFFCURVE",
"310 417 CURVE SMOOTH",
"314.975 414.939 OFFCURVE",
"326 411 OFFCURVE",
"333 410 CURVE",
"440 425 LINE",
"447 423 OFFCURVE",
"450 419 OFFCURVE",
"450 415 CURVE SMOOTH",
"450 407 OFFCURVE",
"437 380 OFFCURVE",
"427 374 CURVE",
"402 375 OFFCURVE",
"361 378 OFFCURVE",
"361 378 CURVE SMOOTH",
"358 378 OFFCURVE",
"357 377 OFFCURVE",
"357 375 CURVE",
"362 370 OFFCURVE",
"385 330 OFFCURVE",
"385 284 CURVE SMOOTH",
"385 214 OFFCURVE",
"312 137 OFFCURVE",
"216 137 CURVE SMOOTH",
"199 137 OFFCURVE",
"170 142 OFFCURVE",
"160 146 CURVE",
"142 136 OFFCURVE",
"123 118 OFFCURVE",
"123 102 CURVE SMOOTH",
"123 92 OFFCURVE",
"143 67 OFFCURVE",
"183 67 CURVE SMOOTH",
"301 67 LINE SMOOTH",
"380 67 OFFCURVE",
"456 18 OFFCURVE",
"456 -38 CURVE SMOOTH",
"456 -120 OFFCURVE",
"335 -226 OFFCURVE",
"196 -227 CURVE SMOOTH",
"115 -228 OFFCURVE",
"23 -187 OFFCURVE"
);
},
{
closed = 1;
nodes = (
"102 -76 CURVE SMOOTH",
"102 -141 OFFCURVE",
"151 -188 OFFCURVE",
"236 -188 CURVE SMOOTH",
"305 -188 OFFCURVE",
"387 -136 OFFCURVE",
"387 -81 CURVE SMOOTH",
"387 -52 OFFCURVE",
"350 -4 OFFCURVE",
"255 -4 CURVE SMOOTH",
"237 -4 OFFCURVE",
"169 -5 OFFCURVE",
"162 -9 CURVE SMOOTH",
"139 -22 OFFCURVE",
"102 -50 OFFCURVE"
);
},
{
closed = 1;
nodes = (
"127 292 CURVE SMOOTH",
"127 231 OFFCURVE",
"162 167 OFFCURVE",
"223 167 CURVE SMOOTH",
"278 167 OFFCURVE",
"308 226 OFFCURVE",
"308 281 CURVE SMOOTH",
"308 343 OFFCURVE",
"277 409 OFFCURVE",
"215 409 CURVE SMOOTH",
"158 409 OFFCURVE",
"127 349 OFFCURVE"
);
}
);
width = 466;
}
);
unicode = 0067;
userData = {
com.fontlab.hintData = {
hhints = (
{
position = -227;
width = 39;
},
{
position = -4;
width = 71;
},
{
position = 137;
width = 30;
},
{
position = 374;
width = 51;
},
{
position = 409;
width = 30;
}
);
vhints = (
{
position = 23;
width = 79;
},
{
position = 50;
width = 77;
},
{
position = 308;
width = 77;
},
{
position = 387;
width = 69;
}
);
};
};
},
{
glyphname = h;
lastChange = "2017-07-12 19:24:32 +0000";
layers = (
{
layerId = "7694D355-AE73-4198-9D25-79029021B8F9";
paths = (
{
closed = 1;
nodes = (
"21 -3 CURVE",
"16 2 OFFCURVE",
"17 21 OFFCURVE",
"21 26 CURVE",
"33 26 OFFCURVE",
"81 31 OFFCURVE",
"84 42 CURVE SMOOTH",
"89 58 OFFCURVE",
"89 86 OFFCURVE",
"89 116 CURVE SMOOTH",
"89 558 LINE SMOOTH",
"89 571 OFFCURVE",
"89 598 OFFCURVE",
"84 610 CURVE SMOOTH",
"78 624 OFFCURVE",
"51 628 OFFCURVE",
"23 628 CURVE SMOOTH",
"22 628 OFFCURVE",
"20 653 OFFCURVE",
"24 654 CURVE SMOOTH",
"74 659 OFFCURVE",
"124 675 OFFCURVE",
"166 694 CURVE",
"171 694 OFFCURVE",
"177 685 OFFCURVE",
"177 678 CURVE SMOOTH",
"177 678 OFFCURVE",
"166 646 OFFCURVE",
"166 591 CURVE SMOOTH",
"166 365 LINE SMOOTH",
"166 364 OFFCURVE",
"167 363 OFFCURVE",
"169 363 CURVE SMOOTH",
"170 363 OFFCURVE",
"171 364 OFFCURVE",
"172 365 CURVE SMOOTH",
"192 387 OFFCURVE",
"259 438 OFFCURVE",
"307 438 CURVE SMOOTH",
"415 438 OFFCURVE",
"436 371 OFFCURVE",
"436 226 CURVE SMOOTH",
"436 116 LINE SMOOTH",
"436 86 OFFCURVE",
"436 58 OFFCURVE",
"441 42 CURVE SMOOTH",
"444 31 OFFCURVE",
"492 26 OFFCURVE",
"504 26 CURVE",
"508 21 OFFCURVE",
"509 2 OFFCURVE",
"504 -3 CURVE",
"463 -1 OFFCURVE",
"436 2 OFFCURVE",
"397 2 CURVE SMOOTH",
"358 2 OFFCURVE",
"332 -1 OFFCURVE",
"291 -3 CURVE",
"286 2 OFFCURVE",
"287 21 OFFCURVE",
"291 26 CURVE",
"303 26 OFFCURVE",
"351 31 OFFCURVE",
"354 42 CURVE SMOOTH",
"359 58 OFFCURVE",
"359 86 OFFCURVE",
"359 116 CURVE SMOOTH",
"359 216 LINE SMOOTH",
"359 340 OFFCURVE",
"339 380 OFFCURVE",
"261 380 CURVE SMOOTH",
"224 380 OFFCURVE",
"166 334 OFFCURVE",
"166 325 CURVE SMOOTH",
"166 116 LINE SMOOTH",
"166 86 OFFCURVE",
"166 58 OFFCURVE",
"171 42 CURVE SMOOTH",
"174 31 OFFCURVE",
"222 26 OFFCURVE",
"234 26 CURVE",
"238 21 OFFCURVE",
"239 2 OFFCURVE",
"234 -3 CURVE",
"193 -1 OFFCURVE",
"166 2 OFFCURVE",
"127 2 CURVE SMOOTH",
"88 2 OFFCURVE",
"62 -1 OFFCURVE"
);
}
);
width = 516;
}
);
unicode = 0068;
userData = {
com.fontlab.hintData = {
hhints = (
{
position = -3;
width = 29;
},
{
position = 380;
width = 58;
},
{
position = 628;
width = 26;
},
{
position = 674;
width = 20;
}
);
vhints = (
{
position = 89;
width = 77;
},
{
position = 359;
width = 77;
}
);
};
};
},
{
glyphname = hbar;
lastChange = "2017-07-12 19:24:32 +0000";
layers = (
{
layerId = "7694D355-AE73-4198-9D25-79029021B8F9";
paths = (
{
closed = 1;
nodes = (
"23 537 CURVE SMOOTH",
"23 542 OFFCURVE",
"25 553 OFFCURVE",
"29 560 CURVE",
"88 560 LINE",
"87.988 573.6 OFFCURVE",
"87.756 598.586 OFFCURVE",
"83 610 CURVE SMOOTH",
"77 624 OFFCURVE",
"50 628 OFFCURVE",
"22 628 CURVE SMOOTH",
"21 628 OFFCURVE",
"19 653 OFFCURVE",
"23 654 CURVE SMOOTH",
"73 659 OFFCURVE",
"123 675 OFFCURVE",
"165 694 CURVE SMOOTH",
"170 694 OFFCURVE",
"176 685 OFFCURVE",
"176 678 CURVE SMOOTH",
"176 678 OFFCURVE",
"165 646 OFFCURVE",
"165 591 CURVE SMOOTH",
"165 560 LINE",
"294 560 LINE SMOOTH",
"298 560 OFFCURVE",
"300 556 OFFCURVE",
"300 552 CURVE SMOOTH",
"300 547 OFFCURVE",
"298 533 OFFCURVE",
"294 525 CURVE",
"165 525 LINE",
"165 365 LINE SMOOTH",
"165 364 OFFCURVE",
"166 363 OFFCURVE",
"168 363 CURVE SMOOTH",
"169 363 OFFCURVE",
"170 364 OFFCURVE",
"171 365 CURVE SMOOTH",
"191 387 OFFCURVE",
"258 438 OFFCURVE",
"306 438 CURVE SMOOTH",
"414 438 OFFCURVE",
"435 371 OFFCURVE",
"435 226 CURVE SMOOTH",
"435 116 LINE SMOOTH",
"435 86 OFFCURVE",
"435 58 OFFCURVE",
"440 42 CURVE SMOOTH",
"443 31 OFFCURVE",
"491 26 OFFCURVE",
"503 26 CURVE",
"507 21 OFFCURVE",
"508 2 OFFCURVE",
"503 -3 CURVE",
"462 -1 OFFCURVE",
"435 2 OFFCURVE",
"396 2 CURVE SMOOTH",
"357 2 OFFCURVE",
"331 -1 OFFCURVE",
"290 -3 CURVE",
"285 2 OFFCURVE",
"286 21 OFFCURVE",
"290 26 CURVE",
"302 26 OFFCURVE",
"350 31 OFFCURVE",
"353 42 CURVE SMOOTH",
"358 58 OFFCURVE",
"358 86 OFFCURVE",
"358 116 CURVE SMOOTH",
"358 216 LINE SMOOTH",
"358 340 OFFCURVE",
"338 380 OFFCURVE",
"260 380 CURVE SMOOTH",
"223 380 OFFCURVE",
"165 334 OFFCURVE",
"165 325 CURVE SMOOTH",
"165 116 LINE SMOOTH",
"165 86 OFFCURVE",
"165 58 OFFCURVE",
"170 42 CURVE SMOOTH",
"173 31 OFFCURVE",
"221 26 OFFCURVE",
"233 26 CURVE",
"237 21 OFFCURVE",
"238 2 OFFCURVE",
"233 -3 CURVE",
"192 -1 OFFCURVE",
"165 2 OFFCURVE",
"126 2 CURVE SMOOTH",
"87 2 OFFCURVE",
"61 -1 OFFCURVE",
"20 -3 CURVE",
"15 2 OFFCURVE",
"16 21 OFFCURVE",
"20 26 CURVE",
"32 26 OFFCURVE",
"80 31 OFFCURVE",
"83 42 CURVE SMOOTH",
"88 58 OFFCURVE",
"88 86 OFFCURVE",
"88 116 CURVE SMOOTH",
"88 525 LINE",
"28 525 LINE SMOOTH",
"24 525 OFFCURVE",
"23 533 OFFCURVE"
);
}
);
width = 516;
}
);
unicode = 0127;
userData = {
com.fontlab.hintData = {
hhints = (
{
position = -3;
width = 29;
},
{
position = 380;
width = 58;
},
{
position = 525;
width = 35;
},
{
position = 628;
width = 26;
},
{
position = 674;
width = 20;
}
);
vhints = (
{
position = 88;
width = 77;
},
{
position = 358;
width = 77;
}
);
};
};
},
{
glyphname = dotlessi;
lastChange = "2017-07-12 19:24:32 +0000";
layers = (
{
layerId = "7694D355-AE73-4198-9D25-79029021B8F9";
paths = (
{
closed = 1;
nodes = (
"34 372 CURVE",
"32 374 OFFCURVE",
"30 393 OFFCURVE",
"34 398 CURVE",
"85 405 OFFCURVE",
"137 419 OFFCURVE",
"177 440 CURVE",
"182 440 OFFCURVE",
"188 429 OFFCURVE",
"188 424 CURVE SMOOTH",
"187 417 OFFCURVE",
"181 368 OFFCURVE",
"181 358 CURVE SMOOTH",
"181 116 LINE SMOOTH",
"181 86 OFFCURVE",
"181 58 OFFCURVE",
"186 42 CURVE SMOOTH",
"189 31 OFFCURVE",
"237 26 OFFCURVE",
"249 26 CURVE",
"253 21 OFFCURVE",
"254 2 OFFCURVE",
"249 -3 CURVE",
"208 -1 OFFCURVE",
"181 2 OFFCURVE",
"142 2 CURVE SMOOTH",
"103 2 OFFCURVE",
"77 -1 OFFCURVE",
"36 -3 CURVE",
"31 2 OFFCURVE",
"32 21 OFFCURVE",
"36 26 CURVE",
"48 26 OFFCURVE",
"96 31 OFFCURVE",
"99 42 CURVE SMOOTH",
"104 58 OFFCURVE",
"104 86 OFFCURVE",
"104 116 CURVE SMOOTH",
"104 302 LINE SMOOTH",
"104 315 OFFCURVE",
"104 342 OFFCURVE",
"99 354 CURVE SMOOTH",
"92 371 OFFCURVE",
"41 372 OFFCURVE"
);
}
);
width = 270;
}
);
unicode = 0131;
userData = {
com.fontlab.hintData = {
hhints = (
{
position = -3;
width = 29;
},
{
position = 372;
width = 26;
},
{
position = 420;
width = 20;
}
);
vhints = (
{
position = 34;
width = 154;
},
{
position = 104;
width = 77;
}
);
};
};
},
{
glyphname = iogonek;
lastChange = "2017-07-12 19:24:32 +0000";
layers = (
{
components = (
{
name = uni0307;
transform = "{1, 0, 0, 1, 140, 45}";
}
);
layerId = "7694D355-AE73-4198-9D25-79029021B8F9";
paths = (
{
closed = 1;
nodes = (
"32 -3 CURVE",
"27 2 OFFCURVE",
"28 21 OFFCURVE",
"32 26 CURVE",
"44 26 OFFCURVE",
"92 31 OFFCURVE",
"95 42 CURVE SMOOTH",
"100 58 OFFCURVE",
"100 86 OFFCURVE",
"100 116 CURVE SMOOTH",
"100 302 LINE SMOOTH",
"100 315 OFFCURVE",
"100 342 OFFCURVE",
"95 354 CURVE SMOOTH",
"88 371 OFFCURVE",
"37 372 OFFCURVE",
"30 372 CURVE",
"28 374 OFFCURVE",
"26 393 OFFCURVE",
"30 398 CURVE",
"81 405 OFFCURVE",
"133 419 OFFCURVE",
"173 440 CURVE",
"178 440 OFFCURVE",
"184 429 OFFCURVE",
"184 424 CURVE SMOOTH",
"183 417 OFFCURVE",
"177 368 OFFCURVE",
"177 358 CURVE SMOOTH",
"177 116 LINE SMOOTH",
"177 86 OFFCURVE",
"177 58 OFFCURVE",
"182 42 CURVE SMOOTH",
"185 31 OFFCURVE",
"233 26 OFFCURVE",
"245 26 CURVE",
"249 21 OFFCURVE",
"250 2 OFFCURVE",
"245 -3 CURVE",
"236 -2 OFFCURVE",
"220 -2 OFFCURVE",
"211 -1 CURVE",
"167 -28 OFFCURVE",
"106 -79 OFFCURVE",
"106 -122 CURVE SMOOTH",
"106 -137 OFFCURVE",
"113 -165 OFFCURVE",
"147 -165 CURVE SMOOTH",
"198 -165 OFFCURVE",
"222 -127 OFFCURVE",
"228 -127 CURVE SMOOTH",
"229 -127 OFFCURVE",
"232 -132 OFFCURVE",
"232 -140 CURVE SMOOTH",
"232 -145 OFFCURVE",
"231 -154 OFFCURVE",
"228 -158 CURVE SMOOTH",
"206 -187 OFFCURVE",
"168 -224 OFFCURVE",
"123 -224 CURVE SMOOTH",
"67 -224 OFFCURVE",
"52 -174 OFFCURVE",
"52 -147 CURVE SMOOTH",
"52 -93 OFFCURVE",
"115 -34 OFFCURVE",
"168 1 CURVE",
"160 1 OFFCURVE",
"151 2 OFFCURVE",
"141 2 CURVE SMOOTH",
"100 2 OFFCURVE",
"73 -1 OFFCURVE"
);
}
);
width = 268;
}
);
unicode = 012F;
userData = {
com.fontlab.hintData = {
hhints = (
{
position = -224;
width = 59;
},
{
position = -3;
width = 29;
},
{
position = 372;
width = 26;
},
{
position = 420;
width = 20;
},
{
position = 559;
width = 100;
}
);
vhints = (
{
position = 52;
width = 54;
},
{
position = 90;
width = 100;
},
{
position = 100;
width = 77;
}
);
};
};
},
{
glyphname = uni0237;
lastChange = "2017-07-12 19:24:32 +0000";
layers = (
{
layerId = "7694D355-AE73-4198-9D25-79029021B8F9";
paths = (
{
closed = 1;
nodes = (
"-17 -209 CURVE SMOOTH",
"40 -168 OFFCURVE",
"92 -121 OFFCURVE",
"92 45 CURVE SMOOTH",
"92 302 LINE SMOOTH",
"92 315 OFFCURVE",
"92 342 OFFCURVE",
"87 354 CURVE SMOOTH",
"80 371 OFFCURVE",
"29 372 OFFCURVE",
"22 372 CURVE",
"20 374 OFFCURVE",
"18 393 OFFCURVE",
"22 398 CURVE",
"73 405 OFFCURVE",
"125 419 OFFCURVE",
"165 440 CURVE",
"170 440 OFFCURVE",
"176 429 OFFCURVE",
"176 424 CURVE SMOOTH",
"175 417 OFFCURVE",
"169 371 OFFCURVE",
"169 358 CURVE SMOOTH",
"169 68 LINE SMOOTH",
"169 -124 OFFCURVE",
"64 -203 OFFCURVE",
"-4 -231 CURVE",
"-9 -228 OFFCURVE",
"-15 -221 OFFCURVE",
"-17 -216 CURVE SMOOTH",
"-18 -214 OFFCURVE",
"-18 -210 OFFCURVE"
);
}
);
width = 239;
}
);
unicode = 0237;
userData = {
com.fontlab.hintData = {
hhints = (
{
position = 372;
width = 26;
},
{
position = 420;
width = 20;
}
);
vhints = (
{
position = 92;
width = 77;
}
);
};
};
},
{
glyphname = k;
lastChange = "2017-07-12 19:24:32 +0000";
layers = (
{
layerId = "7694D355-AE73-4198-9D25-79029021B8F9";
paths = (
{
closed = 1;
nodes = (
"21 -3 CURVE",
"16 2 OFFCURVE",
"17 21 OFFCURVE",
"21 26 CURVE",
"33 26 OFFCURVE",
"81 31 OFFCURVE",
"84 42 CURVE SMOOTH",
"89 58 OFFCURVE",
"89 86 OFFCURVE",
"89 116 CURVE SMOOTH",
"89 558 LINE SMOOTH",
"89 572 OFFCURVE",
"89 598 OFFCURVE",
"84 610 CURVE SMOOTH",
"78 624 OFFCURVE",
"51 628 OFFCURVE",
"23 628 CURVE SMOOTH",
"22 628 OFFCURVE",
"20 653 OFFCURVE",
"24 654 CURVE SMOOTH",
"74 659 OFFCURVE",
"124 675 OFFCURVE",
"166 694 CURVE",
"171 694 OFFCURVE",
"177 685 OFFCURVE",
"177 678 CURVE SMOOTH",
"177 678 OFFCURVE",
"166 646 OFFCURVE",
"166 591 CURVE SMOOTH",
"166 235 LINE",
"183 241 OFFCURVE",
"214 267 OFFCURVE",
"248 296 CURVE SMOOTH",
"300 340 OFFCURVE",
"340 369 OFFCURVE",
"340 379 CURVE SMOOTH",
"340 394 OFFCURVE",
"301 395 OFFCURVE",
"292 396 CURVE",
"287 403 OFFCURVE",
"289 423 OFFCURVE",
"294 425 CURVE",
"323 422 OFFCURVE",
"358 420 OFFCURVE",
"390 420 CURVE SMOOTH",
"424 420 OFFCURVE",
"456 422 OFFCURVE",
"478 425 CURVE",
"482 419 OFFCURVE",
"481 400 OFFCURVE",
"478 396 CURVE",
"464 396 OFFCURVE",
"422 388 OFFCURVE",
"401 373 CURVE SMOOTH",
"390 365 OFFCURVE",
"298 299 OFFCURVE",
"239 249 CURVE",
"314 168 OFFCURVE",
"395 73 OFFCURVE",
"419 53 CURVE SMOOTH",
"445 32 OFFCURVE",
"485 25 OFFCURVE",
"511 26 CURVE",
"513 23 OFFCURVE",
"515 7 OFFCURVE",
"512 2 CURVE",
"505 -1 OFFCURVE",
"474 -4 OFFCURVE",
"447 -4 CURVE SMOOTH",
"388 -4 OFFCURVE",
"339 24 OFFCURVE",
"324 40 CURVE SMOOTH",
"324 40 OFFCURVE",
"238 133 OFFCURVE",
"181 195 CURVE SMOOTH",
"177 200 OFFCURVE",
"166 204 OFFCURVE",
"166 204 CURVE",
"166 116 LINE SMOOTH",
"166 86 OFFCURVE",
"166 58 OFFCURVE",
"171 42 CURVE SMOOTH",
"174 31 OFFCURVE",
"222 26 OFFCURVE",
"234 26 CURVE",
"238 21 OFFCURVE",
"239 2 OFFCURVE",
"234 -3 CURVE",
"193 -1 OFFCURVE",
"166 2 OFFCURVE",
"127 2 CURVE SMOOTH",
"88 2 OFFCURVE",
"62 -1 OFFCURVE"
);
}
);
width = 518;
}
);
unicode = 006B;
userData = {
com.fontlab.hintData = {
hhints = (
{
position = -3;
width = 29;
},
{
position = 396;
width = 29;
},
{
position = 628;
width = 26;
},
{
position = 674;
width = 20;
}
);
vhints = (
{
position = 89;
width = 77;
}
);
};
};
},
{
glyphname = kgreenlandic;
lastChange = "2017-07-12 19:24:32 +0000";
layers = (
{
layerId = "7694D355-AE73-4198-9D25-79029021B8F9";
paths = (
{
closed = 1;
nodes = (
"34 372 CURVE",
"32 374 OFFCURVE",
"30 393 OFFCURVE",
"34 398 CURVE",
"85 405 OFFCURVE",
"137 419 OFFCURVE",
"177 440 CURVE",
"182 440 OFFCURVE",
"188 429 OFFCURVE",
"188 424 CURVE SMOOTH",
"187 417 OFFCURVE",
"181 368 OFFCURVE",
"181 358 CURVE SMOOTH",
"181 235 LINE",
"198 241 OFFCURVE",
"229 267 OFFCURVE",
"263 296 CURVE SMOOTH",
"315 340 OFFCURVE",
"355 369 OFFCURVE",
"355 379 CURVE SMOOTH",
"355 394 OFFCURVE",
"316 395 OFFCURVE",
"307 396 CURVE",
"302 403 OFFCURVE",
"304 423 OFFCURVE",
"309 425 CURVE",
"338 422 OFFCURVE",
"373 420 OFFCURVE",
"405 420 CURVE SMOOTH",
"439 420 OFFCURVE",
"471 422 OFFCURVE",
"493 425 CURVE",
"497 419 OFFCURVE",
"496 400 OFFCURVE",
"493 396 CURVE",
"479 396 OFFCURVE",
"437 388 OFFCURVE",
"416 373 CURVE SMOOTH",
"405 365 OFFCURVE",
"313 299 OFFCURVE",
"254 249 CURVE",
"329 168 OFFCURVE",
"410 73 OFFCURVE",
"434 53 CURVE SMOOTH",
"460 32 OFFCURVE",
"500 25 OFFCURVE",
"526 26 CURVE",
"528 23 OFFCURVE",
"530 7 OFFCURVE",
"527 2 CURVE",
"520 -1 OFFCURVE",
"489 -4 OFFCURVE",
"462 -4 CURVE SMOOTH",
"403 -4 OFFCURVE",
"354 24 OFFCURVE",
"339 40 CURVE SMOOTH",
"339 40 OFFCURVE",
"253 133 OFFCURVE",
"196 195 CURVE SMOOTH",
"192 200 OFFCURVE",
"181 204 OFFCURVE",
"181 204 CURVE",
"181 116 LINE SMOOTH",
"181 86 OFFCURVE",
"181 58 OFFCURVE",
"186 42 CURVE SMOOTH",
"189 31 OFFCURVE",
"237 26 OFFCURVE",
"249 26 CURVE",
"253 21 OFFCURVE",
"254 2 OFFCURVE",
"249 -3 CURVE",
"208 -1 OFFCURVE",
"181 2 OFFCURVE",
"142 2 CURVE SMOOTH",
"103 2 OFFCURVE",
"77 -1 OFFCURVE",
"36 -3 CURVE",
"31 2 OFFCURVE",
"32 21 OFFCURVE",
"36 26 CURVE",
"48 26 OFFCURVE",
"96 31 OFFCURVE",
"99 42 CURVE SMOOTH",
"104 58 OFFCURVE",
"104 86 OFFCURVE",
"104 116 CURVE SMOOTH",
"104 302 LINE SMOOTH",
"104 315 OFFCURVE",
"104 342 OFFCURVE",
"99 354 CURVE SMOOTH",
"92 371 OFFCURVE",
"41 372 OFFCURVE"
);
}
);
width = 533;
}
);
unicode = 0138;
userData = {
com.fontlab.hintData = {
hhints = (
{
position = -3;
width = 29;
},
{
position = 372;
width = 26;
},
{
position = 396;
width = 29;
},
{
position = 420;
width = 20;
}
);
vhints = (
{
position = 104;
width = 77;
}
);
};
};
},
{
glyphname = l;
lastChange = "2017-07-12 19:24:32 +0000";
layers = (
{
layerId = "7694D355-AE73-4198-9D25-79029021B8F9";
paths = (
{
closed = 1;
nodes = (
"21 -3 CURVE",
"16 2 OFFCURVE",
"17 21 OFFCURVE",
"21 26 CURVE",
"33 26 OFFCURVE",
"81 31 OFFCURVE",
"84 42 CURVE SMOOTH",
"89 58 OFFCURVE",
"89 86 OFFCURVE",
"89 116 CURVE SMOOTH",
"89 558 LINE SMOOTH",
"89 572 OFFCURVE",
"89 598 OFFCURVE",
"84 610 CURVE SMOOTH",
"78 624 OFFCURVE",
"51 628 OFFCURVE",
"23 628 CURVE SMOOTH",
"22 628 OFFCURVE",
"20 653 OFFCURVE",
"24 654 CURVE SMOOTH",
"74 659 OFFCURVE",
"124 675 OFFCURVE",
"166 694 CURVE",
"171 694 OFFCURVE",
"177 685 OFFCURVE",
"177 678 CURVE SMOOTH",
"177 678 OFFCURVE",
"166 646 OFFCURVE",
"166 591 CURVE SMOOTH",
"166 116 LINE SMOOTH",
"166 86 OFFCURVE",
"166 58 OFFCURVE",
"171 42 CURVE SMOOTH",
"174 31 OFFCURVE",
"222 26 OFFCURVE",
"234 26 CURVE",
"238 21 OFFCURVE",
"239 2 OFFCURVE",
"234 -3 CURVE",
"193 -1 OFFCURVE",
"166 2 OFFCURVE",
"127 2 CURVE SMOOTH",
"88 2 OFFCURVE",
"62 -1 OFFCURVE"
);
}
);
width = 255;
}
);
unicode = 006C;
userData = {
com.fontlab.hintData = {
hhints = (
{
position = -3;
width = 29;
},
{
position = 628;
width = 26;
},
{
position = 674;
width = 20;
}
);
vhints = (
{
position = 89;
width = 77;
}
);
};
};
},
{
glyphname = lslash;
lastChange = "2017-07-12 19:24:32 +0000";
layers = (
{
layerId = "7694D355-AE73-4198-9D25-79029021B8F9";
paths = (
{
closed = 1;
nodes = (
"21 -3 CURVE",
"16 2 OFFCURVE",
"17 21 OFFCURVE",
"21 26 CURVE",
"33 26 OFFCURVE",
"81 31 OFFCURVE",
"84 42 CURVE SMOOTH",
"89 58 OFFCURVE",
"89 86 OFFCURVE",
"89 116 CURVE SMOOTH",
"89 297.091 LINE",
"35 260 LINE",
"29 266 OFFCURVE",
"16 284 OFFCURVE",
"20 288 CURVE",
"89 335.284 LINE",
"89 558 LINE SMOOTH",
"89 572 OFFCURVE",
"89 598 OFFCURVE",
"84 610 CURVE SMOOTH",
"78 624 OFFCURVE",
"51 628 OFFCURVE",
"23 628 CURVE SMOOTH",
"22 628 OFFCURVE",
"20 653 OFFCURVE",
"24 654 CURVE SMOOTH",
"74 659 OFFCURVE",
"124 675 OFFCURVE",
"166 694 CURVE SMOOTH",
"171 694 OFFCURVE",
"177 685 OFFCURVE",
"177 678 CURVE SMOOTH",
"177 678 OFFCURVE",
"166 646 OFFCURVE",
"166 591 CURVE SMOOTH",
"166 388.051 LINE",
"217 423 LINE",
"222 418 OFFCURVE",
"237 400 OFFCURVE",
"233 396 CURVE",
"166 349.98 LINE",
"166 116 LINE SMOOTH",
"166 86 OFFCURVE",
"166 58 OFFCURVE",
"171 42 CURVE SMOOTH",
"174 31 OFFCURVE",
"222 26 OFFCURVE",
"234 26 CURVE",
"238 21 OFFCURVE",
"239 2 OFFCURVE",
"234 -3 CURVE",
"193 -1 OFFCURVE",
"166 2 OFFCURVE",
"127 2 CURVE SMOOTH",
"88 2 OFFCURVE",
"62 -1 OFFCURVE"
);
}
);
width = 255;
}
);
unicode = 0142;
userData = {
com.fontlab.hintData = {
hhints = (
{
position = -3;
width = 29;
},
{
position = 628;
width = 26;
},
{
position = 674;
width = 20;
}
);
vhints = (
{
position = 89;
width = 77;
}
);
};
};
},
{
glyphname = m;
lastChange = "2017-07-12 19:24:32 +0000";
layers = (
{
layerId = "7694D355-AE73-4198-9D25-79029021B8F9";
paths = (
{
closed = 1;
nodes = (
"34 372 CURVE",
"32 374 OFFCURVE",
"30 393 OFFCURVE",
"34 398 CURVE",
"85 405 OFFCURVE",
"137 419 OFFCURVE",
"177 440 CURVE",
"182 440 OFFCURVE",
"188 429 OFFCURVE",
"188 424 CURVE SMOOTH",
"187 417 OFFCURVE",
"182 380 OFFCURVE",
"182 372 CURVE SMOOTH",
"182 371 OFFCURVE",
"182 368 OFFCURVE",
"184 368 CURVE SMOOTH",
"185 368 OFFCURVE",
"186 369 OFFCURVE",
"187 370 CURVE SMOOTH",
"212 391 OFFCURVE",
"265 438 OFFCURVE",
"319 438 CURVE SMOOTH",
"378 438 OFFCURVE",
"417 415 OFFCURVE",
"433 355 CURVE",
"477 395 OFFCURVE",
"532 438 OFFCURVE",
"580 438 CURVE SMOOTH",
"688 438 OFFCURVE",
"709 371 OFFCURVE",
"709 226 CURVE SMOOTH",
"709 116 LINE SMOOTH",
"709 86 OFFCURVE",
"709 58 OFFCURVE",
"714 42 CURVE SMOOTH",
"717 31 OFFCURVE",
"765 26 OFFCURVE",
"777 26 CURVE",
"781 21 OFFCURVE",
"782 2 OFFCURVE",
"777 -3 CURVE",
"736 -1 OFFCURVE",
"709 2 OFFCURVE",
"670 2 CURVE SMOOTH",
"631 2 OFFCURVE",
"605 -1 OFFCURVE",
"564 -3 CURVE",
"559 2 OFFCURVE",
"560 21 OFFCURVE",
"564 26 CURVE",
"576 26 OFFCURVE",
"624 31 OFFCURVE",
"627 42 CURVE SMOOTH",
"632 58 OFFCURVE",
"632 86 OFFCURVE",
"632 116 CURVE SMOOTH",
"632 223 LINE SMOOTH",
"632 322 OFFCURVE",
"619 380 OFFCURVE",
"538 380 CURVE SMOOTH",
"489 380 OFFCURVE",
"440 330 OFFCURVE",
"440 323 CURVE SMOOTH",
"443 302 OFFCURVE",
"445 262.478 OFFCURVE",
"445 239 CURVE SMOOTH",
"445 116 LINE SMOOTH",
"445 86 OFFCURVE",
"445 58 OFFCURVE",
"450 42 CURVE SMOOTH",
"453 31 OFFCURVE",
"501 26 OFFCURVE",
"513 26 CURVE",
"517 21 OFFCURVE",
"518 2 OFFCURVE",
"513 -3 CURVE",
"472 -1 OFFCURVE",
"445 2 OFFCURVE",
"406 2 CURVE SMOOTH",
"367 2 OFFCURVE",
"341 -1 OFFCURVE",
"300 -3 CURVE",
"295 2 OFFCURVE",
"296 21 OFFCURVE",
"300 26 CURVE",
"312 26 OFFCURVE",
"360 31 OFFCURVE",
"363 42 CURVE SMOOTH",
"368 58 OFFCURVE",
"368 86 OFFCURVE",
"368 116 CURVE SMOOTH",
"368 218 LINE SMOOTH",
"368 340 OFFCURVE",
"346 380 OFFCURVE",
"274 380 CURVE SMOOTH",
"229 380 OFFCURVE",
"181 338 OFFCURVE",
"181 325 CURVE SMOOTH",
"181 116 LINE SMOOTH",
"181 86 OFFCURVE",
"181 58 OFFCURVE",
"186 42 CURVE SMOOTH",
"189 31 OFFCURVE",
"237 26 OFFCURVE",
"249 26 CURVE",
"253 21 OFFCURVE",
"254 2 OFFCURVE",
"249 -3 CURVE",
"208 -1 OFFCURVE",
"181 2 OFFCURVE",
"142 2 CURVE SMOOTH",
"103 2 OFFCURVE",
"77 -1 OFFCURVE",
"36 -3 CURVE",
"31 2 OFFCURVE",
"32 21 OFFCURVE",
"36 26 CURVE",
"48 26 OFFCURVE",
"96 31 OFFCURVE",
"99 42 CURVE SMOOTH",
"104 58 OFFCURVE",
"104 86 OFFCURVE",
"104 116 CURVE SMOOTH",
"104 298 LINE SMOOTH",
"104 311 OFFCURVE",
"104 342 OFFCURVE",
"99 354 CURVE SMOOTH",
"92 371 OFFCURVE",
"41 372 OFFCURVE"
);
}
);
width = 790;
}
);
unicode = 006D;
userData = {
com.fontlab.hintData = {
hhints = (
{
position = -3;
width = 29;
},
{
position = 372;
width = 26;
},
{
position = 380;
width = 58;
}
);
vhints = (
{
position = 104;
width = 77;
},
{
position = 368;
width = 77;
},
{
position = 632;
width = 77;
}
);
};
};
},
{
glyphname = n;
lastChange = "2017-07-12 19:24:32 +0000";
layers = (
{
layerId = "7694D355-AE73-4198-9D25-79029021B8F9";
paths = (
{
closed = 1;
nodes = (
"34 372 CURVE",
"32 374 OFFCURVE",
"30 393 OFFCURVE",
"34 398 CURVE",
"85 405 OFFCURVE",
"137 419 OFFCURVE",
"177 440 CURVE",
"182 440 OFFCURVE",
"188 429 OFFCURVE",
"188 424 CURVE SMOOTH",
"187 417 OFFCURVE",
"182 375 OFFCURVE",
"182 367 CURVE SMOOTH",
"182 366 OFFCURVE",
"182 363 OFFCURVE",
"184 363 CURVE SMOOTH",
"185 363 OFFCURVE",
"186 364 OFFCURVE",
"187 365 CURVE SMOOTH",
"207 387 OFFCURVE",
"274 438 OFFCURVE",
"322 438 CURVE SMOOTH",
"430 438 OFFCURVE",
"451 371 OFFCURVE",
"451 226 CURVE SMOOTH",
"451 116 LINE SMOOTH",
"451 86 OFFCURVE",
"451 58 OFFCURVE",
"456 42 CURVE SMOOTH",
"459 31 OFFCURVE",
"507 26 OFFCURVE",
"519 26 CURVE",
"523 21 OFFCURVE",
"524 2 OFFCURVE",
"519 -3 CURVE",
"478 -1 OFFCURVE",
"451 2 OFFCURVE",
"412 2 CURVE SMOOTH",
"373 2 OFFCURVE",
"347 -1 OFFCURVE",
"306 -3 CURVE",
"301 2 OFFCURVE",
"302 21 OFFCURVE",
"306 26 CURVE",
"318 26 OFFCURVE",
"366 31 OFFCURVE",
"369 42 CURVE SMOOTH",
"374 58 OFFCURVE",
"374 86 OFFCURVE",
"374 116 CURVE SMOOTH",
"374 216 LINE SMOOTH",
"374 340 OFFCURVE",
"354 380 OFFCURVE",
"276 380 CURVE SMOOTH",
"239 380 OFFCURVE",
"181 334 OFFCURVE",
"181 325 CURVE SMOOTH",
"181 116 LINE SMOOTH",
"181 86 OFFCURVE",
"181 58 OFFCURVE",
"186 42 CURVE SMOOTH",
"189 31 OFFCURVE",
"237 26 OFFCURVE",
"249 26 CURVE",
"253 21 OFFCURVE",
"254 2 OFFCURVE",
"249 -3 CURVE",
"208 -1 OFFCURVE",
"181 2 OFFCURVE",
"142 2 CURVE SMOOTH",
"103 2 OFFCURVE",
"77 -1 OFFCURVE",
"36 -3 CURVE",
"31 2 OFFCURVE",
"32 21 OFFCURVE",
"36 26 CURVE",
"48 26 OFFCURVE",
"96 31 OFFCURVE",
"99 42 CURVE SMOOTH",
"104 58 OFFCURVE",
"104 86 OFFCURVE",
"104 116 CURVE SMOOTH",
"104 298 LINE SMOOTH",
"104 311 OFFCURVE",
"104 342 OFFCURVE",
"99 354 CURVE SMOOTH",
"92 371 OFFCURVE",
"41 372 OFFCURVE"
);
}
);
width = 532;
}
);
unicode = 006E;
userData = {
com.fontlab.hintData = {
hhints = (
{
position = -3;
width = 29;
},
{
position = 372;
width = 26;
},
{
position = 380;
width = 58;
}
);
vhints = (
{
position = 104;
width = 77;
},
{
position = 374;
width = 77;
}
);
};
};
},
{
glyphname = eng;
lastChange = "2017-07-12 19:24:32 +0000";
layers = (
{
layerId = "7694D355-AE73-4198-9D25-79029021B8F9";
paths = (
{
closed = 1;
nodes = (
"34 372 CURVE",
"32 374 OFFCURVE",
"30 393 OFFCURVE",
"34 398 CURVE",
"85 405 OFFCURVE",
"137 419 OFFCURVE",
"177 440 CURVE",
"182 440 OFFCURVE",
"188 429 OFFCURVE",
"188 424 CURVE SMOOTH",
"187 417 OFFCURVE",
"182 375 OFFCURVE",
"182 367 CURVE SMOOTH",
"182 366 OFFCURVE",
"182 363 OFFCURVE",
"184 363 CURVE SMOOTH",
"185 363 OFFCURVE",
"186 364 OFFCURVE",
"187 365 CURVE SMOOTH",
"207 387 OFFCURVE",
"274 438 OFFCURVE",
"322 438 CURVE SMOOTH",
"430 438 OFFCURVE",
"451 371 OFFCURVE",
"451 226 CURVE SMOOTH",
"451 68 LINE SMOOTH",
"451 -124 OFFCURVE",
"346 -203 OFFCURVE",
"278 -231 CURVE",
"273 -228 OFFCURVE",
"267 -221 OFFCURVE",
"265 -216 CURVE SMOOTH",
"264 -214 OFFCURVE",
"264 -210 OFFCURVE",
"265 -209 CURVE SMOOTH",
"322 -168 OFFCURVE",
"374 -120 OFFCURVE",
"374 46 CURVE SMOOTH",
"374 216 LINE SMOOTH",
"374 340 OFFCURVE",
"354 380 OFFCURVE",
"276 380 CURVE SMOOTH",
"239 380 OFFCURVE",
"181 334 OFFCURVE",
"181 325 CURVE SMOOTH",
"181 116 LINE SMOOTH",
"181 86 OFFCURVE",
"181 58 OFFCURVE",
"186 42 CURVE SMOOTH",
"189 31 OFFCURVE",
"237 26 OFFCURVE",
"249 26 CURVE",
"253 21 OFFCURVE",
"254 2 OFFCURVE",
"249 -3 CURVE",
"208 -1 OFFCURVE",
"181 2 OFFCURVE",
"142 2 CURVE SMOOTH",
"103 2 OFFCURVE",
"77 -1 OFFCURVE",
"36 -3 CURVE",
"31 2 OFFCURVE",
"32 21 OFFCURVE",
"36 26 CURVE",
"48 26 OFFCURVE",
"96 31 OFFCURVE",
"99 42 CURVE SMOOTH",
"104 58 OFFCURVE",
"104 86 OFFCURVE",
"104 116 CURVE SMOOTH",
"104 302 LINE SMOOTH",
"104 315 OFFCURVE",
"104 342 OFFCURVE",
"99 354 CURVE SMOOTH",
"92 371 OFFCURVE",
"41 372 OFFCURVE"
);
}
);
width = 521;
}
);
unicode = 014B;
userData = {
com.fontlab.hintData = {
hhints = (
{
position = -3;
width = 29;
},
{
position = 372;
width = 26;
},
{
position = 380;
width = 58;
}
);
vhints = (
{
position = 34;
width = 154;
},
{
position = 104;
width = 77;
},
{
position = 374;
width = 77;
}
);
};
};
},
{
glyphname = o;
lastChange = "2017-07-12 19:24:32 +0000";
layers = (
{
layerId = "7694D355-AE73-4198-9D25-79029021B8F9";
paths = (
{
closed = 1;
nodes = (
"41 213 CURVE SMOOTH",
"41 342 OFFCURVE",
"133 439 OFFCURVE",
"254 439 CURVE SMOOTH",
"386 439 OFFCURVE",
"468 346 OFFCURVE",
"468 221 CURVE SMOOTH",
"468 92 OFFCURVE",
"377 -7 OFFCURVE",
"256 -7 CURVE SMOOTH",
"124 -7 OFFCURVE",
"41 88 OFFCURVE"
);
},
{
closed = 1;
nodes = (
"127 233 CURVE SMOOTH",
"127 136 OFFCURVE",
"176 26 OFFCURVE",
"266 26 CURVE SMOOTH",
"351 26 OFFCURVE",
"382 113 OFFCURVE",
"382 198 CURVE SMOOTH",
"382 295 OFFCURVE",
"332 406 OFFCURVE",
"243 406 CURVE SMOOTH",
"158 406 OFFCURVE",
"127 319 OFFCURVE"
);
}
);
width = 509;
}
);
unicode = 006F;
userData = {
com.fontlab.hintData = {
hhints = (
{
position = -7;
width = 33;
},
{
position = 406;
width = 33;
}
);
vhints = (
{
position = 41;
width = 86;
},
{
position = 382;
width = 86;
}
);
};
};
},
